%TF.GenerationSoftware,KiCad,Pcbnew,8.0.2*%
%TF.CreationDate,2024-05-16T19:31:12+09:30*%
%TF.ProjectId,shutdownPCB,73687574-646f-4776-9e50-43422e6b6963,rev?*%
%TF.SameCoordinates,Original*%
%TF.FileFunction,Drillmap*%
%TF.FilePolarity,Positive*%
%FSLAX45Y45*%
G04 Gerber Fmt 4.5, Leading zero omitted, Abs format (unit mm)*
G04 Created by KiCad (PCBNEW 8.0.2) date 2024-05-16 19:31:12*
%MOMM*%
%LPD*%
G01*
G04 APERTURE LIST*
%ADD10C,0.100000*%
%ADD11C,0.200000*%
%ADD12C,0.120000*%
%ADD13C,0.320000*%
G04 APERTURE END LIST*
D10*
X7157189Y-21923280D02*
G75*
G02*
X6557188Y-21324280I-494J599507D01*
G01*
X21157197Y-21923277D02*
X18157197Y-21923277D01*
X21756191Y-9786668D02*
X21756191Y-8386668D01*
X6557189Y-21324280D02*
X6557188Y-9787658D01*
X18157197Y-21923277D02*
X7157189Y-21923280D01*
X6557188Y-8387658D02*
G75*
G02*
X7156188Y-7787658I599506J494D01*
G01*
X21756197Y-21323277D02*
X21756191Y-9786668D01*
X21756197Y-21323277D02*
G75*
G02*
X21157197Y-21923277I-599507J-493D01*
G01*
X21156191Y-7787668D02*
X18156191Y-7787668D01*
X21156191Y-7787668D02*
G75*
G02*
X21756192Y-8386668I479J-599522D01*
G01*
X18156191Y-7787668D02*
X7156188Y-7787658D01*
X6557188Y-8387658D02*
X6557188Y-9787658D01*
D11*
D10*
X6768362Y-9576863D02*
X6808362Y-9616863D01*
X6808362Y-9576863D02*
X6768362Y-9616863D01*
X6803277Y-20605976D02*
X6843277Y-20645976D01*
X6843277Y-20605976D02*
X6803277Y-20645976D01*
X6838312Y-20512367D02*
X6878312Y-20552367D01*
X6878312Y-20512367D02*
X6838312Y-20552367D01*
X6844250Y-9459752D02*
X6884250Y-9499752D01*
X6884250Y-9459752D02*
X6844250Y-9499752D01*
X6912630Y-9367840D02*
X6952630Y-9407840D01*
X6952630Y-9367840D02*
X6912630Y-9407840D01*
X6914200Y-20447320D02*
X6954200Y-20487320D01*
X6954200Y-20447320D02*
X6914200Y-20487320D01*
X6982580Y-9261160D02*
X7022580Y-9301160D01*
X7022580Y-9261160D02*
X6982580Y-9301160D01*
X6984150Y-20360960D02*
X7024150Y-20400960D01*
X7024150Y-20360960D02*
X6984150Y-20400960D01*
X7046280Y-9022400D02*
X7086280Y-9062400D01*
X7086280Y-9022400D02*
X7046280Y-9062400D01*
X7052530Y-9159560D02*
X7092530Y-9199560D01*
X7092530Y-9159560D02*
X7052530Y-9199560D01*
X7052530Y-20279953D02*
X7092530Y-20319953D01*
X7092530Y-20279953D02*
X7052530Y-20319953D01*
X7122480Y-20208560D02*
X7162480Y-20248560D01*
X7162480Y-20208560D02*
X7122480Y-20248560D01*
X7192430Y-19055400D02*
X7232430Y-19095400D01*
X7232430Y-19055400D02*
X7192430Y-19095400D01*
X7238297Y-9348221D02*
X7278297Y-9388221D01*
X7278297Y-9348221D02*
X7238297Y-9388221D01*
X7262380Y-18979764D02*
X7302380Y-19019764D01*
X7302380Y-18979764D02*
X7262380Y-19019764D01*
X7320600Y-19964720D02*
X7360600Y-20004720D01*
X7360600Y-19964720D02*
X7320600Y-20004720D01*
X7329179Y-9389823D02*
X7369179Y-9429823D01*
X7369179Y-9389823D02*
X7329179Y-9429823D01*
X7332330Y-17480600D02*
X7372330Y-17520600D01*
X7372330Y-17480600D02*
X7332330Y-17520600D01*
X7388217Y-9470473D02*
X7428217Y-9510473D01*
X7428217Y-9470473D02*
X7388217Y-9510473D01*
X7402280Y-10653080D02*
X7442280Y-10693080D01*
X7442280Y-10653080D02*
X7402280Y-10693080D01*
X7533960Y-12320970D02*
X7573960Y-12360970D01*
X7573960Y-12320970D02*
X7533960Y-12360970D01*
X7539040Y-15047280D02*
X7579040Y-15087280D01*
X7579040Y-15047280D02*
X7539040Y-15087280D01*
X7549200Y-16053120D02*
X7589200Y-16093120D01*
X7589200Y-16053120D02*
X7549200Y-16093120D01*
X7650800Y-10541320D02*
X7690800Y-10581320D01*
X7690800Y-10541320D02*
X7650800Y-10581320D01*
X7655880Y-19416080D02*
X7695880Y-19456080D01*
X7695880Y-19416080D02*
X7655880Y-19456080D01*
X7833680Y-10221280D02*
X7873680Y-10261280D01*
X7873680Y-10221280D02*
X7833680Y-10261280D01*
X7838760Y-16413800D02*
X7878760Y-16453800D01*
X7878760Y-16413800D02*
X7838760Y-16453800D01*
X7970840Y-10617520D02*
X8010840Y-10657520D01*
X8010840Y-10617520D02*
X7970840Y-10657520D01*
X8179120Y-10500680D02*
X8219120Y-10540680D01*
X8219120Y-10500680D02*
X8179120Y-10540680D01*
X8356920Y-19985040D02*
X8396920Y-20025040D01*
X8396920Y-19985040D02*
X8356920Y-20025040D01*
X8486929Y-19280991D02*
X8526929Y-19320991D01*
X8526929Y-19280991D02*
X8486929Y-19320991D01*
X8499160Y-10439720D02*
X8539160Y-10479720D01*
X8539160Y-10439720D02*
X8499160Y-10479720D01*
X8509320Y-17470440D02*
X8549320Y-17510440D01*
X8549320Y-17470440D02*
X8509320Y-17510440D01*
X8534720Y-12280970D02*
X8574720Y-12320970D01*
X8574720Y-12280970D02*
X8534720Y-12320970D01*
X8569110Y-11501440D02*
X8609110Y-11541440D01*
X8609110Y-11501440D02*
X8569110Y-11541440D01*
X8616000Y-14574840D02*
X8656000Y-14614840D01*
X8656000Y-14574840D02*
X8616000Y-14614840D01*
X8631240Y-7925120D02*
X8671240Y-7965120D01*
X8671240Y-7925120D02*
X8631240Y-7965120D01*
X8636320Y-10541320D02*
X8676320Y-10581320D01*
X8676320Y-10541320D02*
X8636320Y-10581320D01*
X8778560Y-17744760D02*
X8818560Y-17784760D01*
X8818560Y-17744760D02*
X8778560Y-17784760D01*
X8829360Y-17231680D02*
X8869360Y-17271680D01*
X8869360Y-17231680D02*
X8829360Y-17271680D01*
X8936040Y-16286800D02*
X8976040Y-16326800D01*
X8976040Y-16286800D02*
X8936040Y-16326800D01*
X8941120Y-15534960D02*
X8981120Y-15574960D01*
X8981120Y-15534960D02*
X8941120Y-15574960D01*
X8951280Y-17800640D02*
X8991280Y-17840640D01*
X8991280Y-17800640D02*
X8951280Y-17840640D01*
X8971600Y-20274600D02*
X9011600Y-20314600D01*
X9011600Y-20274600D02*
X8971600Y-20314600D01*
X8981760Y-15677200D02*
X9021760Y-15717200D01*
X9021760Y-15677200D02*
X8981760Y-15717200D01*
X8981760Y-19350040D02*
X9021760Y-19390040D01*
X9021760Y-19350040D02*
X8981760Y-19390040D01*
X9027480Y-17099600D02*
X9067480Y-17139600D01*
X9067480Y-17099600D02*
X9027480Y-17139600D01*
X9139240Y-19964720D02*
X9179240Y-20004720D01*
X9179240Y-19964720D02*
X9139240Y-20004720D01*
X9190040Y-20833400D02*
X9230040Y-20873400D01*
X9230040Y-20833400D02*
X9190040Y-20873400D01*
X9205280Y-21463320D02*
X9245280Y-21503320D01*
X9245280Y-21463320D02*
X9205280Y-21503320D01*
X9210360Y-15220000D02*
X9250360Y-15260000D01*
X9250360Y-15220000D02*
X9210360Y-15260000D01*
X9222860Y-19207800D02*
X9262860Y-19247800D01*
X9262860Y-19207800D02*
X9222860Y-19247800D01*
X9291640Y-14874560D02*
X9331640Y-14914560D01*
X9331640Y-14874560D02*
X9291640Y-14914560D01*
X9291640Y-18486440D02*
X9331640Y-18526440D01*
X9331640Y-18486440D02*
X9291640Y-18526440D01*
X9292810Y-20904520D02*
X9332810Y-20944520D01*
X9332810Y-20904520D02*
X9292810Y-20944520D01*
X9300692Y-10244672D02*
X9340692Y-10284672D01*
X9340692Y-10244672D02*
X9300692Y-10284672D01*
X9327200Y-16444280D02*
X9367200Y-16484280D01*
X9367200Y-16444280D02*
X9327200Y-16484280D01*
X9332280Y-16784640D02*
X9372280Y-16824640D01*
X9372280Y-16784640D02*
X9332280Y-16824640D01*
X9358800Y-17185960D02*
X9398800Y-17225960D01*
X9398800Y-17185960D02*
X9358800Y-17225960D01*
X9362760Y-20995960D02*
X9402760Y-21035960D01*
X9402760Y-20995960D02*
X9362760Y-21035960D01*
X9378000Y-10597200D02*
X9418000Y-10637200D01*
X9418000Y-10597200D02*
X9378000Y-10637200D01*
X9469440Y-19700560D02*
X9509440Y-19740560D01*
X9509440Y-19700560D02*
X9469440Y-19740560D01*
X9477713Y-15374287D02*
X9517713Y-15414287D01*
X9517713Y-15374287D02*
X9477713Y-15414287D01*
X9498750Y-16347760D02*
X9538750Y-16387760D01*
X9538750Y-16347760D02*
X9498750Y-16387760D01*
X9498750Y-17865350D02*
X9538750Y-17905350D01*
X9538750Y-17865350D02*
X9498750Y-17905350D01*
X9510080Y-14894880D02*
X9550080Y-14934880D01*
X9550080Y-14894880D02*
X9510080Y-14934880D01*
X9535480Y-20432080D02*
X9575480Y-20472080D01*
X9575480Y-20432080D02*
X9535480Y-20472080D01*
X9565960Y-16830360D02*
X9605960Y-16870360D01*
X9605960Y-16830360D02*
X9565960Y-16870360D01*
X9601520Y-10500680D02*
X9641520Y-10540680D01*
X9641520Y-10500680D02*
X9601520Y-10540680D01*
X9678922Y-15371198D02*
X9718922Y-15411198D01*
X9718922Y-15371198D02*
X9678922Y-15411198D01*
X9794560Y-11664000D02*
X9834560Y-11704000D01*
X9834560Y-11664000D02*
X9794560Y-11704000D01*
X9830120Y-15342490D02*
X9870120Y-15382490D01*
X9870120Y-15342490D02*
X9830120Y-15382490D01*
X9946960Y-10460040D02*
X9986960Y-10500040D01*
X9986960Y-10460040D02*
X9946960Y-10500040D01*
X9951808Y-15302490D02*
X9991808Y-15342490D01*
X9991808Y-15302490D02*
X9951808Y-15342490D01*
X9987600Y-7848920D02*
X10027600Y-7888920D01*
X10027600Y-7848920D02*
X9987600Y-7888920D01*
X10016910Y-11521760D02*
X10056910Y-11561760D01*
X10056910Y-11521760D02*
X10016910Y-11561760D01*
X10028240Y-18826800D02*
X10068240Y-18866800D01*
X10068240Y-18826800D02*
X10028240Y-18866800D01*
X10033320Y-7945440D02*
X10073320Y-7985440D01*
X10073320Y-7945440D02*
X10033320Y-7985440D01*
X10114600Y-17201120D02*
X10154600Y-17241120D01*
X10154600Y-17201120D02*
X10114600Y-17241120D01*
X10119680Y-18080040D02*
X10159680Y-18120040D01*
X10159680Y-18080040D02*
X10119680Y-18120040D01*
X10134920Y-20167920D02*
X10174920Y-20207920D01*
X10174920Y-20167920D02*
X10134920Y-20207920D01*
X10199085Y-16955400D02*
X10239085Y-16995400D01*
X10239085Y-16955400D02*
X10199085Y-16995400D01*
X10221280Y-9002080D02*
X10261280Y-9042080D01*
X10261280Y-9002080D02*
X10221280Y-9042080D01*
X10282240Y-19746280D02*
X10322240Y-19786280D01*
X10322240Y-19746280D02*
X10282240Y-19786280D01*
X10333040Y-20866330D02*
X10373040Y-20906330D01*
X10373040Y-20866330D02*
X10333040Y-20906330D01*
X10373680Y-20157760D02*
X10413680Y-20197760D01*
X10413680Y-20157760D02*
X10373680Y-20197760D01*
X10429560Y-19675160D02*
X10469560Y-19715160D01*
X10469560Y-19675160D02*
X10429560Y-19715160D01*
X10499741Y-12420870D02*
X10539741Y-12460870D01*
X10539741Y-12420870D02*
X10499741Y-12460870D01*
X10521000Y-17409480D02*
X10561000Y-17449480D01*
X10561000Y-17409480D02*
X10521000Y-17449480D01*
X10536240Y-16769400D02*
X10576240Y-16809400D01*
X10576240Y-16769400D02*
X10536240Y-16809400D01*
X10546400Y-16241080D02*
X10586400Y-16281080D01*
X10586400Y-16241080D02*
X10546400Y-16281080D01*
X10563527Y-17634887D02*
X10603527Y-17674887D01*
X10603527Y-17634887D02*
X10563527Y-17674887D01*
X10602280Y-8651560D02*
X10642280Y-8691560D01*
X10642280Y-8651560D02*
X10602280Y-8691560D01*
X10607360Y-18201960D02*
X10647360Y-18241960D01*
X10647360Y-18201960D02*
X10607360Y-18241960D01*
X10617520Y-16955450D02*
X10657520Y-16995450D01*
X10657520Y-16955450D02*
X10617520Y-16995450D01*
X10653080Y-11653840D02*
X10693080Y-11693840D01*
X10693080Y-11653840D02*
X10653080Y-11693840D01*
X10658160Y-16820200D02*
X10698160Y-16860200D01*
X10698160Y-16820200D02*
X10658160Y-16860200D01*
X10703880Y-8692200D02*
X10743880Y-8732200D01*
X10743880Y-8692200D02*
X10703880Y-8732200D01*
X10703880Y-19659920D02*
X10743880Y-19699920D01*
X10743880Y-19659920D02*
X10703880Y-19699920D01*
X10749600Y-10231440D02*
X10789600Y-10271440D01*
X10789600Y-10231440D02*
X10749600Y-10271440D01*
X10775170Y-11271947D02*
X10815170Y-11311947D01*
X10815170Y-11271947D02*
X10775170Y-11311947D01*
X10793959Y-21302321D02*
X10833959Y-21342321D01*
X10833959Y-21302321D02*
X10793959Y-21342321D01*
X10802640Y-18770840D02*
X10842640Y-18810840D01*
X10842640Y-18770840D02*
X10802640Y-18810840D01*
X10810560Y-16545880D02*
X10850560Y-16585880D01*
X10850560Y-16545880D02*
X10810560Y-16585880D01*
X10835960Y-10551480D02*
X10875960Y-10591480D01*
X10875960Y-10551480D02*
X10835960Y-10591480D01*
X10841040Y-18105440D02*
X10881040Y-18145440D01*
X10881040Y-18105440D02*
X10841040Y-18145440D01*
X10856280Y-15672120D02*
X10896280Y-15712120D01*
X10896280Y-15672120D02*
X10856280Y-15712120D01*
X10861360Y-9108760D02*
X10901360Y-9148760D01*
X10901360Y-9108760D02*
X10861360Y-9148760D01*
X10872690Y-17170720D02*
X10912690Y-17210720D01*
X10912690Y-17170720D02*
X10872690Y-17210720D01*
X10886760Y-21265200D02*
X10926760Y-21305200D01*
X10926760Y-21265200D02*
X10886760Y-21305200D01*
X10917240Y-16200440D02*
X10957240Y-16240440D01*
X10957240Y-16200440D02*
X10917240Y-16240440D01*
X10927400Y-11854250D02*
X10967400Y-11894250D01*
X10967400Y-11854250D02*
X10927400Y-11894250D01*
X10942640Y-21026440D02*
X10982640Y-21066440D01*
X10982640Y-21026440D02*
X10942640Y-21066440D01*
X11018840Y-11547160D02*
X11058840Y-11587160D01*
X11058840Y-11547160D02*
X11018840Y-11587160D01*
X11044240Y-11994200D02*
X11084240Y-12034200D01*
X11084240Y-11994200D02*
X11044240Y-12034200D01*
X11064560Y-9098600D02*
X11104560Y-9138600D01*
X11104560Y-9098600D02*
X11064560Y-9138600D01*
X11074720Y-9444040D02*
X11114720Y-9484040D01*
X11114720Y-9444040D02*
X11074720Y-9484040D01*
X11105200Y-19847880D02*
X11145200Y-19887880D01*
X11145200Y-19847880D02*
X11105200Y-19887880D01*
X11156000Y-10434640D02*
X11196000Y-10474640D01*
X11196000Y-10434640D02*
X11156000Y-10474640D01*
X11156000Y-18359440D02*
X11196000Y-18399440D01*
X11196000Y-18359440D02*
X11156000Y-18399440D01*
X11196048Y-16841566D02*
X11236048Y-16881566D01*
X11236048Y-16841566D02*
X11196048Y-16881566D01*
X11283000Y-9113890D02*
X11323000Y-9153890D01*
X11323000Y-9113890D02*
X11283000Y-9153890D01*
X11293160Y-8727760D02*
X11333160Y-8767760D01*
X11333160Y-8727760D02*
X11293160Y-8767760D01*
X11303320Y-20300000D02*
X11343320Y-20340000D01*
X11343320Y-20300000D02*
X11303320Y-20340000D01*
X11374440Y-16926880D02*
X11414440Y-16966880D01*
X11414440Y-16926880D02*
X11374440Y-16966880D01*
X11394760Y-10495600D02*
X11434760Y-10535600D01*
X11434760Y-10495600D02*
X11394760Y-10535600D01*
X11440480Y-12420870D02*
X11480480Y-12460870D01*
X11480480Y-12420870D02*
X11440480Y-12460870D01*
X11450640Y-7883360D02*
X11490640Y-7923360D01*
X11490640Y-7883360D02*
X11450640Y-7923360D01*
X11562400Y-9108760D02*
X11602400Y-9148760D01*
X11602400Y-9108760D02*
X11562400Y-9148760D01*
X11567480Y-11384600D02*
X11607480Y-11424600D01*
X11607480Y-11384600D02*
X11567480Y-11424600D01*
X11567480Y-11851960D02*
X11607480Y-11891960D01*
X11607480Y-11851960D02*
X11567480Y-11891960D01*
X11633520Y-18750600D02*
X11673520Y-18790600D01*
X11673520Y-18750600D02*
X11633520Y-18790600D01*
X11699560Y-18547400D02*
X11739560Y-18587400D01*
X11739560Y-18547400D02*
X11699560Y-18587400D01*
X11724960Y-20681000D02*
X11764960Y-20721000D01*
X11764960Y-20681000D02*
X11724960Y-20721000D01*
X11851960Y-19471960D02*
X11891960Y-19511960D01*
X11891960Y-19471960D02*
X11851960Y-19511960D01*
X11854422Y-19698098D02*
X11894422Y-19738098D01*
X11894422Y-19698098D02*
X11854422Y-19738098D01*
X11862120Y-15418120D02*
X11902120Y-15458120D01*
X11902120Y-15418120D02*
X11862120Y-15458120D01*
X11938320Y-10465120D02*
X11978320Y-10505120D01*
X11978320Y-10465120D02*
X11938320Y-10505120D01*
X11953560Y-16352840D02*
X11993560Y-16392840D01*
X11993560Y-16352840D02*
X11953560Y-16392840D01*
X11978960Y-15236410D02*
X12018960Y-15276410D01*
X12018960Y-15236410D02*
X11978960Y-15276410D01*
X11994200Y-8961440D02*
X12034200Y-9001440D01*
X12034200Y-8961440D02*
X11994200Y-9001440D01*
X12024680Y-8769570D02*
X12064680Y-8809570D01*
X12064680Y-8769570D02*
X12024680Y-8809570D01*
X12055160Y-9113890D02*
X12095160Y-9153890D01*
X12095160Y-9113890D02*
X12055160Y-9153890D01*
X12060240Y-11613200D02*
X12100240Y-11653200D01*
X12100240Y-11613200D02*
X12060240Y-11653200D01*
X12080560Y-19136680D02*
X12120560Y-19176680D01*
X12120560Y-19136680D02*
X12080560Y-19176680D01*
X12085640Y-16490000D02*
X12125640Y-16530000D01*
X12125640Y-16490000D02*
X12085640Y-16530000D01*
X12131360Y-18588040D02*
X12171360Y-18628040D01*
X12171360Y-18588040D02*
X12131360Y-18628040D01*
X12161840Y-20178080D02*
X12201840Y-20218080D01*
X12201840Y-20178080D02*
X12161840Y-20218080D01*
X12177080Y-19228120D02*
X12217080Y-19268120D01*
X12217080Y-19228120D02*
X12177080Y-19268120D01*
X12192320Y-16103920D02*
X12232320Y-16143920D01*
X12232320Y-16103920D02*
X12192320Y-16143920D01*
X12222800Y-10277160D02*
X12262800Y-10317160D01*
X12262800Y-10277160D02*
X12222800Y-10317160D01*
X12299000Y-9875840D02*
X12339000Y-9915840D01*
X12339000Y-9875840D02*
X12299000Y-9915840D01*
X12309160Y-9113840D02*
X12349160Y-9153840D01*
X12349160Y-9113840D02*
X12309160Y-9153840D01*
X12329480Y-15372400D02*
X12369480Y-15412400D01*
X12369480Y-15372400D02*
X12329480Y-15412400D01*
X12365040Y-21558699D02*
X12405040Y-21598699D01*
X12405040Y-21558699D02*
X12365040Y-21598699D01*
X12380280Y-10731430D02*
X12420280Y-10771430D01*
X12420280Y-10731430D02*
X12380280Y-10771430D01*
X12436160Y-19416080D02*
X12476160Y-19456080D01*
X12476160Y-19416080D02*
X12436160Y-19456080D01*
X12466640Y-9093520D02*
X12506640Y-9133520D01*
X12506640Y-9093520D02*
X12466640Y-9133520D01*
X12507280Y-19568480D02*
X12547280Y-19608480D01*
X12547280Y-19568480D02*
X12507280Y-19608480D01*
X12517440Y-12542840D02*
X12557440Y-12582840D01*
X12557440Y-12542840D02*
X12517440Y-12582840D01*
X12568240Y-8839520D02*
X12608240Y-8879520D01*
X12608240Y-8839520D02*
X12568240Y-8879520D01*
X12593640Y-11470960D02*
X12633640Y-11510960D01*
X12633640Y-11470960D02*
X12593640Y-11510960D01*
X12685080Y-18786160D02*
X12725080Y-18826160D01*
X12725080Y-18786160D02*
X12685080Y-18826160D01*
X12690160Y-11227120D02*
X12730160Y-11267120D01*
X12730160Y-11227120D02*
X12690160Y-11267120D01*
X12720640Y-16500160D02*
X12760640Y-16540160D01*
X12760640Y-16500160D02*
X12720640Y-16540160D01*
X12731770Y-8102375D02*
X12771770Y-8142375D01*
X12771770Y-8102375D02*
X12731770Y-8142375D01*
X12735880Y-14946510D02*
X12775880Y-14986510D01*
X12775880Y-14946510D02*
X12735880Y-14986510D01*
X12756200Y-17958120D02*
X12796200Y-17998120D01*
X12796200Y-17958120D02*
X12756200Y-17998120D01*
X12761280Y-12116120D02*
X12801280Y-12156120D01*
X12801280Y-12116120D02*
X12761280Y-12156120D01*
X12776520Y-9118920D02*
X12816520Y-9158920D01*
X12816520Y-9118920D02*
X12776520Y-9158920D01*
X12776520Y-9933530D02*
X12816520Y-9973530D01*
X12816520Y-9933530D02*
X12776520Y-9973530D01*
X12776520Y-18542320D02*
X12816520Y-18582320D01*
X12816520Y-18542320D02*
X12776520Y-18582320D01*
X12832400Y-10475280D02*
X12872400Y-10515280D01*
X12872400Y-10475280D02*
X12832400Y-10515280D01*
X12878120Y-17861600D02*
X12918120Y-17901600D01*
X12918120Y-17861600D02*
X12878120Y-17901600D01*
X12888280Y-7843840D02*
X12928280Y-7883840D01*
X12928280Y-7843840D02*
X12888280Y-7883840D01*
X12889450Y-14783120D02*
X12929450Y-14823120D01*
X12929450Y-14783120D02*
X12889450Y-14823120D01*
X12893360Y-18466120D02*
X12933360Y-18506120D01*
X12933360Y-18466120D02*
X12893360Y-18506120D01*
X12902350Y-11562400D02*
X12942350Y-11602400D01*
X12942350Y-11562400D02*
X12902350Y-11602400D01*
X12959400Y-18334040D02*
X12999400Y-18374040D01*
X12999400Y-18334040D02*
X12959400Y-18374040D01*
X13000040Y-10449880D02*
X13040040Y-10489880D01*
X13040040Y-10449880D02*
X13000040Y-10489880D01*
X13045760Y-9154480D02*
X13085760Y-9194480D01*
X13085760Y-9154480D02*
X13045760Y-9194480D01*
X13045760Y-14366560D02*
X13085760Y-14406560D01*
X13085760Y-14366560D02*
X13045760Y-14406560D01*
X13086400Y-18750600D02*
X13126400Y-18790600D01*
X13126400Y-18750600D02*
X13086400Y-18790600D01*
X13121960Y-21194080D02*
X13161960Y-21234080D01*
X13161960Y-21194080D02*
X13121960Y-21234080D01*
X13132120Y-15166460D02*
X13172120Y-15206460D01*
X13172120Y-15166460D02*
X13132120Y-15206460D01*
X13172760Y-12568240D02*
X13212760Y-12608240D01*
X13212760Y-12568240D02*
X13172760Y-12608240D01*
X13193080Y-20030760D02*
X13233080Y-20070760D01*
X13233080Y-20030760D02*
X13193080Y-20070760D01*
X13248960Y-18821720D02*
X13288960Y-18861720D01*
X13288960Y-18821720D02*
X13248960Y-18861720D01*
X13274360Y-9134160D02*
X13314360Y-9174160D01*
X13314360Y-9134160D02*
X13274360Y-9174160D01*
X13274360Y-9946960D02*
X13314360Y-9986960D01*
X13314360Y-9946960D02*
X13274360Y-9986960D01*
X13304840Y-15322490D02*
X13344840Y-15362490D01*
X13344840Y-15322490D02*
X13304840Y-15362490D01*
X13325160Y-14351320D02*
X13365160Y-14391320D01*
X13365160Y-14351320D02*
X13325160Y-14391320D01*
X13355640Y-18161320D02*
X13395640Y-18201320D01*
X13395640Y-18161320D02*
X13355640Y-18201320D01*
X13355640Y-18643920D02*
X13395640Y-18683920D01*
X13395640Y-18643920D02*
X13355640Y-18683920D01*
X13365800Y-10236520D02*
X13405800Y-10276520D01*
X13405800Y-10236520D02*
X13365800Y-10276520D01*
X13401360Y-17739680D02*
X13441360Y-17779680D01*
X13441360Y-17739680D02*
X13401360Y-17779680D01*
X13442000Y-9139240D02*
X13482000Y-9179240D01*
X13482000Y-9139240D02*
X13442000Y-9179240D01*
X13508040Y-20000280D02*
X13548040Y-20040280D01*
X13548040Y-20000280D02*
X13508040Y-20040280D01*
X13563920Y-14361480D02*
X13603920Y-14401480D01*
X13603920Y-14361480D02*
X13563920Y-14401480D01*
X13563920Y-18572800D02*
X13603920Y-18612800D01*
X13603920Y-18572800D02*
X13563920Y-18612800D01*
X13629960Y-9977440D02*
X13669960Y-10017440D01*
X13669960Y-9977440D02*
X13629960Y-10017440D01*
X13646370Y-9124000D02*
X13686370Y-9164000D01*
X13686370Y-9124000D02*
X13646370Y-9164000D01*
X13646370Y-10771430D02*
X13686370Y-10811430D01*
X13686370Y-10771430D02*
X13646370Y-10811430D01*
X13685840Y-8859840D02*
X13725840Y-8899840D01*
X13725840Y-8859840D02*
X13685840Y-8899840D01*
X13714350Y-20329244D02*
X13754350Y-20369244D01*
X13754350Y-20329244D02*
X13714350Y-20369244D01*
X13716320Y-11369360D02*
X13756320Y-11409360D01*
X13756320Y-11369360D02*
X13716320Y-11409360D01*
X13716320Y-18999520D02*
X13756320Y-19039520D01*
X13756320Y-18999520D02*
X13716320Y-19039520D01*
X13716320Y-19670080D02*
X13756320Y-19710080D01*
X13756320Y-19670080D02*
X13716320Y-19710080D01*
X13762040Y-20614960D02*
X13802040Y-20654960D01*
X13802040Y-20614960D02*
X13762040Y-20654960D01*
X13772200Y-18186720D02*
X13812200Y-18226720D01*
X13812200Y-18186720D02*
X13772200Y-18226720D01*
X13782360Y-21718699D02*
X13822360Y-21758699D01*
X13822360Y-21718699D02*
X13782360Y-21758699D01*
X13802680Y-14427520D02*
X13842680Y-14467520D01*
X13842680Y-14427520D02*
X13802680Y-14467520D01*
X13802680Y-15322490D02*
X13842680Y-15362490D01*
X13842680Y-15322490D02*
X13802680Y-15362490D01*
X13802680Y-15738160D02*
X13842680Y-15778160D01*
X13842680Y-15738160D02*
X13802680Y-15778160D01*
X13817920Y-18740440D02*
X13857920Y-18780440D01*
X13857920Y-18740440D02*
X13817920Y-18780440D01*
X13863640Y-9159560D02*
X13903640Y-9199560D01*
X13903640Y-9159560D02*
X13863640Y-9199560D01*
X13863640Y-20775180D02*
X13903640Y-20815180D01*
X13903640Y-20775180D02*
X13863640Y-20815180D01*
X13890800Y-18989360D02*
X13930800Y-19029360D01*
X13930800Y-18989360D02*
X13890800Y-19029360D01*
X13909360Y-17470440D02*
X13949360Y-17510440D01*
X13949360Y-17470440D02*
X13909360Y-17510440D01*
X13924600Y-18014000D02*
X13964600Y-18054000D01*
X13964600Y-18014000D02*
X13924600Y-18054000D01*
X13934760Y-17241840D02*
X13974760Y-17281840D01*
X13974760Y-17241840D02*
X13934760Y-17281840D01*
X13955080Y-10302560D02*
X13995080Y-10342560D01*
X13995080Y-10302560D02*
X13955080Y-10342560D01*
X13960160Y-18532160D02*
X14000160Y-18572160D01*
X14000160Y-18532160D02*
X13960160Y-18572160D01*
X13965240Y-10495650D02*
X14005240Y-10535650D01*
X14005240Y-10495650D02*
X13965240Y-10535650D01*
X13990640Y-11303320D02*
X14030640Y-11343320D01*
X14030640Y-11303320D02*
X13990640Y-11343320D01*
X13996072Y-20949888D02*
X14036072Y-20989888D01*
X14036072Y-20949888D02*
X13996072Y-20989888D01*
X14000802Y-20482878D02*
X14040802Y-20522878D01*
X14040802Y-20482878D02*
X14000802Y-20522878D01*
X14010960Y-9124000D02*
X14050960Y-9164000D01*
X14050960Y-9124000D02*
X14010960Y-9164000D01*
X14069002Y-17402238D02*
X14109002Y-17442238D01*
X14109002Y-17402238D02*
X14069002Y-17442238D01*
X14071920Y-14432600D02*
X14111920Y-14472600D01*
X14111920Y-14432600D02*
X14071920Y-14472600D01*
X14082080Y-12121200D02*
X14122080Y-12161200D01*
X14122080Y-12121200D02*
X14082080Y-12161200D01*
X14122720Y-18598200D02*
X14162720Y-18638200D01*
X14162720Y-18598200D02*
X14122720Y-18638200D01*
X14122720Y-20747040D02*
X14162720Y-20787040D01*
X14162720Y-20747040D02*
X14122720Y-20787040D01*
X14139130Y-19690400D02*
X14179130Y-19730400D01*
X14179130Y-19690400D02*
X14139130Y-19730400D01*
X14168440Y-21518699D02*
X14208440Y-21558699D01*
X14208440Y-21518699D02*
X14168440Y-21558699D01*
X14239560Y-21316000D02*
X14279560Y-21356000D01*
X14279560Y-21316000D02*
X14239560Y-21356000D01*
X14280200Y-12873040D02*
X14320200Y-12913040D01*
X14320200Y-12873040D02*
X14280200Y-12913040D01*
X14290360Y-10505760D02*
X14330360Y-10545760D01*
X14330360Y-10505760D02*
X14290360Y-10545760D01*
X14315760Y-12460870D02*
X14355760Y-12500870D01*
X14355760Y-12460870D02*
X14315760Y-12500870D01*
X14325920Y-14437680D02*
X14365920Y-14477680D01*
X14365920Y-14437680D02*
X14325920Y-14477680D01*
X14331000Y-8033200D02*
X14371000Y-8073200D01*
X14371000Y-8033200D02*
X14331000Y-8073200D01*
X14351320Y-19405920D02*
X14391320Y-19445920D01*
X14391320Y-19405920D02*
X14351320Y-19445920D01*
X14391960Y-20228880D02*
X14431960Y-20268880D01*
X14431960Y-20228880D02*
X14391960Y-20268880D01*
X14395870Y-15322490D02*
X14435870Y-15362490D01*
X14435870Y-15322490D02*
X14395870Y-15362490D01*
X14417360Y-8859840D02*
X14457360Y-8899840D01*
X14457360Y-8859840D02*
X14417360Y-8899840D01*
X14463080Y-10363520D02*
X14503080Y-10403520D01*
X14503080Y-10363520D02*
X14463080Y-10403520D01*
X14539280Y-20071400D02*
X14579280Y-20111400D01*
X14579280Y-20071400D02*
X14539280Y-20111400D01*
X14595160Y-8639840D02*
X14635160Y-8679840D01*
X14635160Y-8639840D02*
X14595160Y-8679840D01*
X14595160Y-18877600D02*
X14635160Y-18917600D01*
X14635160Y-18877600D02*
X14595160Y-18917600D01*
X14600240Y-15322490D02*
X14640240Y-15362490D01*
X14640240Y-15322490D02*
X14600240Y-15362490D01*
X14610400Y-21300760D02*
X14650400Y-21340760D01*
X14650400Y-21300760D02*
X14610400Y-21340760D01*
X14652993Y-17527043D02*
X14692993Y-17567043D01*
X14692993Y-17527043D02*
X14652993Y-17567043D01*
X14686600Y-19278920D02*
X14726600Y-19318920D01*
X14726600Y-19278920D02*
X14686600Y-19318920D01*
X14696760Y-10297480D02*
X14736760Y-10337480D01*
X14736760Y-10297480D02*
X14696760Y-10337480D01*
X14717080Y-19954560D02*
X14757080Y-19994560D01*
X14757080Y-19954560D02*
X14717080Y-19994560D01*
X14722160Y-15204760D02*
X14762160Y-15244760D01*
X14762160Y-15204760D02*
X14722160Y-15244760D01*
X14737400Y-21266370D02*
X14777400Y-21306370D01*
X14777400Y-21266370D02*
X14737400Y-21306370D01*
X14742480Y-12593640D02*
X14782480Y-12633640D01*
X14782480Y-12593640D02*
X14742480Y-12633640D01*
X14742480Y-14300520D02*
X14782480Y-14340520D01*
X14782480Y-14300520D02*
X14742480Y-14340520D01*
X14787212Y-18439304D02*
X14827212Y-18479304D01*
X14827212Y-18439304D02*
X14787212Y-18479304D01*
X14798360Y-21638699D02*
X14838360Y-21678699D01*
X14838360Y-21638699D02*
X14798360Y-21678699D01*
X14818680Y-9164640D02*
X14858680Y-9204640D01*
X14858680Y-9164640D02*
X14818680Y-9204640D01*
X14874403Y-17653456D02*
X14914403Y-17693456D01*
X14914403Y-17653456D02*
X14874403Y-17693456D01*
X14874560Y-17455200D02*
X14914560Y-17495200D01*
X14914560Y-17455200D02*
X14874560Y-17495200D01*
X14874560Y-18044480D02*
X14914560Y-18084480D01*
X14914560Y-18044480D02*
X14874560Y-18084480D01*
X14884720Y-14828840D02*
X14924720Y-14868840D01*
X14924720Y-14828840D02*
X14884720Y-14868840D01*
X14897120Y-9398320D02*
X14937120Y-9438320D01*
X14937120Y-9398320D02*
X14897120Y-9438320D01*
X14910120Y-10703880D02*
X14950120Y-10743880D01*
X14950120Y-10703880D02*
X14910120Y-10743880D01*
X14949590Y-21336320D02*
X14989590Y-21376320D01*
X14989590Y-21336320D02*
X14949590Y-21376320D01*
X14962258Y-17583538D02*
X15002258Y-17623538D01*
X15002258Y-17583538D02*
X14962258Y-17623538D01*
X14967120Y-9525320D02*
X15007120Y-9565320D01*
X15007120Y-9525320D02*
X14967120Y-9565320D01*
X14981240Y-21011200D02*
X15021240Y-21051200D01*
X15021240Y-21011200D02*
X14981240Y-21051200D01*
X15032040Y-19014760D02*
X15072040Y-19054760D01*
X15072040Y-19014760D02*
X15032040Y-19054760D01*
X15037120Y-9124000D02*
X15077120Y-9164000D01*
X15077120Y-9124000D02*
X15037120Y-9164000D01*
X15052360Y-16647480D02*
X15092360Y-16687480D01*
X15092360Y-16647480D02*
X15052360Y-16687480D01*
X15052410Y-15280960D02*
X15092410Y-15320960D01*
X15092410Y-15280960D02*
X15052410Y-15320960D01*
X15062520Y-10058720D02*
X15102520Y-10098720D01*
X15102520Y-10058720D02*
X15062520Y-10098720D01*
X15072680Y-12593640D02*
X15112680Y-12633640D01*
X15112680Y-12593640D02*
X15072680Y-12633640D01*
X15103160Y-16979450D02*
X15143160Y-17019450D01*
X15143160Y-16979450D02*
X15103160Y-17019450D01*
X15113320Y-8859840D02*
X15153320Y-8899840D01*
X15153320Y-8859840D02*
X15113320Y-8899840D01*
X15118400Y-14336080D02*
X15158400Y-14376080D01*
X15158400Y-14336080D02*
X15118400Y-14376080D01*
X15129762Y-21294478D02*
X15169762Y-21334478D01*
X15169762Y-21294478D02*
X15129762Y-21334478D01*
X15133640Y-18674400D02*
X15173640Y-18714400D01*
X15173640Y-18674400D02*
X15133640Y-18714400D01*
X15159040Y-10312720D02*
X15199040Y-10352720D01*
X15199040Y-10312720D02*
X15159040Y-10352720D01*
X15170320Y-17993680D02*
X15210320Y-18033680D01*
X15210320Y-17993680D02*
X15170320Y-18033680D01*
X15199680Y-11785920D02*
X15239680Y-11825920D01*
X15239680Y-11785920D02*
X15199680Y-11825920D01*
X15199680Y-16723680D02*
X15239680Y-16763680D01*
X15239680Y-16723680D02*
X15199680Y-16763680D01*
X15204760Y-20308120D02*
X15244760Y-20348120D01*
X15244760Y-20308120D02*
X15204760Y-20348120D01*
X15230160Y-11931250D02*
X15270160Y-11971250D01*
X15270160Y-11931250D02*
X15230160Y-11971250D01*
X15240320Y-17447710D02*
X15280320Y-17487710D01*
X15280320Y-17447710D02*
X15240320Y-17487710D01*
X15243640Y-19770965D02*
X15283640Y-19810965D01*
X15283640Y-19770965D02*
X15243640Y-19810965D01*
X15261810Y-20792760D02*
X15301810Y-20832760D01*
X15301810Y-20792760D02*
X15261810Y-20832760D01*
X15265720Y-21258799D02*
X15305720Y-21298799D01*
X15305720Y-21258799D02*
X15265720Y-21298799D01*
X15270800Y-9169720D02*
X15310800Y-9209720D01*
X15310800Y-9169720D02*
X15270800Y-9209720D01*
X15278357Y-20236438D02*
X15318357Y-20276438D01*
X15318357Y-20236438D02*
X15278357Y-20276438D01*
X15291120Y-11201720D02*
X15331120Y-11241720D01*
X15331120Y-11201720D02*
X15291120Y-11241720D01*
X15296200Y-10850030D02*
X15336200Y-10890030D01*
X15336200Y-10850030D02*
X15296200Y-10890030D01*
X15298333Y-17022280D02*
X15338333Y-17062280D01*
X15338333Y-17022280D02*
X15298333Y-17062280D01*
X15327800Y-16719500D02*
X15367800Y-16759500D01*
X15367800Y-16719500D02*
X15327800Y-16759500D01*
X15327800Y-17664691D02*
X15367800Y-17704691D01*
X15367800Y-17664691D02*
X15327800Y-17704691D01*
X15352080Y-12563160D02*
X15392080Y-12603160D01*
X15392080Y-12563160D02*
X15352080Y-12603160D01*
X15357160Y-14325920D02*
X15397160Y-14365920D01*
X15397160Y-14325920D02*
X15357160Y-14365920D01*
X15357160Y-14940600D02*
X15397160Y-14980600D01*
X15397160Y-14940600D02*
X15357160Y-14980600D01*
X15372400Y-9296720D02*
X15412400Y-9336720D01*
X15412400Y-9296720D02*
X15372400Y-9336720D01*
X15377480Y-18227360D02*
X15417480Y-18267360D01*
X15417480Y-18227360D02*
X15377480Y-18267360D01*
X15418120Y-21678699D02*
X15458120Y-21718699D01*
X15458120Y-21678699D02*
X15418120Y-21718699D01*
X15422771Y-18604258D02*
X15462771Y-18644258D01*
X15462771Y-18604258D02*
X15422771Y-18644258D01*
X15443520Y-12279850D02*
X15483520Y-12319850D01*
X15483520Y-12279850D02*
X15443520Y-12319850D01*
X15463840Y-7873200D02*
X15503840Y-7913200D01*
X15503840Y-7873200D02*
X15463840Y-7913200D01*
X15520887Y-20319550D02*
X15560887Y-20359550D01*
X15560887Y-20319550D02*
X15520887Y-20359550D01*
X15520887Y-20782600D02*
X15560887Y-20822600D01*
X15560887Y-20782600D02*
X15520887Y-20822600D01*
X15524800Y-19681360D02*
X15564800Y-19721360D01*
X15564800Y-19681360D02*
X15524800Y-19721360D01*
X15545120Y-9108760D02*
X15585120Y-9148760D01*
X15585120Y-9108760D02*
X15545120Y-9148760D01*
X15545120Y-18933480D02*
X15585120Y-18973480D01*
X15585120Y-18933480D02*
X15545120Y-18973480D01*
X15560360Y-9682800D02*
X15600360Y-9722800D01*
X15600360Y-9682800D02*
X15560360Y-9722800D01*
X15565440Y-19194710D02*
X15605440Y-19234710D01*
X15605440Y-19194710D02*
X15565440Y-19234710D01*
X15580680Y-21600480D02*
X15620680Y-21640480D01*
X15620680Y-21600480D02*
X15580680Y-21640480D01*
X15585760Y-17643160D02*
X15625760Y-17683160D01*
X15625760Y-17643160D02*
X15585760Y-17683160D01*
X15595920Y-12593640D02*
X15635920Y-12633640D01*
X15635920Y-12593640D02*
X15595920Y-12633640D01*
X15601000Y-12354880D02*
X15641000Y-12394880D01*
X15641000Y-12354880D02*
X15601000Y-12394880D01*
X15626400Y-21234720D02*
X15666400Y-21274720D01*
X15666400Y-21234720D02*
X15626400Y-21274720D01*
X15641640Y-14336080D02*
X15681640Y-14376080D01*
X15681640Y-14336080D02*
X15641640Y-14376080D01*
X15661960Y-17947960D02*
X15701960Y-17987960D01*
X15701960Y-17947960D02*
X15661960Y-17987960D01*
X15687360Y-7884480D02*
X15727360Y-7924480D01*
X15727360Y-7884480D02*
X15687360Y-7924480D01*
X15696400Y-21598699D02*
X15736400Y-21638699D01*
X15736400Y-21598699D02*
X15696400Y-21638699D01*
X15712760Y-16657640D02*
X15752760Y-16697640D01*
X15752760Y-16657640D02*
X15712760Y-16697640D01*
X15733080Y-11531920D02*
X15773080Y-11571920D01*
X15773080Y-11531920D02*
X15733080Y-11571920D01*
X15766400Y-20423602D02*
X15806400Y-20463602D01*
X15806400Y-20423602D02*
X15766400Y-20463602D01*
X15790080Y-21224026D02*
X15830080Y-21264026D01*
X15830080Y-21224026D02*
X15790080Y-21264026D01*
X15807544Y-12452068D02*
X15847544Y-12492068D01*
X15847544Y-12452068D02*
X15807544Y-12492068D01*
X15814360Y-17140240D02*
X15854360Y-17180240D01*
X15854360Y-17140240D02*
X15814360Y-17180240D01*
X15819440Y-20640360D02*
X15859440Y-20680360D01*
X15859440Y-20640360D02*
X15819440Y-20680360D01*
X15834680Y-15148880D02*
X15874680Y-15188880D01*
X15874680Y-15148880D02*
X15834680Y-15188880D01*
X15860080Y-11851960D02*
X15900080Y-11891960D01*
X15900080Y-11851960D02*
X15860080Y-11891960D01*
X15863694Y-12634280D02*
X15903694Y-12674280D01*
X15903694Y-12634280D02*
X15863694Y-12674280D01*
X15865160Y-14341160D02*
X15905160Y-14381160D01*
X15905160Y-14341160D02*
X15865160Y-14381160D01*
X15890560Y-21298749D02*
X15930560Y-21338749D01*
X15930560Y-21298749D02*
X15890560Y-21338749D01*
X15926120Y-10302560D02*
X15966120Y-10342560D01*
X15966120Y-10302560D02*
X15926120Y-10342560D01*
X15926120Y-18669320D02*
X15966120Y-18709320D01*
X15966120Y-18669320D02*
X15926120Y-18709320D01*
X15961282Y-16686602D02*
X16001282Y-16726602D01*
X16001282Y-16686602D02*
X15961282Y-16726602D01*
X15963148Y-18929652D02*
X16003148Y-18969652D01*
X16003148Y-18929652D02*
X15963148Y-18969652D01*
X15982000Y-20584480D02*
X16022000Y-20624480D01*
X16022000Y-20584480D02*
X15982000Y-20624480D01*
X15982000Y-20863880D02*
X16022000Y-20903880D01*
X16022000Y-20863880D02*
X15982000Y-20903880D01*
X15992160Y-11222040D02*
X16032160Y-11262040D01*
X16032160Y-11222040D02*
X15992160Y-11262040D01*
X16007400Y-21087400D02*
X16047400Y-21127400D01*
X16047400Y-21087400D02*
X16007400Y-21127400D01*
X16012480Y-9322120D02*
X16052480Y-9362120D01*
X16052480Y-9322120D02*
X16012480Y-9362120D01*
X16017144Y-15646720D02*
X16057144Y-15686720D01*
X16057144Y-15646720D02*
X16017144Y-15686720D01*
X16027720Y-20086640D02*
X16067720Y-20126640D01*
X16067720Y-20086640D02*
X16027720Y-20126640D01*
X16037880Y-8138480D02*
X16077880Y-8178480D01*
X16077880Y-8138480D02*
X16037880Y-8178480D01*
X16053120Y-14960920D02*
X16093120Y-15000920D01*
X16093120Y-14960920D02*
X16053120Y-15000920D01*
X16054002Y-18131722D02*
X16094002Y-18171722D01*
X16094002Y-18131722D02*
X16054002Y-18171722D01*
X16058812Y-15164732D02*
X16098812Y-15204732D01*
X16098812Y-15164732D02*
X16058812Y-15204732D01*
X16077261Y-21174929D02*
X16117261Y-21214929D01*
X16117261Y-21174929D02*
X16077261Y-21214929D01*
X16078520Y-19234760D02*
X16118520Y-19274760D01*
X16118520Y-19234760D02*
X16078520Y-19274760D01*
X16088680Y-20614960D02*
X16128680Y-20654960D01*
X16128680Y-20614960D02*
X16088680Y-20654960D01*
X16103920Y-14407200D02*
X16143920Y-14447200D01*
X16143920Y-14407200D02*
X16103920Y-14447200D01*
X16119160Y-11841800D02*
X16159160Y-11881800D01*
X16159160Y-11841800D02*
X16119160Y-11881800D01*
X16124240Y-12516270D02*
X16164240Y-12556270D01*
X16164240Y-12516270D02*
X16124240Y-12556270D01*
X16124240Y-19681410D02*
X16164240Y-19721410D01*
X16164240Y-19681410D02*
X16124240Y-19721410D01*
X16129320Y-18486440D02*
X16169320Y-18526440D01*
X16169320Y-18486440D02*
X16129320Y-18526440D01*
X16144560Y-20300000D02*
X16184560Y-20340000D01*
X16184560Y-20300000D02*
X16144560Y-20340000D01*
X16154720Y-12878120D02*
X16194720Y-12918120D01*
X16194720Y-12878120D02*
X16154720Y-12918120D01*
X16220760Y-9567080D02*
X16260760Y-9607080D01*
X16260760Y-9567080D02*
X16220760Y-9607080D01*
X16251240Y-11841800D02*
X16291240Y-11881800D01*
X16291240Y-11841800D02*
X16251240Y-11881800D01*
X16252196Y-15027916D02*
X16292196Y-15067916D01*
X16292196Y-15027916D02*
X16252196Y-15067916D01*
X16281720Y-20380160D02*
X16321720Y-20420160D01*
X16321720Y-20380160D02*
X16281720Y-20420160D01*
X16327440Y-9478689D02*
X16367440Y-9518689D01*
X16367440Y-9478689D02*
X16327440Y-9518689D01*
X16337600Y-19045240D02*
X16377600Y-19085240D01*
X16377600Y-19045240D02*
X16337600Y-19085240D01*
X16337600Y-19822480D02*
X16377600Y-19862480D01*
X16377600Y-19822480D02*
X16337600Y-19862480D01*
X16342680Y-16979450D02*
X16382680Y-17019450D01*
X16382680Y-16979450D02*
X16342680Y-17019450D01*
X16363000Y-8133400D02*
X16403000Y-8173400D01*
X16403000Y-8133400D02*
X16363000Y-8173400D01*
X16368080Y-11557320D02*
X16408080Y-11597320D01*
X16408080Y-11557320D02*
X16368080Y-11597320D01*
X16368080Y-20665760D02*
X16408080Y-20705760D01*
X16408080Y-20665760D02*
X16368080Y-20705760D01*
X16393480Y-18709960D02*
X16433480Y-18749960D01*
X16433480Y-18709960D02*
X16393480Y-18749960D01*
X16425720Y-19385600D02*
X16465720Y-19425600D01*
X16465720Y-19385600D02*
X16425720Y-19425600D01*
X16439200Y-20122200D02*
X16479200Y-20162200D01*
X16479200Y-20122200D02*
X16439200Y-20162200D01*
X16520480Y-9251000D02*
X16560480Y-9291000D01*
X16560480Y-9251000D02*
X16520480Y-9291000D01*
X16540800Y-11084880D02*
X16580800Y-11124880D01*
X16580800Y-11084880D02*
X16540800Y-11124880D01*
X16591600Y-11931250D02*
X16631600Y-11971250D01*
X16631600Y-11931250D02*
X16591600Y-11971250D01*
X16592770Y-11370530D02*
X16632770Y-11410530D01*
X16632770Y-11370530D02*
X16592770Y-11410530D01*
X16611920Y-9558689D02*
X16651920Y-9598689D01*
X16651920Y-9558689D02*
X16611920Y-9598689D01*
X16637320Y-16571280D02*
X16677320Y-16611280D01*
X16677320Y-16571280D02*
X16637320Y-16611280D01*
X16637320Y-19234760D02*
X16677320Y-19274760D01*
X16677320Y-19234760D02*
X16637320Y-19274760D01*
X16657640Y-8123240D02*
X16697640Y-8163240D01*
X16697640Y-8123240D02*
X16657640Y-8163240D01*
X16662272Y-10642472D02*
X16702272Y-10682472D01*
X16702272Y-10642472D02*
X16662272Y-10682472D01*
X16662720Y-11084880D02*
X16702720Y-11124880D01*
X16702720Y-11084880D02*
X16662720Y-11124880D01*
X16667800Y-19054760D02*
X16707800Y-19094760D01*
X16707800Y-19054760D02*
X16667800Y-19094760D01*
X16742032Y-11510430D02*
X16782032Y-11550430D01*
X16782032Y-11510430D02*
X16742032Y-11550430D01*
X16774480Y-17937800D02*
X16814480Y-17977800D01*
X16814480Y-17937800D02*
X16774480Y-17977800D01*
X16799880Y-11623360D02*
X16839880Y-11663360D01*
X16839880Y-11623360D02*
X16799880Y-11663360D01*
X16825280Y-18572800D02*
X16865280Y-18612800D01*
X16865280Y-18572800D02*
X16825280Y-18612800D01*
X16830763Y-18121083D02*
X16870763Y-18161083D01*
X16870763Y-18121083D02*
X16830763Y-18161083D01*
X16891320Y-18765840D02*
X16931320Y-18805840D01*
X16931320Y-18765840D02*
X16891320Y-18805840D01*
X16937040Y-12232960D02*
X16977040Y-12272960D01*
X16977040Y-12232960D02*
X16937040Y-12272960D01*
X16977680Y-10190800D02*
X17017680Y-10230800D01*
X17017680Y-10190800D02*
X16977680Y-10230800D01*
X17038119Y-18892613D02*
X17078119Y-18932613D01*
X17078119Y-18892613D02*
X17038119Y-18932613D01*
X17053880Y-19360200D02*
X17093880Y-19400200D01*
X17093880Y-19360200D02*
X17053880Y-19400200D01*
X17106285Y-10225557D02*
X17146285Y-10265557D01*
X17146285Y-10225557D02*
X17106285Y-10265557D01*
X17145320Y-19035080D02*
X17185320Y-19075080D01*
X17185320Y-19035080D02*
X17145320Y-19075080D01*
X17211360Y-12217720D02*
X17251360Y-12257720D01*
X17251360Y-12217720D02*
X17211360Y-12257720D01*
X17297720Y-11971250D02*
X17337720Y-12011250D01*
X17337720Y-11971250D02*
X17297720Y-12011250D01*
X17312960Y-19817400D02*
X17352960Y-19857400D01*
X17352960Y-19817400D02*
X17312960Y-19857400D01*
X17338360Y-10033320D02*
X17378360Y-10073320D01*
X17378360Y-10033320D02*
X17338360Y-10073320D01*
X17341549Y-21612531D02*
X17381549Y-21652531D01*
X17381549Y-21612531D02*
X17341549Y-21652531D01*
X17368840Y-16886240D02*
X17408840Y-16926240D01*
X17408840Y-16886240D02*
X17368840Y-16926240D01*
X17429800Y-16708440D02*
X17469800Y-16748440D01*
X17469800Y-16708440D02*
X17429800Y-16748440D01*
X17547760Y-16708440D02*
X17587760Y-16748440D01*
X17587760Y-16708440D02*
X17547760Y-16748440D01*
X17547760Y-16859500D02*
X17587760Y-16899500D01*
X17587760Y-16859500D02*
X17547760Y-16899500D01*
X17617760Y-12486960D02*
X17657760Y-12526960D01*
X17657760Y-12486960D02*
X17617760Y-12526960D01*
X17617760Y-19731040D02*
X17657760Y-19771040D01*
X17657760Y-19731040D02*
X17617760Y-19771040D01*
X17663480Y-15474000D02*
X17703480Y-15514000D01*
X17703480Y-15474000D02*
X17663480Y-15514000D01*
X17709200Y-16732720D02*
X17749200Y-16772720D01*
X17749200Y-16732720D02*
X17709200Y-16772720D01*
X17902240Y-15926120D02*
X17942240Y-15966120D01*
X17942240Y-15926120D02*
X17902240Y-15966120D01*
X17922560Y-17790480D02*
X17962560Y-17830480D01*
X17962560Y-17790480D02*
X17922560Y-17830480D01*
X17947960Y-18334040D02*
X17987960Y-18374040D01*
X17987960Y-18334040D02*
X17947960Y-18374040D01*
X18090200Y-20899440D02*
X18130200Y-20939440D01*
X18130200Y-20899440D02*
X18090200Y-20939440D01*
X18095280Y-16515400D02*
X18135280Y-16555400D01*
X18135280Y-16515400D02*
X18095280Y-16555400D01*
X18186720Y-19578640D02*
X18226720Y-19618640D01*
X18226720Y-19578640D02*
X18186720Y-19618640D01*
X18191800Y-19234710D02*
X18231800Y-19274710D01*
X18231800Y-19234710D02*
X18191800Y-19274710D01*
X18217200Y-9713280D02*
X18257200Y-9753280D01*
X18257200Y-9713280D02*
X18217200Y-9753280D01*
X18237520Y-12004360D02*
X18277520Y-12044360D01*
X18277520Y-12004360D02*
X18237520Y-12044360D01*
X18307470Y-11430320D02*
X18347470Y-11470320D01*
X18347470Y-11430320D02*
X18307470Y-11470320D01*
X18328960Y-17130080D02*
X18368960Y-17170080D01*
X18368960Y-17130080D02*
X18328960Y-17170080D01*
X18328960Y-18903000D02*
X18368960Y-18943000D01*
X18368960Y-18903000D02*
X18328960Y-18943000D01*
X18334040Y-19898680D02*
X18374040Y-19938680D01*
X18374040Y-19898680D02*
X18334040Y-19938680D01*
X18369600Y-10454960D02*
X18409600Y-10494960D01*
X18409600Y-10454960D02*
X18369600Y-10494960D01*
X18379760Y-18765840D02*
X18419760Y-18805840D01*
X18419760Y-18765840D02*
X18379760Y-18805840D01*
X18461040Y-16784640D02*
X18501040Y-16824640D01*
X18501040Y-16784640D02*
X18461040Y-16824640D01*
X18963960Y-15672120D02*
X19003960Y-15712120D01*
X19003960Y-15672120D02*
X18963960Y-15712120D01*
X19055400Y-18913160D02*
X19095400Y-18953160D01*
X19095400Y-18913160D02*
X19055400Y-18953160D01*
X19157000Y-20447320D02*
X19197000Y-20487320D01*
X19197000Y-20447320D02*
X19157000Y-20487320D01*
X19167160Y-19060480D02*
X19207160Y-19100480D01*
X19207160Y-19060480D02*
X19167160Y-19100480D01*
X19532920Y-20935000D02*
X19572920Y-20975000D01*
X19572920Y-20935000D02*
X19532920Y-20975000D01*
X19588800Y-21117880D02*
X19628800Y-21157880D01*
X19628800Y-21117880D02*
X19588800Y-21157880D01*
X19677390Y-20640360D02*
X19717390Y-20680360D01*
X19717390Y-20640360D02*
X19677390Y-20680360D01*
X19690400Y-9357680D02*
X19730400Y-9397680D01*
X19730400Y-9357680D02*
X19690400Y-9397680D01*
X19695480Y-12172000D02*
X19735480Y-12212000D01*
X19735480Y-12172000D02*
X19695480Y-12212000D01*
X19747340Y-17257080D02*
X19787340Y-17297080D01*
X19787340Y-17257080D02*
X19747340Y-17297080D01*
X19747340Y-19101120D02*
X19787340Y-19141120D01*
X19787340Y-19101120D02*
X19747340Y-19141120D01*
X19797080Y-15133640D02*
X19837080Y-15173640D01*
X19837080Y-15133640D02*
X19797080Y-15173640D01*
X19868200Y-9261160D02*
X19908200Y-9301160D01*
X19908200Y-9261160D02*
X19868200Y-9301160D01*
X19903760Y-11196640D02*
X19943760Y-11236640D01*
X19943760Y-11196640D02*
X19903760Y-11236640D01*
X19954560Y-9184960D02*
X19994560Y-9224960D01*
X19994560Y-9184960D02*
X19954560Y-9224960D01*
X20264440Y-16647480D02*
X20304440Y-16687480D01*
X20304440Y-16647480D02*
X20264440Y-16687480D01*
X20279680Y-19761520D02*
X20319680Y-19801520D01*
X20319680Y-19761520D02*
X20279680Y-19801520D01*
X20924840Y-21403530D02*
X20964840Y-21443530D01*
X20964840Y-21403530D02*
X20924840Y-21443530D01*
X21006120Y-11643680D02*
X21046120Y-11683680D01*
X21046120Y-11643680D02*
X21006120Y-11683680D01*
X21006120Y-19675160D02*
X21046120Y-19715160D01*
X21046120Y-19675160D02*
X21006120Y-19715160D01*
X21030350Y-21321080D02*
X21070350Y-21361080D01*
X21070350Y-21321080D02*
X21030350Y-21361080D01*
X21031520Y-10521000D02*
X21071520Y-10561000D01*
X21071520Y-10521000D02*
X21031520Y-10561000D01*
X21051840Y-20294920D02*
X21091840Y-20334920D01*
X21091840Y-20294920D02*
X21051840Y-20334920D01*
X21122960Y-15052360D02*
X21162960Y-15092360D01*
X21162960Y-15052360D02*
X21122960Y-15092360D01*
X21139474Y-10535947D02*
X21179474Y-10575947D01*
X21179474Y-10535947D02*
X21139474Y-10575947D01*
X21140640Y-10432200D02*
X21180640Y-10472200D01*
X21180640Y-10432200D02*
X21140640Y-10472200D01*
X7641694Y-11023774D02*
G75*
G02*
X7591694Y-11023774I-25000J0D01*
G01*
X7591694Y-11023774D02*
G75*
G02*
X7641694Y-11023774I25000J0D01*
G01*
X7641694Y-21323774D02*
G75*
G02*
X7591694Y-21323774I-25000J0D01*
G01*
X7591694Y-21323774D02*
G75*
G02*
X7641694Y-21323774I25000J0D01*
G01*
X7711989Y-10854069D02*
G75*
G02*
X7661989Y-10854069I-25000J0D01*
G01*
X7661989Y-10854069D02*
G75*
G02*
X7711989Y-10854069I25000J0D01*
G01*
X7711989Y-11193480D02*
G75*
G02*
X7661989Y-11193480I-25000J0D01*
G01*
X7661989Y-11193480D02*
G75*
G02*
X7711989Y-11193480I25000J0D01*
G01*
X7711989Y-21154069D02*
G75*
G02*
X7661989Y-21154069I-25000J0D01*
G01*
X7661989Y-21154069D02*
G75*
G02*
X7711989Y-21154069I25000J0D01*
G01*
X7711989Y-21493480D02*
G75*
G02*
X7661989Y-21493480I-25000J0D01*
G01*
X7661989Y-21493480D02*
G75*
G02*
X7711989Y-21493480I25000J0D01*
G01*
X7881694Y-10783774D02*
G75*
G02*
X7831694Y-10783774I-25000J0D01*
G01*
X7831694Y-10783774D02*
G75*
G02*
X7881694Y-10783774I25000J0D01*
G01*
X7881694Y-11263774D02*
G75*
G02*
X7831694Y-11263774I-25000J0D01*
G01*
X7831694Y-11263774D02*
G75*
G02*
X7881694Y-11263774I25000J0D01*
G01*
X7881694Y-21083774D02*
G75*
G02*
X7831694Y-21083774I-25000J0D01*
G01*
X7831694Y-21083774D02*
G75*
G02*
X7881694Y-21083774I25000J0D01*
G01*
X7881694Y-21563774D02*
G75*
G02*
X7831694Y-21563774I-25000J0D01*
G01*
X7831694Y-21563774D02*
G75*
G02*
X7881694Y-21563774I25000J0D01*
G01*
X8051400Y-10854069D02*
G75*
G02*
X8001400Y-10854069I-25000J0D01*
G01*
X8001400Y-10854069D02*
G75*
G02*
X8051400Y-10854069I25000J0D01*
G01*
X8051400Y-11193480D02*
G75*
G02*
X8001400Y-11193480I-25000J0D01*
G01*
X8001400Y-11193480D02*
G75*
G02*
X8051400Y-11193480I25000J0D01*
G01*
X8051400Y-21154069D02*
G75*
G02*
X8001400Y-21154069I-25000J0D01*
G01*
X8001400Y-21154069D02*
G75*
G02*
X8051400Y-21154069I25000J0D01*
G01*
X8051400Y-21493480D02*
G75*
G02*
X8001400Y-21493480I-25000J0D01*
G01*
X8001400Y-21493480D02*
G75*
G02*
X8051400Y-21493480I25000J0D01*
G01*
X8121694Y-11023774D02*
G75*
G02*
X8071694Y-11023774I-25000J0D01*
G01*
X8071694Y-11023774D02*
G75*
G02*
X8121694Y-11023774I25000J0D01*
G01*
X8121694Y-21323774D02*
G75*
G02*
X8071694Y-21323774I-25000J0D01*
G01*
X8071694Y-21323774D02*
G75*
G02*
X8121694Y-21323774I25000J0D01*
G01*
X17641694Y-11023774D02*
G75*
G02*
X17591694Y-11023774I-25000J0D01*
G01*
X17591694Y-11023774D02*
G75*
G02*
X17641694Y-11023774I25000J0D01*
G01*
X17641694Y-21323774D02*
G75*
G02*
X17591694Y-21323774I-25000J0D01*
G01*
X17591694Y-21323774D02*
G75*
G02*
X17641694Y-21323774I25000J0D01*
G01*
X17711989Y-10854069D02*
G75*
G02*
X17661989Y-10854069I-25000J0D01*
G01*
X17661989Y-10854069D02*
G75*
G02*
X17711989Y-10854069I25000J0D01*
G01*
X17711989Y-11193480D02*
G75*
G02*
X17661989Y-11193480I-25000J0D01*
G01*
X17661989Y-11193480D02*
G75*
G02*
X17711989Y-11193480I25000J0D01*
G01*
X17711989Y-21154069D02*
G75*
G02*
X17661989Y-21154069I-25000J0D01*
G01*
X17661989Y-21154069D02*
G75*
G02*
X17711989Y-21154069I25000J0D01*
G01*
X17711989Y-21493480D02*
G75*
G02*
X17661989Y-21493480I-25000J0D01*
G01*
X17661989Y-21493480D02*
G75*
G02*
X17711989Y-21493480I25000J0D01*
G01*
X17881694Y-10783774D02*
G75*
G02*
X17831694Y-10783774I-25000J0D01*
G01*
X17831694Y-10783774D02*
G75*
G02*
X17881694Y-10783774I25000J0D01*
G01*
X17881694Y-11263774D02*
G75*
G02*
X17831694Y-11263774I-25000J0D01*
G01*
X17831694Y-11263774D02*
G75*
G02*
X17881694Y-11263774I25000J0D01*
G01*
X17881694Y-21083774D02*
G75*
G02*
X17831694Y-21083774I-25000J0D01*
G01*
X17831694Y-21083774D02*
G75*
G02*
X17881694Y-21083774I25000J0D01*
G01*
X17881694Y-21563774D02*
G75*
G02*
X17831694Y-21563774I-25000J0D01*
G01*
X17831694Y-21563774D02*
G75*
G02*
X17881694Y-21563774I25000J0D01*
G01*
X18051400Y-10854069D02*
G75*
G02*
X18001400Y-10854069I-25000J0D01*
G01*
X18001400Y-10854069D02*
G75*
G02*
X18051400Y-10854069I25000J0D01*
G01*
X18051400Y-11193480D02*
G75*
G02*
X18001400Y-11193480I-25000J0D01*
G01*
X18001400Y-11193480D02*
G75*
G02*
X18051400Y-11193480I25000J0D01*
G01*
X18051400Y-21154069D02*
G75*
G02*
X18001400Y-21154069I-25000J0D01*
G01*
X18001400Y-21154069D02*
G75*
G02*
X18051400Y-21154069I25000J0D01*
G01*
X18051400Y-21493480D02*
G75*
G02*
X18001400Y-21493480I-25000J0D01*
G01*
X18001400Y-21493480D02*
G75*
G02*
X18051400Y-21493480I25000J0D01*
G01*
X18121694Y-11023774D02*
G75*
G02*
X18071694Y-11023774I-25000J0D01*
G01*
X18071694Y-11023774D02*
G75*
G02*
X18121694Y-11023774I25000J0D01*
G01*
X18121694Y-21323774D02*
G75*
G02*
X18071694Y-21323774I-25000J0D01*
G01*
X18071694Y-21323774D02*
G75*
G02*
X18121694Y-21323774I25000J0D01*
G01*
X19298920Y-10160640D02*
X19298920Y-10240640D01*
X19258920Y-10200640D02*
X19338920Y-10200640D01*
X19298920Y-10414640D02*
X19298920Y-10494640D01*
X19258920Y-10454640D02*
X19338920Y-10454640D01*
X19298920Y-10668640D02*
X19298920Y-10748640D01*
X19258920Y-10708640D02*
X19338920Y-10708640D01*
X19298920Y-10922640D02*
X19298920Y-11002640D01*
X19258920Y-10962640D02*
X19338920Y-10962640D01*
X19298920Y-11176640D02*
X19298920Y-11256640D01*
X19258920Y-11216640D02*
X19338920Y-11216640D01*
X19298920Y-11430640D02*
X19298920Y-11510640D01*
X19258920Y-11470640D02*
X19338920Y-11470640D01*
X19298920Y-11684640D02*
X19298920Y-11764640D01*
X19258920Y-11724640D02*
X19338920Y-11724640D01*
X19298920Y-11938640D02*
X19298920Y-12018640D01*
X19258920Y-11978640D02*
X19338920Y-11978640D01*
X19298920Y-12192640D02*
X19298920Y-12272640D01*
X19258920Y-12232640D02*
X19338920Y-12232640D01*
X19298920Y-12446640D02*
X19298920Y-12526640D01*
X19258920Y-12486640D02*
X19338920Y-12486640D01*
X19298920Y-12700640D02*
X19298920Y-12780640D01*
X19258920Y-12740640D02*
X19338920Y-12740640D01*
X19298920Y-12954640D02*
X19298920Y-13034640D01*
X19258920Y-12994640D02*
X19338920Y-12994640D01*
X19298920Y-13208640D02*
X19298920Y-13288640D01*
X19258920Y-13248640D02*
X19338920Y-13248640D01*
X19298920Y-13462640D02*
X19298920Y-13542640D01*
X19258920Y-13502640D02*
X19338920Y-13502640D01*
X19298920Y-13716640D02*
X19298920Y-13796640D01*
X19258920Y-13756640D02*
X19338920Y-13756640D01*
X19298920Y-13970640D02*
X19298920Y-14050640D01*
X19258920Y-14010640D02*
X19338920Y-14010640D01*
X21330920Y-11176640D02*
X21330920Y-11256640D01*
X21290920Y-11216640D02*
X21370920Y-11216640D01*
X21330920Y-11430640D02*
X21330920Y-11510640D01*
X21290920Y-11470640D02*
X21370920Y-11470640D01*
X21330920Y-11684640D02*
X21330920Y-11764640D01*
X21290920Y-11724640D02*
X21370920Y-11724640D01*
X21330920Y-11938640D02*
X21330920Y-12018640D01*
X21290920Y-11978640D02*
X21370920Y-11978640D01*
X21330920Y-12192640D02*
X21330920Y-12272640D01*
X21290920Y-12232640D02*
X21370920Y-12232640D01*
X21330920Y-12446640D02*
X21330920Y-12526640D01*
X21290920Y-12486640D02*
X21370920Y-12486640D01*
X21330920Y-12700640D02*
X21330920Y-12780640D01*
X21290920Y-12740640D02*
X21370920Y-12740640D01*
X21330920Y-12954640D02*
X21330920Y-13034640D01*
X21290920Y-12994640D02*
X21370920Y-12994640D01*
X21330920Y-13208640D02*
X21330920Y-13288640D01*
X21290920Y-13248640D02*
X21370920Y-13248640D01*
X21330920Y-13462640D02*
X21330920Y-13542640D01*
X21290920Y-13502640D02*
X21370920Y-13502640D01*
X21330920Y-13716640D02*
X21330920Y-13796640D01*
X21290920Y-13756640D02*
X21370920Y-13756640D01*
X21330920Y-13970640D02*
X21330920Y-14050640D01*
X21290920Y-14010640D02*
X21370920Y-14010640D01*
X19303796Y-15315996D02*
X19303796Y-15245284D01*
X19233084Y-15245284D01*
X19233084Y-15315996D01*
X19303796Y-15315996D01*
X19303796Y-16115996D02*
X19303796Y-16045284D01*
X19233084Y-16045284D01*
X19233084Y-16115996D01*
X19303796Y-16115996D01*
X19303796Y-16915996D02*
X19303796Y-16845284D01*
X19233084Y-16845284D01*
X19233084Y-16915996D01*
X19303796Y-16915996D01*
X19303796Y-17715996D02*
X19303796Y-17645284D01*
X19233084Y-17645284D01*
X19233084Y-17715996D01*
X19303796Y-17715996D01*
X19303796Y-18515996D02*
X19303796Y-18445284D01*
X19233084Y-18445284D01*
X19233084Y-18515996D01*
X19303796Y-18515996D01*
X19557796Y-15315996D02*
X19557796Y-15245284D01*
X19487084Y-15245284D01*
X19487084Y-15315996D01*
X19557796Y-15315996D01*
X19557796Y-16115996D02*
X19557796Y-16045284D01*
X19487084Y-16045284D01*
X19487084Y-16115996D01*
X19557796Y-16115996D01*
X19557796Y-16915996D02*
X19557796Y-16845284D01*
X19487084Y-16845284D01*
X19487084Y-16915996D01*
X19557796Y-16915996D01*
X19557796Y-17715996D02*
X19557796Y-17645284D01*
X19487084Y-17645284D01*
X19487084Y-17715996D01*
X19557796Y-17715996D01*
X19557796Y-18515996D02*
X19557796Y-18445284D01*
X19487084Y-18445284D01*
X19487084Y-18515996D01*
X19557796Y-18515996D01*
D12*
X20538440Y-15340640D02*
X20598440Y-15280640D01*
X20538440Y-15220640D01*
X20478440Y-15280640D01*
X20538440Y-15340640D01*
X20538440Y-16140640D02*
X20598440Y-16080640D01*
X20538440Y-16020640D01*
X20478440Y-16080640D01*
X20538440Y-16140640D01*
X20538440Y-16940640D02*
X20598440Y-16880640D01*
X20538440Y-16820640D01*
X20478440Y-16880640D01*
X20538440Y-16940640D01*
X20538440Y-17740640D02*
X20598440Y-17680640D01*
X20538440Y-17620640D01*
X20478440Y-17680640D01*
X20538440Y-17740640D01*
X20538440Y-18540640D02*
X20598440Y-18480640D01*
X20538440Y-18420640D01*
X20478440Y-18480640D01*
X20538440Y-18540640D01*
X21046440Y-15340640D02*
X21106440Y-15280640D01*
X21046440Y-15220640D01*
X20986440Y-15280640D01*
X21046440Y-15340640D01*
X21046440Y-16140640D02*
X21106440Y-16080640D01*
X21046440Y-16020640D01*
X20986440Y-16080640D01*
X21046440Y-16140640D01*
X21046440Y-16940640D02*
X21106440Y-16880640D01*
X21046440Y-16820640D01*
X20986440Y-16880640D01*
X21046440Y-16940640D01*
X21046440Y-17740640D02*
X21106440Y-17680640D01*
X21046440Y-17620640D01*
X20986440Y-17680640D01*
X21046440Y-17740640D01*
X21046440Y-18540640D02*
X21106440Y-18480640D01*
X21046440Y-18420640D01*
X20986440Y-18480640D01*
X21046440Y-18540640D01*
D13*
X7696694Y-10863774D02*
X8016694Y-11183774D01*
X8016694Y-10863774D02*
X7696694Y-11183774D01*
X8016694Y-11023774D02*
G75*
G02*
X7696694Y-11023774I-160000J0D01*
G01*
X7696694Y-11023774D02*
G75*
G02*
X8016694Y-11023774I160000J0D01*
G01*
X7696694Y-21163774D02*
X8016694Y-21483774D01*
X8016694Y-21163774D02*
X7696694Y-21483774D01*
X8016694Y-21323774D02*
G75*
G02*
X7696694Y-21323774I-160000J0D01*
G01*
X7696694Y-21323774D02*
G75*
G02*
X8016694Y-21323774I160000J0D01*
G01*
X17696694Y-10863774D02*
X18016694Y-11183774D01*
X18016694Y-10863774D02*
X17696694Y-11183774D01*
X18016694Y-11023774D02*
G75*
G02*
X17696694Y-11023774I-160000J0D01*
G01*
X17696694Y-11023774D02*
G75*
G02*
X18016694Y-11023774I160000J0D01*
G01*
X17696694Y-21163774D02*
X18016694Y-21483774D01*
X18016694Y-21163774D02*
X17696694Y-21483774D01*
X18016694Y-21323774D02*
G75*
G02*
X17696694Y-21323774I-160000J0D01*
G01*
X17696694Y-21323774D02*
G75*
G02*
X18016694Y-21323774I160000J0D01*
G01*
D11*
X6812965Y-22239764D02*
X6812965Y-22039764D01*
X6812965Y-22039764D02*
X6860584Y-22039764D01*
X6860584Y-22039764D02*
X6889155Y-22049288D01*
X6889155Y-22049288D02*
X6908203Y-22068336D01*
X6908203Y-22068336D02*
X6917727Y-22087383D01*
X6917727Y-22087383D02*
X6927251Y-22125478D01*
X6927251Y-22125478D02*
X6927251Y-22154050D01*
X6927251Y-22154050D02*
X6917727Y-22192145D01*
X6917727Y-22192145D02*
X6908203Y-22211193D01*
X6908203Y-22211193D02*
X6889155Y-22230240D01*
X6889155Y-22230240D02*
X6860584Y-22239764D01*
X6860584Y-22239764D02*
X6812965Y-22239764D01*
X7012965Y-22239764D02*
X7012965Y-22106431D01*
X7012965Y-22144526D02*
X7022489Y-22125478D01*
X7022489Y-22125478D02*
X7032013Y-22115955D01*
X7032013Y-22115955D02*
X7051060Y-22106431D01*
X7051060Y-22106431D02*
X7070108Y-22106431D01*
X7136774Y-22239764D02*
X7136774Y-22106431D01*
X7136774Y-22039764D02*
X7127251Y-22049288D01*
X7127251Y-22049288D02*
X7136774Y-22058812D01*
X7136774Y-22058812D02*
X7146298Y-22049288D01*
X7146298Y-22049288D02*
X7136774Y-22039764D01*
X7136774Y-22039764D02*
X7136774Y-22058812D01*
X7260584Y-22239764D02*
X7241536Y-22230240D01*
X7241536Y-22230240D02*
X7232013Y-22211193D01*
X7232013Y-22211193D02*
X7232013Y-22039764D01*
X7365346Y-22239764D02*
X7346298Y-22230240D01*
X7346298Y-22230240D02*
X7336774Y-22211193D01*
X7336774Y-22211193D02*
X7336774Y-22039764D01*
X7593917Y-22239764D02*
X7593917Y-22039764D01*
X7593917Y-22039764D02*
X7660584Y-22182621D01*
X7660584Y-22182621D02*
X7727251Y-22039764D01*
X7727251Y-22039764D02*
X7727251Y-22239764D01*
X7908203Y-22239764D02*
X7908203Y-22135002D01*
X7908203Y-22135002D02*
X7898679Y-22115955D01*
X7898679Y-22115955D02*
X7879632Y-22106431D01*
X7879632Y-22106431D02*
X7841536Y-22106431D01*
X7841536Y-22106431D02*
X7822489Y-22115955D01*
X7908203Y-22230240D02*
X7889155Y-22239764D01*
X7889155Y-22239764D02*
X7841536Y-22239764D01*
X7841536Y-22239764D02*
X7822489Y-22230240D01*
X7822489Y-22230240D02*
X7812965Y-22211193D01*
X7812965Y-22211193D02*
X7812965Y-22192145D01*
X7812965Y-22192145D02*
X7822489Y-22173097D01*
X7822489Y-22173097D02*
X7841536Y-22163574D01*
X7841536Y-22163574D02*
X7889155Y-22163574D01*
X7889155Y-22163574D02*
X7908203Y-22154050D01*
X8003441Y-22106431D02*
X8003441Y-22306431D01*
X8003441Y-22115955D02*
X8022489Y-22106431D01*
X8022489Y-22106431D02*
X8060584Y-22106431D01*
X8060584Y-22106431D02*
X8079632Y-22115955D01*
X8079632Y-22115955D02*
X8089155Y-22125478D01*
X8089155Y-22125478D02*
X8098679Y-22144526D01*
X8098679Y-22144526D02*
X8098679Y-22201669D01*
X8098679Y-22201669D02*
X8089155Y-22220716D01*
X8089155Y-22220716D02*
X8079632Y-22230240D01*
X8079632Y-22230240D02*
X8060584Y-22239764D01*
X8060584Y-22239764D02*
X8022489Y-22239764D01*
X8022489Y-22239764D02*
X8003441Y-22230240D01*
X8184394Y-22220716D02*
X8193917Y-22230240D01*
X8193917Y-22230240D02*
X8184394Y-22239764D01*
X8184394Y-22239764D02*
X8174870Y-22230240D01*
X8174870Y-22230240D02*
X8184394Y-22220716D01*
X8184394Y-22220716D02*
X8184394Y-22239764D01*
X8184394Y-22115955D02*
X8193917Y-22125478D01*
X8193917Y-22125478D02*
X8184394Y-22135002D01*
X8184394Y-22135002D02*
X8174870Y-22125478D01*
X8174870Y-22125478D02*
X8184394Y-22115955D01*
X8184394Y-22115955D02*
X8184394Y-22135002D01*
D10*
X6512188Y-22548280D02*
X6552188Y-22588280D01*
X6552188Y-22548280D02*
X6512188Y-22588280D01*
D11*
X6851060Y-22459764D02*
X6870108Y-22459764D01*
X6870108Y-22459764D02*
X6889155Y-22469288D01*
X6889155Y-22469288D02*
X6898679Y-22478812D01*
X6898679Y-22478812D02*
X6908203Y-22497859D01*
X6908203Y-22497859D02*
X6917727Y-22535954D01*
X6917727Y-22535954D02*
X6917727Y-22583574D01*
X6917727Y-22583574D02*
X6908203Y-22621669D01*
X6908203Y-22621669D02*
X6898679Y-22640716D01*
X6898679Y-22640716D02*
X6889155Y-22650240D01*
X6889155Y-22650240D02*
X6870108Y-22659764D01*
X6870108Y-22659764D02*
X6851060Y-22659764D01*
X6851060Y-22659764D02*
X6832013Y-22650240D01*
X6832013Y-22650240D02*
X6822489Y-22640716D01*
X6822489Y-22640716D02*
X6812965Y-22621669D01*
X6812965Y-22621669D02*
X6803441Y-22583574D01*
X6803441Y-22583574D02*
X6803441Y-22535954D01*
X6803441Y-22535954D02*
X6812965Y-22497859D01*
X6812965Y-22497859D02*
X6822489Y-22478812D01*
X6822489Y-22478812D02*
X6832013Y-22469288D01*
X6832013Y-22469288D02*
X6851060Y-22459764D01*
X7003441Y-22640716D02*
X7012965Y-22650240D01*
X7012965Y-22650240D02*
X7003441Y-22659764D01*
X7003441Y-22659764D02*
X6993917Y-22650240D01*
X6993917Y-22650240D02*
X7003441Y-22640716D01*
X7003441Y-22640716D02*
X7003441Y-22659764D01*
X7184394Y-22526431D02*
X7184394Y-22659764D01*
X7136774Y-22450240D02*
X7089155Y-22593097D01*
X7089155Y-22593097D02*
X7212965Y-22593097D01*
X7327251Y-22459764D02*
X7346298Y-22459764D01*
X7346298Y-22459764D02*
X7365346Y-22469288D01*
X7365346Y-22469288D02*
X7374870Y-22478812D01*
X7374870Y-22478812D02*
X7384394Y-22497859D01*
X7384394Y-22497859D02*
X7393917Y-22535954D01*
X7393917Y-22535954D02*
X7393917Y-22583574D01*
X7393917Y-22583574D02*
X7384394Y-22621669D01*
X7384394Y-22621669D02*
X7374870Y-22640716D01*
X7374870Y-22640716D02*
X7365346Y-22650240D01*
X7365346Y-22650240D02*
X7346298Y-22659764D01*
X7346298Y-22659764D02*
X7327251Y-22659764D01*
X7327251Y-22659764D02*
X7308203Y-22650240D01*
X7308203Y-22650240D02*
X7298679Y-22640716D01*
X7298679Y-22640716D02*
X7289155Y-22621669D01*
X7289155Y-22621669D02*
X7279632Y-22583574D01*
X7279632Y-22583574D02*
X7279632Y-22535954D01*
X7279632Y-22535954D02*
X7289155Y-22497859D01*
X7289155Y-22497859D02*
X7298679Y-22478812D01*
X7298679Y-22478812D02*
X7308203Y-22469288D01*
X7308203Y-22469288D02*
X7327251Y-22459764D01*
X7517727Y-22459764D02*
X7536775Y-22459764D01*
X7536775Y-22459764D02*
X7555822Y-22469288D01*
X7555822Y-22469288D02*
X7565346Y-22478812D01*
X7565346Y-22478812D02*
X7574870Y-22497859D01*
X7574870Y-22497859D02*
X7584394Y-22535954D01*
X7584394Y-22535954D02*
X7584394Y-22583574D01*
X7584394Y-22583574D02*
X7574870Y-22621669D01*
X7574870Y-22621669D02*
X7565346Y-22640716D01*
X7565346Y-22640716D02*
X7555822Y-22650240D01*
X7555822Y-22650240D02*
X7536775Y-22659764D01*
X7536775Y-22659764D02*
X7517727Y-22659764D01*
X7517727Y-22659764D02*
X7498679Y-22650240D01*
X7498679Y-22650240D02*
X7489155Y-22640716D01*
X7489155Y-22640716D02*
X7479632Y-22621669D01*
X7479632Y-22621669D02*
X7470108Y-22583574D01*
X7470108Y-22583574D02*
X7470108Y-22535954D01*
X7470108Y-22535954D02*
X7479632Y-22497859D01*
X7479632Y-22497859D02*
X7489155Y-22478812D01*
X7489155Y-22478812D02*
X7498679Y-22469288D01*
X7498679Y-22469288D02*
X7517727Y-22459764D01*
X7670108Y-22659764D02*
X7670108Y-22526431D01*
X7670108Y-22545478D02*
X7679632Y-22535954D01*
X7679632Y-22535954D02*
X7698679Y-22526431D01*
X7698679Y-22526431D02*
X7727251Y-22526431D01*
X7727251Y-22526431D02*
X7746298Y-22535954D01*
X7746298Y-22535954D02*
X7755822Y-22555002D01*
X7755822Y-22555002D02*
X7755822Y-22659764D01*
X7755822Y-22555002D02*
X7765346Y-22535954D01*
X7765346Y-22535954D02*
X7784394Y-22526431D01*
X7784394Y-22526431D02*
X7812965Y-22526431D01*
X7812965Y-22526431D02*
X7832013Y-22535954D01*
X7832013Y-22535954D02*
X7841536Y-22555002D01*
X7841536Y-22555002D02*
X7841536Y-22659764D01*
X7936775Y-22659764D02*
X7936775Y-22526431D01*
X7936775Y-22545478D02*
X7946298Y-22535954D01*
X7946298Y-22535954D02*
X7965346Y-22526431D01*
X7965346Y-22526431D02*
X7993917Y-22526431D01*
X7993917Y-22526431D02*
X8012965Y-22535954D01*
X8012965Y-22535954D02*
X8022489Y-22555002D01*
X8022489Y-22555002D02*
X8022489Y-22659764D01*
X8022489Y-22555002D02*
X8032013Y-22535954D01*
X8032013Y-22535954D02*
X8051060Y-22526431D01*
X8051060Y-22526431D02*
X8079632Y-22526431D01*
X8079632Y-22526431D02*
X8098679Y-22535954D01*
X8098679Y-22535954D02*
X8108203Y-22555002D01*
X8108203Y-22555002D02*
X8108203Y-22659764D01*
X8498679Y-22450240D02*
X8327251Y-22707383D01*
X8755822Y-22459764D02*
X8774870Y-22459764D01*
X8774870Y-22459764D02*
X8793918Y-22469288D01*
X8793918Y-22469288D02*
X8803441Y-22478812D01*
X8803441Y-22478812D02*
X8812965Y-22497859D01*
X8812965Y-22497859D02*
X8822489Y-22535954D01*
X8822489Y-22535954D02*
X8822489Y-22583574D01*
X8822489Y-22583574D02*
X8812965Y-22621669D01*
X8812965Y-22621669D02*
X8803441Y-22640716D01*
X8803441Y-22640716D02*
X8793918Y-22650240D01*
X8793918Y-22650240D02*
X8774870Y-22659764D01*
X8774870Y-22659764D02*
X8755822Y-22659764D01*
X8755822Y-22659764D02*
X8736775Y-22650240D01*
X8736775Y-22650240D02*
X8727251Y-22640716D01*
X8727251Y-22640716D02*
X8717727Y-22621669D01*
X8717727Y-22621669D02*
X8708203Y-22583574D01*
X8708203Y-22583574D02*
X8708203Y-22535954D01*
X8708203Y-22535954D02*
X8717727Y-22497859D01*
X8717727Y-22497859D02*
X8727251Y-22478812D01*
X8727251Y-22478812D02*
X8736775Y-22469288D01*
X8736775Y-22469288D02*
X8755822Y-22459764D01*
X8908203Y-22640716D02*
X8917727Y-22650240D01*
X8917727Y-22650240D02*
X8908203Y-22659764D01*
X8908203Y-22659764D02*
X8898680Y-22650240D01*
X8898680Y-22650240D02*
X8908203Y-22640716D01*
X8908203Y-22640716D02*
X8908203Y-22659764D01*
X9041537Y-22459764D02*
X9060584Y-22459764D01*
X9060584Y-22459764D02*
X9079632Y-22469288D01*
X9079632Y-22469288D02*
X9089156Y-22478812D01*
X9089156Y-22478812D02*
X9098680Y-22497859D01*
X9098680Y-22497859D02*
X9108203Y-22535954D01*
X9108203Y-22535954D02*
X9108203Y-22583574D01*
X9108203Y-22583574D02*
X9098680Y-22621669D01*
X9098680Y-22621669D02*
X9089156Y-22640716D01*
X9089156Y-22640716D02*
X9079632Y-22650240D01*
X9079632Y-22650240D02*
X9060584Y-22659764D01*
X9060584Y-22659764D02*
X9041537Y-22659764D01*
X9041537Y-22659764D02*
X9022489Y-22650240D01*
X9022489Y-22650240D02*
X9012965Y-22640716D01*
X9012965Y-22640716D02*
X9003441Y-22621669D01*
X9003441Y-22621669D02*
X8993918Y-22583574D01*
X8993918Y-22583574D02*
X8993918Y-22535954D01*
X8993918Y-22535954D02*
X9003441Y-22497859D01*
X9003441Y-22497859D02*
X9012965Y-22478812D01*
X9012965Y-22478812D02*
X9022489Y-22469288D01*
X9022489Y-22469288D02*
X9041537Y-22459764D01*
X9298680Y-22659764D02*
X9184394Y-22659764D01*
X9241537Y-22659764D02*
X9241537Y-22459764D01*
X9241537Y-22459764D02*
X9222489Y-22488335D01*
X9222489Y-22488335D02*
X9203441Y-22507383D01*
X9203441Y-22507383D02*
X9184394Y-22516907D01*
X9479632Y-22459764D02*
X9384394Y-22459764D01*
X9384394Y-22459764D02*
X9374870Y-22555002D01*
X9374870Y-22555002D02*
X9384394Y-22545478D01*
X9384394Y-22545478D02*
X9403441Y-22535954D01*
X9403441Y-22535954D02*
X9451061Y-22535954D01*
X9451061Y-22535954D02*
X9470108Y-22545478D01*
X9470108Y-22545478D02*
X9479632Y-22555002D01*
X9479632Y-22555002D02*
X9489156Y-22574050D01*
X9489156Y-22574050D02*
X9489156Y-22621669D01*
X9489156Y-22621669D02*
X9479632Y-22640716D01*
X9479632Y-22640716D02*
X9470108Y-22650240D01*
X9470108Y-22650240D02*
X9451061Y-22659764D01*
X9451061Y-22659764D02*
X9403441Y-22659764D01*
X9403441Y-22659764D02*
X9384394Y-22650240D01*
X9384394Y-22650240D02*
X9374870Y-22640716D01*
X9555822Y-22459764D02*
X9689156Y-22459764D01*
X9689156Y-22459764D02*
X9603441Y-22659764D01*
X9755822Y-22459764D02*
X9755822Y-22497859D01*
X9832013Y-22459764D02*
X9832013Y-22497859D01*
X10127251Y-22735954D02*
X10117727Y-22726431D01*
X10117727Y-22726431D02*
X10098680Y-22697859D01*
X10098680Y-22697859D02*
X10089156Y-22678812D01*
X10089156Y-22678812D02*
X10079632Y-22650240D01*
X10079632Y-22650240D02*
X10070108Y-22602621D01*
X10070108Y-22602621D02*
X10070108Y-22564526D01*
X10070108Y-22564526D02*
X10079632Y-22516907D01*
X10079632Y-22516907D02*
X10089156Y-22488335D01*
X10089156Y-22488335D02*
X10098680Y-22469288D01*
X10098680Y-22469288D02*
X10117727Y-22440716D01*
X10117727Y-22440716D02*
X10127251Y-22431193D01*
X10289156Y-22526431D02*
X10289156Y-22659764D01*
X10241537Y-22450240D02*
X10193918Y-22593097D01*
X10193918Y-22593097D02*
X10317727Y-22593097D01*
X10489156Y-22459764D02*
X10393918Y-22459764D01*
X10393918Y-22459764D02*
X10384394Y-22555002D01*
X10384394Y-22555002D02*
X10393918Y-22545478D01*
X10393918Y-22545478D02*
X10412965Y-22535954D01*
X10412965Y-22535954D02*
X10460584Y-22535954D01*
X10460584Y-22535954D02*
X10479632Y-22545478D01*
X10479632Y-22545478D02*
X10489156Y-22555002D01*
X10489156Y-22555002D02*
X10498680Y-22574050D01*
X10498680Y-22574050D02*
X10498680Y-22621669D01*
X10498680Y-22621669D02*
X10489156Y-22640716D01*
X10489156Y-22640716D02*
X10479632Y-22650240D01*
X10479632Y-22650240D02*
X10460584Y-22659764D01*
X10460584Y-22659764D02*
X10412965Y-22659764D01*
X10412965Y-22659764D02*
X10393918Y-22650240D01*
X10393918Y-22650240D02*
X10384394Y-22640716D01*
X10670108Y-22526431D02*
X10670108Y-22659764D01*
X10622489Y-22450240D02*
X10574870Y-22593097D01*
X10574870Y-22593097D02*
X10698680Y-22593097D01*
X10927251Y-22659764D02*
X10927251Y-22459764D01*
X11012965Y-22659764D02*
X11012965Y-22555002D01*
X11012965Y-22555002D02*
X11003442Y-22535954D01*
X11003442Y-22535954D02*
X10984394Y-22526431D01*
X10984394Y-22526431D02*
X10955823Y-22526431D01*
X10955823Y-22526431D02*
X10936775Y-22535954D01*
X10936775Y-22535954D02*
X10927251Y-22545478D01*
X11136775Y-22659764D02*
X11117727Y-22650240D01*
X11117727Y-22650240D02*
X11108204Y-22640716D01*
X11108204Y-22640716D02*
X11098680Y-22621669D01*
X11098680Y-22621669D02*
X11098680Y-22564526D01*
X11098680Y-22564526D02*
X11108204Y-22545478D01*
X11108204Y-22545478D02*
X11117727Y-22535954D01*
X11117727Y-22535954D02*
X11136775Y-22526431D01*
X11136775Y-22526431D02*
X11165346Y-22526431D01*
X11165346Y-22526431D02*
X11184394Y-22535954D01*
X11184394Y-22535954D02*
X11193918Y-22545478D01*
X11193918Y-22545478D02*
X11203442Y-22564526D01*
X11203442Y-22564526D02*
X11203442Y-22621669D01*
X11203442Y-22621669D02*
X11193918Y-22640716D01*
X11193918Y-22640716D02*
X11184394Y-22650240D01*
X11184394Y-22650240D02*
X11165346Y-22659764D01*
X11165346Y-22659764D02*
X11136775Y-22659764D01*
X11317727Y-22659764D02*
X11298680Y-22650240D01*
X11298680Y-22650240D02*
X11289156Y-22631193D01*
X11289156Y-22631193D02*
X11289156Y-22459764D01*
X11470108Y-22650240D02*
X11451061Y-22659764D01*
X11451061Y-22659764D02*
X11412965Y-22659764D01*
X11412965Y-22659764D02*
X11393918Y-22650240D01*
X11393918Y-22650240D02*
X11384394Y-22631193D01*
X11384394Y-22631193D02*
X11384394Y-22555002D01*
X11384394Y-22555002D02*
X11393918Y-22535954D01*
X11393918Y-22535954D02*
X11412965Y-22526431D01*
X11412965Y-22526431D02*
X11451061Y-22526431D01*
X11451061Y-22526431D02*
X11470108Y-22535954D01*
X11470108Y-22535954D02*
X11479632Y-22555002D01*
X11479632Y-22555002D02*
X11479632Y-22574050D01*
X11479632Y-22574050D02*
X11384394Y-22593097D01*
X11555823Y-22650240D02*
X11574870Y-22659764D01*
X11574870Y-22659764D02*
X11612965Y-22659764D01*
X11612965Y-22659764D02*
X11632013Y-22650240D01*
X11632013Y-22650240D02*
X11641537Y-22631193D01*
X11641537Y-22631193D02*
X11641537Y-22621669D01*
X11641537Y-22621669D02*
X11632013Y-22602621D01*
X11632013Y-22602621D02*
X11612965Y-22593097D01*
X11612965Y-22593097D02*
X11584394Y-22593097D01*
X11584394Y-22593097D02*
X11565346Y-22583574D01*
X11565346Y-22583574D02*
X11555823Y-22564526D01*
X11555823Y-22564526D02*
X11555823Y-22555002D01*
X11555823Y-22555002D02*
X11565346Y-22535954D01*
X11565346Y-22535954D02*
X11584394Y-22526431D01*
X11584394Y-22526431D02*
X11612965Y-22526431D01*
X11612965Y-22526431D02*
X11632013Y-22535954D01*
X11708204Y-22735954D02*
X11717727Y-22726431D01*
X11717727Y-22726431D02*
X11736775Y-22697859D01*
X11736775Y-22697859D02*
X11746299Y-22678812D01*
X11746299Y-22678812D02*
X11755823Y-22650240D01*
X11755823Y-22650240D02*
X11765346Y-22602621D01*
X11765346Y-22602621D02*
X11765346Y-22564526D01*
X11765346Y-22564526D02*
X11755823Y-22516907D01*
X11755823Y-22516907D02*
X11746299Y-22488335D01*
X11746299Y-22488335D02*
X11736775Y-22469288D01*
X11736775Y-22469288D02*
X11717727Y-22440716D01*
X11717727Y-22440716D02*
X11708204Y-22431193D01*
D10*
X6552188Y-22832280D02*
G75*
G02*
X6502188Y-22832280I-25000J0D01*
G01*
X6502188Y-22832280D02*
G75*
G02*
X6552188Y-22832280I25000J0D01*
G01*
D11*
X6851060Y-22723764D02*
X6870108Y-22723764D01*
X6870108Y-22723764D02*
X6889155Y-22733288D01*
X6889155Y-22733288D02*
X6898679Y-22742812D01*
X6898679Y-22742812D02*
X6908203Y-22761859D01*
X6908203Y-22761859D02*
X6917727Y-22799954D01*
X6917727Y-22799954D02*
X6917727Y-22847574D01*
X6917727Y-22847574D02*
X6908203Y-22885669D01*
X6908203Y-22885669D02*
X6898679Y-22904716D01*
X6898679Y-22904716D02*
X6889155Y-22914240D01*
X6889155Y-22914240D02*
X6870108Y-22923764D01*
X6870108Y-22923764D02*
X6851060Y-22923764D01*
X6851060Y-22923764D02*
X6832013Y-22914240D01*
X6832013Y-22914240D02*
X6822489Y-22904716D01*
X6822489Y-22904716D02*
X6812965Y-22885669D01*
X6812965Y-22885669D02*
X6803441Y-22847574D01*
X6803441Y-22847574D02*
X6803441Y-22799954D01*
X6803441Y-22799954D02*
X6812965Y-22761859D01*
X6812965Y-22761859D02*
X6822489Y-22742812D01*
X6822489Y-22742812D02*
X6832013Y-22733288D01*
X6832013Y-22733288D02*
X6851060Y-22723764D01*
X7003441Y-22904716D02*
X7012965Y-22914240D01*
X7012965Y-22914240D02*
X7003441Y-22923764D01*
X7003441Y-22923764D02*
X6993917Y-22914240D01*
X6993917Y-22914240D02*
X7003441Y-22904716D01*
X7003441Y-22904716D02*
X7003441Y-22923764D01*
X7193917Y-22723764D02*
X7098679Y-22723764D01*
X7098679Y-22723764D02*
X7089155Y-22819002D01*
X7089155Y-22819002D02*
X7098679Y-22809478D01*
X7098679Y-22809478D02*
X7117727Y-22799954D01*
X7117727Y-22799954D02*
X7165346Y-22799954D01*
X7165346Y-22799954D02*
X7184394Y-22809478D01*
X7184394Y-22809478D02*
X7193917Y-22819002D01*
X7193917Y-22819002D02*
X7203441Y-22838050D01*
X7203441Y-22838050D02*
X7203441Y-22885669D01*
X7203441Y-22885669D02*
X7193917Y-22904716D01*
X7193917Y-22904716D02*
X7184394Y-22914240D01*
X7184394Y-22914240D02*
X7165346Y-22923764D01*
X7165346Y-22923764D02*
X7117727Y-22923764D01*
X7117727Y-22923764D02*
X7098679Y-22914240D01*
X7098679Y-22914240D02*
X7089155Y-22904716D01*
X7327251Y-22723764D02*
X7346298Y-22723764D01*
X7346298Y-22723764D02*
X7365346Y-22733288D01*
X7365346Y-22733288D02*
X7374870Y-22742812D01*
X7374870Y-22742812D02*
X7384394Y-22761859D01*
X7384394Y-22761859D02*
X7393917Y-22799954D01*
X7393917Y-22799954D02*
X7393917Y-22847574D01*
X7393917Y-22847574D02*
X7384394Y-22885669D01*
X7384394Y-22885669D02*
X7374870Y-22904716D01*
X7374870Y-22904716D02*
X7365346Y-22914240D01*
X7365346Y-22914240D02*
X7346298Y-22923764D01*
X7346298Y-22923764D02*
X7327251Y-22923764D01*
X7327251Y-22923764D02*
X7308203Y-22914240D01*
X7308203Y-22914240D02*
X7298679Y-22904716D01*
X7298679Y-22904716D02*
X7289155Y-22885669D01*
X7289155Y-22885669D02*
X7279632Y-22847574D01*
X7279632Y-22847574D02*
X7279632Y-22799954D01*
X7279632Y-22799954D02*
X7289155Y-22761859D01*
X7289155Y-22761859D02*
X7298679Y-22742812D01*
X7298679Y-22742812D02*
X7308203Y-22733288D01*
X7308203Y-22733288D02*
X7327251Y-22723764D01*
X7517727Y-22723764D02*
X7536775Y-22723764D01*
X7536775Y-22723764D02*
X7555822Y-22733288D01*
X7555822Y-22733288D02*
X7565346Y-22742812D01*
X7565346Y-22742812D02*
X7574870Y-22761859D01*
X7574870Y-22761859D02*
X7584394Y-22799954D01*
X7584394Y-22799954D02*
X7584394Y-22847574D01*
X7584394Y-22847574D02*
X7574870Y-22885669D01*
X7574870Y-22885669D02*
X7565346Y-22904716D01*
X7565346Y-22904716D02*
X7555822Y-22914240D01*
X7555822Y-22914240D02*
X7536775Y-22923764D01*
X7536775Y-22923764D02*
X7517727Y-22923764D01*
X7517727Y-22923764D02*
X7498679Y-22914240D01*
X7498679Y-22914240D02*
X7489155Y-22904716D01*
X7489155Y-22904716D02*
X7479632Y-22885669D01*
X7479632Y-22885669D02*
X7470108Y-22847574D01*
X7470108Y-22847574D02*
X7470108Y-22799954D01*
X7470108Y-22799954D02*
X7479632Y-22761859D01*
X7479632Y-22761859D02*
X7489155Y-22742812D01*
X7489155Y-22742812D02*
X7498679Y-22733288D01*
X7498679Y-22733288D02*
X7517727Y-22723764D01*
X7670108Y-22923764D02*
X7670108Y-22790431D01*
X7670108Y-22809478D02*
X7679632Y-22799954D01*
X7679632Y-22799954D02*
X7698679Y-22790431D01*
X7698679Y-22790431D02*
X7727251Y-22790431D01*
X7727251Y-22790431D02*
X7746298Y-22799954D01*
X7746298Y-22799954D02*
X7755822Y-22819002D01*
X7755822Y-22819002D02*
X7755822Y-22923764D01*
X7755822Y-22819002D02*
X7765346Y-22799954D01*
X7765346Y-22799954D02*
X7784394Y-22790431D01*
X7784394Y-22790431D02*
X7812965Y-22790431D01*
X7812965Y-22790431D02*
X7832013Y-22799954D01*
X7832013Y-22799954D02*
X7841536Y-22819002D01*
X7841536Y-22819002D02*
X7841536Y-22923764D01*
X7936775Y-22923764D02*
X7936775Y-22790431D01*
X7936775Y-22809478D02*
X7946298Y-22799954D01*
X7946298Y-22799954D02*
X7965346Y-22790431D01*
X7965346Y-22790431D02*
X7993917Y-22790431D01*
X7993917Y-22790431D02*
X8012965Y-22799954D01*
X8012965Y-22799954D02*
X8022489Y-22819002D01*
X8022489Y-22819002D02*
X8022489Y-22923764D01*
X8022489Y-22819002D02*
X8032013Y-22799954D01*
X8032013Y-22799954D02*
X8051060Y-22790431D01*
X8051060Y-22790431D02*
X8079632Y-22790431D01*
X8079632Y-22790431D02*
X8098679Y-22799954D01*
X8098679Y-22799954D02*
X8108203Y-22819002D01*
X8108203Y-22819002D02*
X8108203Y-22923764D01*
X8498679Y-22714240D02*
X8327251Y-22971383D01*
X8755822Y-22723764D02*
X8774870Y-22723764D01*
X8774870Y-22723764D02*
X8793918Y-22733288D01*
X8793918Y-22733288D02*
X8803441Y-22742812D01*
X8803441Y-22742812D02*
X8812965Y-22761859D01*
X8812965Y-22761859D02*
X8822489Y-22799954D01*
X8822489Y-22799954D02*
X8822489Y-22847574D01*
X8822489Y-22847574D02*
X8812965Y-22885669D01*
X8812965Y-22885669D02*
X8803441Y-22904716D01*
X8803441Y-22904716D02*
X8793918Y-22914240D01*
X8793918Y-22914240D02*
X8774870Y-22923764D01*
X8774870Y-22923764D02*
X8755822Y-22923764D01*
X8755822Y-22923764D02*
X8736775Y-22914240D01*
X8736775Y-22914240D02*
X8727251Y-22904716D01*
X8727251Y-22904716D02*
X8717727Y-22885669D01*
X8717727Y-22885669D02*
X8708203Y-22847574D01*
X8708203Y-22847574D02*
X8708203Y-22799954D01*
X8708203Y-22799954D02*
X8717727Y-22761859D01*
X8717727Y-22761859D02*
X8727251Y-22742812D01*
X8727251Y-22742812D02*
X8736775Y-22733288D01*
X8736775Y-22733288D02*
X8755822Y-22723764D01*
X8908203Y-22904716D02*
X8917727Y-22914240D01*
X8917727Y-22914240D02*
X8908203Y-22923764D01*
X8908203Y-22923764D02*
X8898680Y-22914240D01*
X8898680Y-22914240D02*
X8908203Y-22904716D01*
X8908203Y-22904716D02*
X8908203Y-22923764D01*
X9041537Y-22723764D02*
X9060584Y-22723764D01*
X9060584Y-22723764D02*
X9079632Y-22733288D01*
X9079632Y-22733288D02*
X9089156Y-22742812D01*
X9089156Y-22742812D02*
X9098680Y-22761859D01*
X9098680Y-22761859D02*
X9108203Y-22799954D01*
X9108203Y-22799954D02*
X9108203Y-22847574D01*
X9108203Y-22847574D02*
X9098680Y-22885669D01*
X9098680Y-22885669D02*
X9089156Y-22904716D01*
X9089156Y-22904716D02*
X9079632Y-22914240D01*
X9079632Y-22914240D02*
X9060584Y-22923764D01*
X9060584Y-22923764D02*
X9041537Y-22923764D01*
X9041537Y-22923764D02*
X9022489Y-22914240D01*
X9022489Y-22914240D02*
X9012965Y-22904716D01*
X9012965Y-22904716D02*
X9003441Y-22885669D01*
X9003441Y-22885669D02*
X8993918Y-22847574D01*
X8993918Y-22847574D02*
X8993918Y-22799954D01*
X8993918Y-22799954D02*
X9003441Y-22761859D01*
X9003441Y-22761859D02*
X9012965Y-22742812D01*
X9012965Y-22742812D02*
X9022489Y-22733288D01*
X9022489Y-22733288D02*
X9041537Y-22723764D01*
X9298680Y-22923764D02*
X9184394Y-22923764D01*
X9241537Y-22923764D02*
X9241537Y-22723764D01*
X9241537Y-22723764D02*
X9222489Y-22752335D01*
X9222489Y-22752335D02*
X9203441Y-22771383D01*
X9203441Y-22771383D02*
X9184394Y-22780907D01*
X9393918Y-22923764D02*
X9432013Y-22923764D01*
X9432013Y-22923764D02*
X9451061Y-22914240D01*
X9451061Y-22914240D02*
X9460584Y-22904716D01*
X9460584Y-22904716D02*
X9479632Y-22876145D01*
X9479632Y-22876145D02*
X9489156Y-22838050D01*
X9489156Y-22838050D02*
X9489156Y-22761859D01*
X9489156Y-22761859D02*
X9479632Y-22742812D01*
X9479632Y-22742812D02*
X9470108Y-22733288D01*
X9470108Y-22733288D02*
X9451061Y-22723764D01*
X9451061Y-22723764D02*
X9412965Y-22723764D01*
X9412965Y-22723764D02*
X9393918Y-22733288D01*
X9393918Y-22733288D02*
X9384394Y-22742812D01*
X9384394Y-22742812D02*
X9374870Y-22761859D01*
X9374870Y-22761859D02*
X9374870Y-22809478D01*
X9374870Y-22809478D02*
X9384394Y-22828526D01*
X9384394Y-22828526D02*
X9393918Y-22838050D01*
X9393918Y-22838050D02*
X9412965Y-22847574D01*
X9412965Y-22847574D02*
X9451061Y-22847574D01*
X9451061Y-22847574D02*
X9470108Y-22838050D01*
X9470108Y-22838050D02*
X9479632Y-22828526D01*
X9479632Y-22828526D02*
X9489156Y-22809478D01*
X9555822Y-22723764D02*
X9689156Y-22723764D01*
X9689156Y-22723764D02*
X9603441Y-22923764D01*
X9755822Y-22723764D02*
X9755822Y-22761859D01*
X9832013Y-22723764D02*
X9832013Y-22761859D01*
X10127251Y-22999954D02*
X10117727Y-22990431D01*
X10117727Y-22990431D02*
X10098680Y-22961859D01*
X10098680Y-22961859D02*
X10089156Y-22942812D01*
X10089156Y-22942812D02*
X10079632Y-22914240D01*
X10079632Y-22914240D02*
X10070108Y-22866621D01*
X10070108Y-22866621D02*
X10070108Y-22828526D01*
X10070108Y-22828526D02*
X10079632Y-22780907D01*
X10079632Y-22780907D02*
X10089156Y-22752335D01*
X10089156Y-22752335D02*
X10098680Y-22733288D01*
X10098680Y-22733288D02*
X10117727Y-22704716D01*
X10117727Y-22704716D02*
X10127251Y-22695193D01*
X10184394Y-22723764D02*
X10308203Y-22723764D01*
X10308203Y-22723764D02*
X10241537Y-22799954D01*
X10241537Y-22799954D02*
X10270108Y-22799954D01*
X10270108Y-22799954D02*
X10289156Y-22809478D01*
X10289156Y-22809478D02*
X10298680Y-22819002D01*
X10298680Y-22819002D02*
X10308203Y-22838050D01*
X10308203Y-22838050D02*
X10308203Y-22885669D01*
X10308203Y-22885669D02*
X10298680Y-22904716D01*
X10298680Y-22904716D02*
X10289156Y-22914240D01*
X10289156Y-22914240D02*
X10270108Y-22923764D01*
X10270108Y-22923764D02*
X10212965Y-22923764D01*
X10212965Y-22923764D02*
X10193918Y-22914240D01*
X10193918Y-22914240D02*
X10184394Y-22904716D01*
X10384394Y-22742812D02*
X10393918Y-22733288D01*
X10393918Y-22733288D02*
X10412965Y-22723764D01*
X10412965Y-22723764D02*
X10460584Y-22723764D01*
X10460584Y-22723764D02*
X10479632Y-22733288D01*
X10479632Y-22733288D02*
X10489156Y-22742812D01*
X10489156Y-22742812D02*
X10498680Y-22761859D01*
X10498680Y-22761859D02*
X10498680Y-22780907D01*
X10498680Y-22780907D02*
X10489156Y-22809478D01*
X10489156Y-22809478D02*
X10374870Y-22923764D01*
X10374870Y-22923764D02*
X10498680Y-22923764D01*
X10736775Y-22923764D02*
X10736775Y-22723764D01*
X10822489Y-22923764D02*
X10822489Y-22819002D01*
X10822489Y-22819002D02*
X10812965Y-22799954D01*
X10812965Y-22799954D02*
X10793918Y-22790431D01*
X10793918Y-22790431D02*
X10765346Y-22790431D01*
X10765346Y-22790431D02*
X10746299Y-22799954D01*
X10746299Y-22799954D02*
X10736775Y-22809478D01*
X10946299Y-22923764D02*
X10927251Y-22914240D01*
X10927251Y-22914240D02*
X10917727Y-22904716D01*
X10917727Y-22904716D02*
X10908204Y-22885669D01*
X10908204Y-22885669D02*
X10908204Y-22828526D01*
X10908204Y-22828526D02*
X10917727Y-22809478D01*
X10917727Y-22809478D02*
X10927251Y-22799954D01*
X10927251Y-22799954D02*
X10946299Y-22790431D01*
X10946299Y-22790431D02*
X10974870Y-22790431D01*
X10974870Y-22790431D02*
X10993918Y-22799954D01*
X10993918Y-22799954D02*
X11003442Y-22809478D01*
X11003442Y-22809478D02*
X11012965Y-22828526D01*
X11012965Y-22828526D02*
X11012965Y-22885669D01*
X11012965Y-22885669D02*
X11003442Y-22904716D01*
X11003442Y-22904716D02*
X10993918Y-22914240D01*
X10993918Y-22914240D02*
X10974870Y-22923764D01*
X10974870Y-22923764D02*
X10946299Y-22923764D01*
X11127251Y-22923764D02*
X11108204Y-22914240D01*
X11108204Y-22914240D02*
X11098680Y-22895193D01*
X11098680Y-22895193D02*
X11098680Y-22723764D01*
X11279632Y-22914240D02*
X11260584Y-22923764D01*
X11260584Y-22923764D02*
X11222489Y-22923764D01*
X11222489Y-22923764D02*
X11203442Y-22914240D01*
X11203442Y-22914240D02*
X11193918Y-22895193D01*
X11193918Y-22895193D02*
X11193918Y-22819002D01*
X11193918Y-22819002D02*
X11203442Y-22799954D01*
X11203442Y-22799954D02*
X11222489Y-22790431D01*
X11222489Y-22790431D02*
X11260584Y-22790431D01*
X11260584Y-22790431D02*
X11279632Y-22799954D01*
X11279632Y-22799954D02*
X11289156Y-22819002D01*
X11289156Y-22819002D02*
X11289156Y-22838050D01*
X11289156Y-22838050D02*
X11193918Y-22857097D01*
X11365346Y-22914240D02*
X11384394Y-22923764D01*
X11384394Y-22923764D02*
X11422489Y-22923764D01*
X11422489Y-22923764D02*
X11441537Y-22914240D01*
X11441537Y-22914240D02*
X11451061Y-22895193D01*
X11451061Y-22895193D02*
X11451061Y-22885669D01*
X11451061Y-22885669D02*
X11441537Y-22866621D01*
X11441537Y-22866621D02*
X11422489Y-22857097D01*
X11422489Y-22857097D02*
X11393918Y-22857097D01*
X11393918Y-22857097D02*
X11374870Y-22847574D01*
X11374870Y-22847574D02*
X11365346Y-22828526D01*
X11365346Y-22828526D02*
X11365346Y-22819002D01*
X11365346Y-22819002D02*
X11374870Y-22799954D01*
X11374870Y-22799954D02*
X11393918Y-22790431D01*
X11393918Y-22790431D02*
X11422489Y-22790431D01*
X11422489Y-22790431D02*
X11441537Y-22799954D01*
X11517727Y-22999954D02*
X11527251Y-22990431D01*
X11527251Y-22990431D02*
X11546299Y-22961859D01*
X11546299Y-22961859D02*
X11555823Y-22942812D01*
X11555823Y-22942812D02*
X11565346Y-22914240D01*
X11565346Y-22914240D02*
X11574870Y-22866621D01*
X11574870Y-22866621D02*
X11574870Y-22828526D01*
X11574870Y-22828526D02*
X11565346Y-22780907D01*
X11565346Y-22780907D02*
X11555823Y-22752335D01*
X11555823Y-22752335D02*
X11546299Y-22733288D01*
X11546299Y-22733288D02*
X11527251Y-22704716D01*
X11527251Y-22704716D02*
X11517727Y-22695193D01*
D10*
X6512188Y-23056280D02*
X6512188Y-23136280D01*
X6472188Y-23096280D02*
X6552188Y-23096280D01*
D11*
X6851060Y-22987764D02*
X6870108Y-22987764D01*
X6870108Y-22987764D02*
X6889155Y-22997288D01*
X6889155Y-22997288D02*
X6898679Y-23006812D01*
X6898679Y-23006812D02*
X6908203Y-23025859D01*
X6908203Y-23025859D02*
X6917727Y-23063954D01*
X6917727Y-23063954D02*
X6917727Y-23111574D01*
X6917727Y-23111574D02*
X6908203Y-23149669D01*
X6908203Y-23149669D02*
X6898679Y-23168716D01*
X6898679Y-23168716D02*
X6889155Y-23178240D01*
X6889155Y-23178240D02*
X6870108Y-23187764D01*
X6870108Y-23187764D02*
X6851060Y-23187764D01*
X6851060Y-23187764D02*
X6832013Y-23178240D01*
X6832013Y-23178240D02*
X6822489Y-23168716D01*
X6822489Y-23168716D02*
X6812965Y-23149669D01*
X6812965Y-23149669D02*
X6803441Y-23111574D01*
X6803441Y-23111574D02*
X6803441Y-23063954D01*
X6803441Y-23063954D02*
X6812965Y-23025859D01*
X6812965Y-23025859D02*
X6822489Y-23006812D01*
X6822489Y-23006812D02*
X6832013Y-22997288D01*
X6832013Y-22997288D02*
X6851060Y-22987764D01*
X7003441Y-23168716D02*
X7012965Y-23178240D01*
X7012965Y-23178240D02*
X7003441Y-23187764D01*
X7003441Y-23187764D02*
X6993917Y-23178240D01*
X6993917Y-23178240D02*
X7003441Y-23168716D01*
X7003441Y-23168716D02*
X7003441Y-23187764D01*
X7127251Y-23073478D02*
X7108203Y-23063954D01*
X7108203Y-23063954D02*
X7098679Y-23054431D01*
X7098679Y-23054431D02*
X7089155Y-23035383D01*
X7089155Y-23035383D02*
X7089155Y-23025859D01*
X7089155Y-23025859D02*
X7098679Y-23006812D01*
X7098679Y-23006812D02*
X7108203Y-22997288D01*
X7108203Y-22997288D02*
X7127251Y-22987764D01*
X7127251Y-22987764D02*
X7165346Y-22987764D01*
X7165346Y-22987764D02*
X7184394Y-22997288D01*
X7184394Y-22997288D02*
X7193917Y-23006812D01*
X7193917Y-23006812D02*
X7203441Y-23025859D01*
X7203441Y-23025859D02*
X7203441Y-23035383D01*
X7203441Y-23035383D02*
X7193917Y-23054431D01*
X7193917Y-23054431D02*
X7184394Y-23063954D01*
X7184394Y-23063954D02*
X7165346Y-23073478D01*
X7165346Y-23073478D02*
X7127251Y-23073478D01*
X7127251Y-23073478D02*
X7108203Y-23083002D01*
X7108203Y-23083002D02*
X7098679Y-23092526D01*
X7098679Y-23092526D02*
X7089155Y-23111574D01*
X7089155Y-23111574D02*
X7089155Y-23149669D01*
X7089155Y-23149669D02*
X7098679Y-23168716D01*
X7098679Y-23168716D02*
X7108203Y-23178240D01*
X7108203Y-23178240D02*
X7127251Y-23187764D01*
X7127251Y-23187764D02*
X7165346Y-23187764D01*
X7165346Y-23187764D02*
X7184394Y-23178240D01*
X7184394Y-23178240D02*
X7193917Y-23168716D01*
X7193917Y-23168716D02*
X7203441Y-23149669D01*
X7203441Y-23149669D02*
X7203441Y-23111574D01*
X7203441Y-23111574D02*
X7193917Y-23092526D01*
X7193917Y-23092526D02*
X7184394Y-23083002D01*
X7184394Y-23083002D02*
X7165346Y-23073478D01*
X7327251Y-22987764D02*
X7346298Y-22987764D01*
X7346298Y-22987764D02*
X7365346Y-22997288D01*
X7365346Y-22997288D02*
X7374870Y-23006812D01*
X7374870Y-23006812D02*
X7384394Y-23025859D01*
X7384394Y-23025859D02*
X7393917Y-23063954D01*
X7393917Y-23063954D02*
X7393917Y-23111574D01*
X7393917Y-23111574D02*
X7384394Y-23149669D01*
X7384394Y-23149669D02*
X7374870Y-23168716D01*
X7374870Y-23168716D02*
X7365346Y-23178240D01*
X7365346Y-23178240D02*
X7346298Y-23187764D01*
X7346298Y-23187764D02*
X7327251Y-23187764D01*
X7327251Y-23187764D02*
X7308203Y-23178240D01*
X7308203Y-23178240D02*
X7298679Y-23168716D01*
X7298679Y-23168716D02*
X7289155Y-23149669D01*
X7289155Y-23149669D02*
X7279632Y-23111574D01*
X7279632Y-23111574D02*
X7279632Y-23063954D01*
X7279632Y-23063954D02*
X7289155Y-23025859D01*
X7289155Y-23025859D02*
X7298679Y-23006812D01*
X7298679Y-23006812D02*
X7308203Y-22997288D01*
X7308203Y-22997288D02*
X7327251Y-22987764D01*
X7517727Y-22987764D02*
X7536775Y-22987764D01*
X7536775Y-22987764D02*
X7555822Y-22997288D01*
X7555822Y-22997288D02*
X7565346Y-23006812D01*
X7565346Y-23006812D02*
X7574870Y-23025859D01*
X7574870Y-23025859D02*
X7584394Y-23063954D01*
X7584394Y-23063954D02*
X7584394Y-23111574D01*
X7584394Y-23111574D02*
X7574870Y-23149669D01*
X7574870Y-23149669D02*
X7565346Y-23168716D01*
X7565346Y-23168716D02*
X7555822Y-23178240D01*
X7555822Y-23178240D02*
X7536775Y-23187764D01*
X7536775Y-23187764D02*
X7517727Y-23187764D01*
X7517727Y-23187764D02*
X7498679Y-23178240D01*
X7498679Y-23178240D02*
X7489155Y-23168716D01*
X7489155Y-23168716D02*
X7479632Y-23149669D01*
X7479632Y-23149669D02*
X7470108Y-23111574D01*
X7470108Y-23111574D02*
X7470108Y-23063954D01*
X7470108Y-23063954D02*
X7479632Y-23025859D01*
X7479632Y-23025859D02*
X7489155Y-23006812D01*
X7489155Y-23006812D02*
X7498679Y-22997288D01*
X7498679Y-22997288D02*
X7517727Y-22987764D01*
X7670108Y-23187764D02*
X7670108Y-23054431D01*
X7670108Y-23073478D02*
X7679632Y-23063954D01*
X7679632Y-23063954D02*
X7698679Y-23054431D01*
X7698679Y-23054431D02*
X7727251Y-23054431D01*
X7727251Y-23054431D02*
X7746298Y-23063954D01*
X7746298Y-23063954D02*
X7755822Y-23083002D01*
X7755822Y-23083002D02*
X7755822Y-23187764D01*
X7755822Y-23083002D02*
X7765346Y-23063954D01*
X7765346Y-23063954D02*
X7784394Y-23054431D01*
X7784394Y-23054431D02*
X7812965Y-23054431D01*
X7812965Y-23054431D02*
X7832013Y-23063954D01*
X7832013Y-23063954D02*
X7841536Y-23083002D01*
X7841536Y-23083002D02*
X7841536Y-23187764D01*
X7936775Y-23187764D02*
X7936775Y-23054431D01*
X7936775Y-23073478D02*
X7946298Y-23063954D01*
X7946298Y-23063954D02*
X7965346Y-23054431D01*
X7965346Y-23054431D02*
X7993917Y-23054431D01*
X7993917Y-23054431D02*
X8012965Y-23063954D01*
X8012965Y-23063954D02*
X8022489Y-23083002D01*
X8022489Y-23083002D02*
X8022489Y-23187764D01*
X8022489Y-23083002D02*
X8032013Y-23063954D01*
X8032013Y-23063954D02*
X8051060Y-23054431D01*
X8051060Y-23054431D02*
X8079632Y-23054431D01*
X8079632Y-23054431D02*
X8098679Y-23063954D01*
X8098679Y-23063954D02*
X8108203Y-23083002D01*
X8108203Y-23083002D02*
X8108203Y-23187764D01*
X8498679Y-22978240D02*
X8327251Y-23235383D01*
X8755822Y-22987764D02*
X8774870Y-22987764D01*
X8774870Y-22987764D02*
X8793918Y-22997288D01*
X8793918Y-22997288D02*
X8803441Y-23006812D01*
X8803441Y-23006812D02*
X8812965Y-23025859D01*
X8812965Y-23025859D02*
X8822489Y-23063954D01*
X8822489Y-23063954D02*
X8822489Y-23111574D01*
X8822489Y-23111574D02*
X8812965Y-23149669D01*
X8812965Y-23149669D02*
X8803441Y-23168716D01*
X8803441Y-23168716D02*
X8793918Y-23178240D01*
X8793918Y-23178240D02*
X8774870Y-23187764D01*
X8774870Y-23187764D02*
X8755822Y-23187764D01*
X8755822Y-23187764D02*
X8736775Y-23178240D01*
X8736775Y-23178240D02*
X8727251Y-23168716D01*
X8727251Y-23168716D02*
X8717727Y-23149669D01*
X8717727Y-23149669D02*
X8708203Y-23111574D01*
X8708203Y-23111574D02*
X8708203Y-23063954D01*
X8708203Y-23063954D02*
X8717727Y-23025859D01*
X8717727Y-23025859D02*
X8727251Y-23006812D01*
X8727251Y-23006812D02*
X8736775Y-22997288D01*
X8736775Y-22997288D02*
X8755822Y-22987764D01*
X8908203Y-23168716D02*
X8917727Y-23178240D01*
X8917727Y-23178240D02*
X8908203Y-23187764D01*
X8908203Y-23187764D02*
X8898680Y-23178240D01*
X8898680Y-23178240D02*
X8908203Y-23168716D01*
X8908203Y-23168716D02*
X8908203Y-23187764D01*
X9041537Y-22987764D02*
X9060584Y-22987764D01*
X9060584Y-22987764D02*
X9079632Y-22997288D01*
X9079632Y-22997288D02*
X9089156Y-23006812D01*
X9089156Y-23006812D02*
X9098680Y-23025859D01*
X9098680Y-23025859D02*
X9108203Y-23063954D01*
X9108203Y-23063954D02*
X9108203Y-23111574D01*
X9108203Y-23111574D02*
X9098680Y-23149669D01*
X9098680Y-23149669D02*
X9089156Y-23168716D01*
X9089156Y-23168716D02*
X9079632Y-23178240D01*
X9079632Y-23178240D02*
X9060584Y-23187764D01*
X9060584Y-23187764D02*
X9041537Y-23187764D01*
X9041537Y-23187764D02*
X9022489Y-23178240D01*
X9022489Y-23178240D02*
X9012965Y-23168716D01*
X9012965Y-23168716D02*
X9003441Y-23149669D01*
X9003441Y-23149669D02*
X8993918Y-23111574D01*
X8993918Y-23111574D02*
X8993918Y-23063954D01*
X8993918Y-23063954D02*
X9003441Y-23025859D01*
X9003441Y-23025859D02*
X9012965Y-23006812D01*
X9012965Y-23006812D02*
X9022489Y-22997288D01*
X9022489Y-22997288D02*
X9041537Y-22987764D01*
X9174870Y-22987764D02*
X9298680Y-22987764D01*
X9298680Y-22987764D02*
X9232013Y-23063954D01*
X9232013Y-23063954D02*
X9260584Y-23063954D01*
X9260584Y-23063954D02*
X9279632Y-23073478D01*
X9279632Y-23073478D02*
X9289156Y-23083002D01*
X9289156Y-23083002D02*
X9298680Y-23102050D01*
X9298680Y-23102050D02*
X9298680Y-23149669D01*
X9298680Y-23149669D02*
X9289156Y-23168716D01*
X9289156Y-23168716D02*
X9279632Y-23178240D01*
X9279632Y-23178240D02*
X9260584Y-23187764D01*
X9260584Y-23187764D02*
X9203441Y-23187764D01*
X9203441Y-23187764D02*
X9184394Y-23178240D01*
X9184394Y-23178240D02*
X9174870Y-23168716D01*
X9489156Y-23187764D02*
X9374870Y-23187764D01*
X9432013Y-23187764D02*
X9432013Y-22987764D01*
X9432013Y-22987764D02*
X9412965Y-23016335D01*
X9412965Y-23016335D02*
X9393918Y-23035383D01*
X9393918Y-23035383D02*
X9374870Y-23044907D01*
X9670108Y-22987764D02*
X9574870Y-22987764D01*
X9574870Y-22987764D02*
X9565346Y-23083002D01*
X9565346Y-23083002D02*
X9574870Y-23073478D01*
X9574870Y-23073478D02*
X9593918Y-23063954D01*
X9593918Y-23063954D02*
X9641537Y-23063954D01*
X9641537Y-23063954D02*
X9660584Y-23073478D01*
X9660584Y-23073478D02*
X9670108Y-23083002D01*
X9670108Y-23083002D02*
X9679632Y-23102050D01*
X9679632Y-23102050D02*
X9679632Y-23149669D01*
X9679632Y-23149669D02*
X9670108Y-23168716D01*
X9670108Y-23168716D02*
X9660584Y-23178240D01*
X9660584Y-23178240D02*
X9641537Y-23187764D01*
X9641537Y-23187764D02*
X9593918Y-23187764D01*
X9593918Y-23187764D02*
X9574870Y-23178240D01*
X9574870Y-23178240D02*
X9565346Y-23168716D01*
X9755822Y-22987764D02*
X9755822Y-23025859D01*
X9832013Y-22987764D02*
X9832013Y-23025859D01*
X10127251Y-23263954D02*
X10117727Y-23254431D01*
X10117727Y-23254431D02*
X10098680Y-23225859D01*
X10098680Y-23225859D02*
X10089156Y-23206812D01*
X10089156Y-23206812D02*
X10079632Y-23178240D01*
X10079632Y-23178240D02*
X10070108Y-23130621D01*
X10070108Y-23130621D02*
X10070108Y-23092526D01*
X10070108Y-23092526D02*
X10079632Y-23044907D01*
X10079632Y-23044907D02*
X10089156Y-23016335D01*
X10089156Y-23016335D02*
X10098680Y-22997288D01*
X10098680Y-22997288D02*
X10117727Y-22968716D01*
X10117727Y-22968716D02*
X10127251Y-22959193D01*
X10193918Y-23006812D02*
X10203442Y-22997288D01*
X10203442Y-22997288D02*
X10222489Y-22987764D01*
X10222489Y-22987764D02*
X10270108Y-22987764D01*
X10270108Y-22987764D02*
X10289156Y-22997288D01*
X10289156Y-22997288D02*
X10298680Y-23006812D01*
X10298680Y-23006812D02*
X10308203Y-23025859D01*
X10308203Y-23025859D02*
X10308203Y-23044907D01*
X10308203Y-23044907D02*
X10298680Y-23073478D01*
X10298680Y-23073478D02*
X10184394Y-23187764D01*
X10184394Y-23187764D02*
X10308203Y-23187764D01*
X10422489Y-23073478D02*
X10403442Y-23063954D01*
X10403442Y-23063954D02*
X10393918Y-23054431D01*
X10393918Y-23054431D02*
X10384394Y-23035383D01*
X10384394Y-23035383D02*
X10384394Y-23025859D01*
X10384394Y-23025859D02*
X10393918Y-23006812D01*
X10393918Y-23006812D02*
X10403442Y-22997288D01*
X10403442Y-22997288D02*
X10422489Y-22987764D01*
X10422489Y-22987764D02*
X10460584Y-22987764D01*
X10460584Y-22987764D02*
X10479632Y-22997288D01*
X10479632Y-22997288D02*
X10489156Y-23006812D01*
X10489156Y-23006812D02*
X10498680Y-23025859D01*
X10498680Y-23025859D02*
X10498680Y-23035383D01*
X10498680Y-23035383D02*
X10489156Y-23054431D01*
X10489156Y-23054431D02*
X10479632Y-23063954D01*
X10479632Y-23063954D02*
X10460584Y-23073478D01*
X10460584Y-23073478D02*
X10422489Y-23073478D01*
X10422489Y-23073478D02*
X10403442Y-23083002D01*
X10403442Y-23083002D02*
X10393918Y-23092526D01*
X10393918Y-23092526D02*
X10384394Y-23111574D01*
X10384394Y-23111574D02*
X10384394Y-23149669D01*
X10384394Y-23149669D02*
X10393918Y-23168716D01*
X10393918Y-23168716D02*
X10403442Y-23178240D01*
X10403442Y-23178240D02*
X10422489Y-23187764D01*
X10422489Y-23187764D02*
X10460584Y-23187764D01*
X10460584Y-23187764D02*
X10479632Y-23178240D01*
X10479632Y-23178240D02*
X10489156Y-23168716D01*
X10489156Y-23168716D02*
X10498680Y-23149669D01*
X10498680Y-23149669D02*
X10498680Y-23111574D01*
X10498680Y-23111574D02*
X10489156Y-23092526D01*
X10489156Y-23092526D02*
X10479632Y-23083002D01*
X10479632Y-23083002D02*
X10460584Y-23073478D01*
X10736775Y-23187764D02*
X10736775Y-22987764D01*
X10822489Y-23187764D02*
X10822489Y-23083002D01*
X10822489Y-23083002D02*
X10812965Y-23063954D01*
X10812965Y-23063954D02*
X10793918Y-23054431D01*
X10793918Y-23054431D02*
X10765346Y-23054431D01*
X10765346Y-23054431D02*
X10746299Y-23063954D01*
X10746299Y-23063954D02*
X10736775Y-23073478D01*
X10946299Y-23187764D02*
X10927251Y-23178240D01*
X10927251Y-23178240D02*
X10917727Y-23168716D01*
X10917727Y-23168716D02*
X10908204Y-23149669D01*
X10908204Y-23149669D02*
X10908204Y-23092526D01*
X10908204Y-23092526D02*
X10917727Y-23073478D01*
X10917727Y-23073478D02*
X10927251Y-23063954D01*
X10927251Y-23063954D02*
X10946299Y-23054431D01*
X10946299Y-23054431D02*
X10974870Y-23054431D01*
X10974870Y-23054431D02*
X10993918Y-23063954D01*
X10993918Y-23063954D02*
X11003442Y-23073478D01*
X11003442Y-23073478D02*
X11012965Y-23092526D01*
X11012965Y-23092526D02*
X11012965Y-23149669D01*
X11012965Y-23149669D02*
X11003442Y-23168716D01*
X11003442Y-23168716D02*
X10993918Y-23178240D01*
X10993918Y-23178240D02*
X10974870Y-23187764D01*
X10974870Y-23187764D02*
X10946299Y-23187764D01*
X11127251Y-23187764D02*
X11108204Y-23178240D01*
X11108204Y-23178240D02*
X11098680Y-23159193D01*
X11098680Y-23159193D02*
X11098680Y-22987764D01*
X11279632Y-23178240D02*
X11260584Y-23187764D01*
X11260584Y-23187764D02*
X11222489Y-23187764D01*
X11222489Y-23187764D02*
X11203442Y-23178240D01*
X11203442Y-23178240D02*
X11193918Y-23159193D01*
X11193918Y-23159193D02*
X11193918Y-23083002D01*
X11193918Y-23083002D02*
X11203442Y-23063954D01*
X11203442Y-23063954D02*
X11222489Y-23054431D01*
X11222489Y-23054431D02*
X11260584Y-23054431D01*
X11260584Y-23054431D02*
X11279632Y-23063954D01*
X11279632Y-23063954D02*
X11289156Y-23083002D01*
X11289156Y-23083002D02*
X11289156Y-23102050D01*
X11289156Y-23102050D02*
X11193918Y-23121097D01*
X11365346Y-23178240D02*
X11384394Y-23187764D01*
X11384394Y-23187764D02*
X11422489Y-23187764D01*
X11422489Y-23187764D02*
X11441537Y-23178240D01*
X11441537Y-23178240D02*
X11451061Y-23159193D01*
X11451061Y-23159193D02*
X11451061Y-23149669D01*
X11451061Y-23149669D02*
X11441537Y-23130621D01*
X11441537Y-23130621D02*
X11422489Y-23121097D01*
X11422489Y-23121097D02*
X11393918Y-23121097D01*
X11393918Y-23121097D02*
X11374870Y-23111574D01*
X11374870Y-23111574D02*
X11365346Y-23092526D01*
X11365346Y-23092526D02*
X11365346Y-23083002D01*
X11365346Y-23083002D02*
X11374870Y-23063954D01*
X11374870Y-23063954D02*
X11393918Y-23054431D01*
X11393918Y-23054431D02*
X11422489Y-23054431D01*
X11422489Y-23054431D02*
X11441537Y-23063954D01*
X11517727Y-23263954D02*
X11527251Y-23254431D01*
X11527251Y-23254431D02*
X11546299Y-23225859D01*
X11546299Y-23225859D02*
X11555823Y-23206812D01*
X11555823Y-23206812D02*
X11565346Y-23178240D01*
X11565346Y-23178240D02*
X11574870Y-23130621D01*
X11574870Y-23130621D02*
X11574870Y-23092526D01*
X11574870Y-23092526D02*
X11565346Y-23044907D01*
X11565346Y-23044907D02*
X11555823Y-23016335D01*
X11555823Y-23016335D02*
X11546299Y-22997288D01*
X11546299Y-22997288D02*
X11527251Y-22968716D01*
X11527251Y-22968716D02*
X11517727Y-22959193D01*
D10*
X6537544Y-23395636D02*
X6537544Y-23324925D01*
X6466832Y-23324925D01*
X6466832Y-23395636D01*
X6537544Y-23395636D01*
D11*
X6917727Y-23451764D02*
X6803441Y-23451764D01*
X6860584Y-23451764D02*
X6860584Y-23251764D01*
X6860584Y-23251764D02*
X6841536Y-23280335D01*
X6841536Y-23280335D02*
X6822489Y-23299383D01*
X6822489Y-23299383D02*
X6803441Y-23308907D01*
X7003441Y-23432716D02*
X7012965Y-23442240D01*
X7012965Y-23442240D02*
X7003441Y-23451764D01*
X7003441Y-23451764D02*
X6993917Y-23442240D01*
X6993917Y-23442240D02*
X7003441Y-23432716D01*
X7003441Y-23432716D02*
X7003441Y-23451764D01*
X7136774Y-23251764D02*
X7155822Y-23251764D01*
X7155822Y-23251764D02*
X7174870Y-23261288D01*
X7174870Y-23261288D02*
X7184394Y-23270812D01*
X7184394Y-23270812D02*
X7193917Y-23289859D01*
X7193917Y-23289859D02*
X7203441Y-23327954D01*
X7203441Y-23327954D02*
X7203441Y-23375574D01*
X7203441Y-23375574D02*
X7193917Y-23413669D01*
X7193917Y-23413669D02*
X7184394Y-23432716D01*
X7184394Y-23432716D02*
X7174870Y-23442240D01*
X7174870Y-23442240D02*
X7155822Y-23451764D01*
X7155822Y-23451764D02*
X7136774Y-23451764D01*
X7136774Y-23451764D02*
X7117727Y-23442240D01*
X7117727Y-23442240D02*
X7108203Y-23432716D01*
X7108203Y-23432716D02*
X7098679Y-23413669D01*
X7098679Y-23413669D02*
X7089155Y-23375574D01*
X7089155Y-23375574D02*
X7089155Y-23327954D01*
X7089155Y-23327954D02*
X7098679Y-23289859D01*
X7098679Y-23289859D02*
X7108203Y-23270812D01*
X7108203Y-23270812D02*
X7117727Y-23261288D01*
X7117727Y-23261288D02*
X7136774Y-23251764D01*
X7327251Y-23251764D02*
X7346298Y-23251764D01*
X7346298Y-23251764D02*
X7365346Y-23261288D01*
X7365346Y-23261288D02*
X7374870Y-23270812D01*
X7374870Y-23270812D02*
X7384394Y-23289859D01*
X7384394Y-23289859D02*
X7393917Y-23327954D01*
X7393917Y-23327954D02*
X7393917Y-23375574D01*
X7393917Y-23375574D02*
X7384394Y-23413669D01*
X7384394Y-23413669D02*
X7374870Y-23432716D01*
X7374870Y-23432716D02*
X7365346Y-23442240D01*
X7365346Y-23442240D02*
X7346298Y-23451764D01*
X7346298Y-23451764D02*
X7327251Y-23451764D01*
X7327251Y-23451764D02*
X7308203Y-23442240D01*
X7308203Y-23442240D02*
X7298679Y-23432716D01*
X7298679Y-23432716D02*
X7289155Y-23413669D01*
X7289155Y-23413669D02*
X7279632Y-23375574D01*
X7279632Y-23375574D02*
X7279632Y-23327954D01*
X7279632Y-23327954D02*
X7289155Y-23289859D01*
X7289155Y-23289859D02*
X7298679Y-23270812D01*
X7298679Y-23270812D02*
X7308203Y-23261288D01*
X7308203Y-23261288D02*
X7327251Y-23251764D01*
X7517727Y-23251764D02*
X7536775Y-23251764D01*
X7536775Y-23251764D02*
X7555822Y-23261288D01*
X7555822Y-23261288D02*
X7565346Y-23270812D01*
X7565346Y-23270812D02*
X7574870Y-23289859D01*
X7574870Y-23289859D02*
X7584394Y-23327954D01*
X7584394Y-23327954D02*
X7584394Y-23375574D01*
X7584394Y-23375574D02*
X7574870Y-23413669D01*
X7574870Y-23413669D02*
X7565346Y-23432716D01*
X7565346Y-23432716D02*
X7555822Y-23442240D01*
X7555822Y-23442240D02*
X7536775Y-23451764D01*
X7536775Y-23451764D02*
X7517727Y-23451764D01*
X7517727Y-23451764D02*
X7498679Y-23442240D01*
X7498679Y-23442240D02*
X7489155Y-23432716D01*
X7489155Y-23432716D02*
X7479632Y-23413669D01*
X7479632Y-23413669D02*
X7470108Y-23375574D01*
X7470108Y-23375574D02*
X7470108Y-23327954D01*
X7470108Y-23327954D02*
X7479632Y-23289859D01*
X7479632Y-23289859D02*
X7489155Y-23270812D01*
X7489155Y-23270812D02*
X7498679Y-23261288D01*
X7498679Y-23261288D02*
X7517727Y-23251764D01*
X7670108Y-23451764D02*
X7670108Y-23318431D01*
X7670108Y-23337478D02*
X7679632Y-23327954D01*
X7679632Y-23327954D02*
X7698679Y-23318431D01*
X7698679Y-23318431D02*
X7727251Y-23318431D01*
X7727251Y-23318431D02*
X7746298Y-23327954D01*
X7746298Y-23327954D02*
X7755822Y-23347002D01*
X7755822Y-23347002D02*
X7755822Y-23451764D01*
X7755822Y-23347002D02*
X7765346Y-23327954D01*
X7765346Y-23327954D02*
X7784394Y-23318431D01*
X7784394Y-23318431D02*
X7812965Y-23318431D01*
X7812965Y-23318431D02*
X7832013Y-23327954D01*
X7832013Y-23327954D02*
X7841536Y-23347002D01*
X7841536Y-23347002D02*
X7841536Y-23451764D01*
X7936775Y-23451764D02*
X7936775Y-23318431D01*
X7936775Y-23337478D02*
X7946298Y-23327954D01*
X7946298Y-23327954D02*
X7965346Y-23318431D01*
X7965346Y-23318431D02*
X7993917Y-23318431D01*
X7993917Y-23318431D02*
X8012965Y-23327954D01*
X8012965Y-23327954D02*
X8022489Y-23347002D01*
X8022489Y-23347002D02*
X8022489Y-23451764D01*
X8022489Y-23347002D02*
X8032013Y-23327954D01*
X8032013Y-23327954D02*
X8051060Y-23318431D01*
X8051060Y-23318431D02*
X8079632Y-23318431D01*
X8079632Y-23318431D02*
X8098679Y-23327954D01*
X8098679Y-23327954D02*
X8108203Y-23347002D01*
X8108203Y-23347002D02*
X8108203Y-23451764D01*
X8498679Y-23242240D02*
X8327251Y-23499383D01*
X8755822Y-23251764D02*
X8774870Y-23251764D01*
X8774870Y-23251764D02*
X8793918Y-23261288D01*
X8793918Y-23261288D02*
X8803441Y-23270812D01*
X8803441Y-23270812D02*
X8812965Y-23289859D01*
X8812965Y-23289859D02*
X8822489Y-23327954D01*
X8822489Y-23327954D02*
X8822489Y-23375574D01*
X8822489Y-23375574D02*
X8812965Y-23413669D01*
X8812965Y-23413669D02*
X8803441Y-23432716D01*
X8803441Y-23432716D02*
X8793918Y-23442240D01*
X8793918Y-23442240D02*
X8774870Y-23451764D01*
X8774870Y-23451764D02*
X8755822Y-23451764D01*
X8755822Y-23451764D02*
X8736775Y-23442240D01*
X8736775Y-23442240D02*
X8727251Y-23432716D01*
X8727251Y-23432716D02*
X8717727Y-23413669D01*
X8717727Y-23413669D02*
X8708203Y-23375574D01*
X8708203Y-23375574D02*
X8708203Y-23327954D01*
X8708203Y-23327954D02*
X8717727Y-23289859D01*
X8717727Y-23289859D02*
X8727251Y-23270812D01*
X8727251Y-23270812D02*
X8736775Y-23261288D01*
X8736775Y-23261288D02*
X8755822Y-23251764D01*
X8908203Y-23432716D02*
X8917727Y-23442240D01*
X8917727Y-23442240D02*
X8908203Y-23451764D01*
X8908203Y-23451764D02*
X8898680Y-23442240D01*
X8898680Y-23442240D02*
X8908203Y-23432716D01*
X8908203Y-23432716D02*
X8908203Y-23451764D01*
X9041537Y-23251764D02*
X9060584Y-23251764D01*
X9060584Y-23251764D02*
X9079632Y-23261288D01*
X9079632Y-23261288D02*
X9089156Y-23270812D01*
X9089156Y-23270812D02*
X9098680Y-23289859D01*
X9098680Y-23289859D02*
X9108203Y-23327954D01*
X9108203Y-23327954D02*
X9108203Y-23375574D01*
X9108203Y-23375574D02*
X9098680Y-23413669D01*
X9098680Y-23413669D02*
X9089156Y-23432716D01*
X9089156Y-23432716D02*
X9079632Y-23442240D01*
X9079632Y-23442240D02*
X9060584Y-23451764D01*
X9060584Y-23451764D02*
X9041537Y-23451764D01*
X9041537Y-23451764D02*
X9022489Y-23442240D01*
X9022489Y-23442240D02*
X9012965Y-23432716D01*
X9012965Y-23432716D02*
X9003441Y-23413669D01*
X9003441Y-23413669D02*
X8993918Y-23375574D01*
X8993918Y-23375574D02*
X8993918Y-23327954D01*
X8993918Y-23327954D02*
X9003441Y-23289859D01*
X9003441Y-23289859D02*
X9012965Y-23270812D01*
X9012965Y-23270812D02*
X9022489Y-23261288D01*
X9022489Y-23261288D02*
X9041537Y-23251764D01*
X9174870Y-23251764D02*
X9298680Y-23251764D01*
X9298680Y-23251764D02*
X9232013Y-23327954D01*
X9232013Y-23327954D02*
X9260584Y-23327954D01*
X9260584Y-23327954D02*
X9279632Y-23337478D01*
X9279632Y-23337478D02*
X9289156Y-23347002D01*
X9289156Y-23347002D02*
X9298680Y-23366050D01*
X9298680Y-23366050D02*
X9298680Y-23413669D01*
X9298680Y-23413669D02*
X9289156Y-23432716D01*
X9289156Y-23432716D02*
X9279632Y-23442240D01*
X9279632Y-23442240D02*
X9260584Y-23451764D01*
X9260584Y-23451764D02*
X9203441Y-23451764D01*
X9203441Y-23451764D02*
X9184394Y-23442240D01*
X9184394Y-23442240D02*
X9174870Y-23432716D01*
X9393918Y-23451764D02*
X9432013Y-23451764D01*
X9432013Y-23451764D02*
X9451061Y-23442240D01*
X9451061Y-23442240D02*
X9460584Y-23432716D01*
X9460584Y-23432716D02*
X9479632Y-23404145D01*
X9479632Y-23404145D02*
X9489156Y-23366050D01*
X9489156Y-23366050D02*
X9489156Y-23289859D01*
X9489156Y-23289859D02*
X9479632Y-23270812D01*
X9479632Y-23270812D02*
X9470108Y-23261288D01*
X9470108Y-23261288D02*
X9451061Y-23251764D01*
X9451061Y-23251764D02*
X9412965Y-23251764D01*
X9412965Y-23251764D02*
X9393918Y-23261288D01*
X9393918Y-23261288D02*
X9384394Y-23270812D01*
X9384394Y-23270812D02*
X9374870Y-23289859D01*
X9374870Y-23289859D02*
X9374870Y-23337478D01*
X9374870Y-23337478D02*
X9384394Y-23356526D01*
X9384394Y-23356526D02*
X9393918Y-23366050D01*
X9393918Y-23366050D02*
X9412965Y-23375574D01*
X9412965Y-23375574D02*
X9451061Y-23375574D01*
X9451061Y-23375574D02*
X9470108Y-23366050D01*
X9470108Y-23366050D02*
X9479632Y-23356526D01*
X9479632Y-23356526D02*
X9489156Y-23337478D01*
X9660584Y-23318431D02*
X9660584Y-23451764D01*
X9612965Y-23242240D02*
X9565346Y-23385097D01*
X9565346Y-23385097D02*
X9689156Y-23385097D01*
X9755822Y-23251764D02*
X9755822Y-23289859D01*
X9832013Y-23251764D02*
X9832013Y-23289859D01*
X10127251Y-23527954D02*
X10117727Y-23518431D01*
X10117727Y-23518431D02*
X10098680Y-23489859D01*
X10098680Y-23489859D02*
X10089156Y-23470812D01*
X10089156Y-23470812D02*
X10079632Y-23442240D01*
X10079632Y-23442240D02*
X10070108Y-23394621D01*
X10070108Y-23394621D02*
X10070108Y-23356526D01*
X10070108Y-23356526D02*
X10079632Y-23308907D01*
X10079632Y-23308907D02*
X10089156Y-23280335D01*
X10089156Y-23280335D02*
X10098680Y-23261288D01*
X10098680Y-23261288D02*
X10117727Y-23232716D01*
X10117727Y-23232716D02*
X10127251Y-23223193D01*
X10308203Y-23451764D02*
X10193918Y-23451764D01*
X10251061Y-23451764D02*
X10251061Y-23251764D01*
X10251061Y-23251764D02*
X10232013Y-23280335D01*
X10232013Y-23280335D02*
X10212965Y-23299383D01*
X10212965Y-23299383D02*
X10193918Y-23308907D01*
X10432013Y-23251764D02*
X10451061Y-23251764D01*
X10451061Y-23251764D02*
X10470108Y-23261288D01*
X10470108Y-23261288D02*
X10479632Y-23270812D01*
X10479632Y-23270812D02*
X10489156Y-23289859D01*
X10489156Y-23289859D02*
X10498680Y-23327954D01*
X10498680Y-23327954D02*
X10498680Y-23375574D01*
X10498680Y-23375574D02*
X10489156Y-23413669D01*
X10489156Y-23413669D02*
X10479632Y-23432716D01*
X10479632Y-23432716D02*
X10470108Y-23442240D01*
X10470108Y-23442240D02*
X10451061Y-23451764D01*
X10451061Y-23451764D02*
X10432013Y-23451764D01*
X10432013Y-23451764D02*
X10412965Y-23442240D01*
X10412965Y-23442240D02*
X10403442Y-23432716D01*
X10403442Y-23432716D02*
X10393918Y-23413669D01*
X10393918Y-23413669D02*
X10384394Y-23375574D01*
X10384394Y-23375574D02*
X10384394Y-23327954D01*
X10384394Y-23327954D02*
X10393918Y-23289859D01*
X10393918Y-23289859D02*
X10403442Y-23270812D01*
X10403442Y-23270812D02*
X10412965Y-23261288D01*
X10412965Y-23261288D02*
X10432013Y-23251764D01*
X10736775Y-23451764D02*
X10736775Y-23251764D01*
X10822489Y-23451764D02*
X10822489Y-23347002D01*
X10822489Y-23347002D02*
X10812965Y-23327954D01*
X10812965Y-23327954D02*
X10793918Y-23318431D01*
X10793918Y-23318431D02*
X10765346Y-23318431D01*
X10765346Y-23318431D02*
X10746299Y-23327954D01*
X10746299Y-23327954D02*
X10736775Y-23337478D01*
X10946299Y-23451764D02*
X10927251Y-23442240D01*
X10927251Y-23442240D02*
X10917727Y-23432716D01*
X10917727Y-23432716D02*
X10908204Y-23413669D01*
X10908204Y-23413669D02*
X10908204Y-23356526D01*
X10908204Y-23356526D02*
X10917727Y-23337478D01*
X10917727Y-23337478D02*
X10927251Y-23327954D01*
X10927251Y-23327954D02*
X10946299Y-23318431D01*
X10946299Y-23318431D02*
X10974870Y-23318431D01*
X10974870Y-23318431D02*
X10993918Y-23327954D01*
X10993918Y-23327954D02*
X11003442Y-23337478D01*
X11003442Y-23337478D02*
X11012965Y-23356526D01*
X11012965Y-23356526D02*
X11012965Y-23413669D01*
X11012965Y-23413669D02*
X11003442Y-23432716D01*
X11003442Y-23432716D02*
X10993918Y-23442240D01*
X10993918Y-23442240D02*
X10974870Y-23451764D01*
X10974870Y-23451764D02*
X10946299Y-23451764D01*
X11127251Y-23451764D02*
X11108204Y-23442240D01*
X11108204Y-23442240D02*
X11098680Y-23423193D01*
X11098680Y-23423193D02*
X11098680Y-23251764D01*
X11279632Y-23442240D02*
X11260584Y-23451764D01*
X11260584Y-23451764D02*
X11222489Y-23451764D01*
X11222489Y-23451764D02*
X11203442Y-23442240D01*
X11203442Y-23442240D02*
X11193918Y-23423193D01*
X11193918Y-23423193D02*
X11193918Y-23347002D01*
X11193918Y-23347002D02*
X11203442Y-23327954D01*
X11203442Y-23327954D02*
X11222489Y-23318431D01*
X11222489Y-23318431D02*
X11260584Y-23318431D01*
X11260584Y-23318431D02*
X11279632Y-23327954D01*
X11279632Y-23327954D02*
X11289156Y-23347002D01*
X11289156Y-23347002D02*
X11289156Y-23366050D01*
X11289156Y-23366050D02*
X11193918Y-23385097D01*
X11365346Y-23442240D02*
X11384394Y-23451764D01*
X11384394Y-23451764D02*
X11422489Y-23451764D01*
X11422489Y-23451764D02*
X11441537Y-23442240D01*
X11441537Y-23442240D02*
X11451061Y-23423193D01*
X11451061Y-23423193D02*
X11451061Y-23413669D01*
X11451061Y-23413669D02*
X11441537Y-23394621D01*
X11441537Y-23394621D02*
X11422489Y-23385097D01*
X11422489Y-23385097D02*
X11393918Y-23385097D01*
X11393918Y-23385097D02*
X11374870Y-23375574D01*
X11374870Y-23375574D02*
X11365346Y-23356526D01*
X11365346Y-23356526D02*
X11365346Y-23347002D01*
X11365346Y-23347002D02*
X11374870Y-23327954D01*
X11374870Y-23327954D02*
X11393918Y-23318431D01*
X11393918Y-23318431D02*
X11422489Y-23318431D01*
X11422489Y-23318431D02*
X11441537Y-23327954D01*
X11517727Y-23527954D02*
X11527251Y-23518431D01*
X11527251Y-23518431D02*
X11546299Y-23489859D01*
X11546299Y-23489859D02*
X11555823Y-23470812D01*
X11555823Y-23470812D02*
X11565346Y-23442240D01*
X11565346Y-23442240D02*
X11574870Y-23394621D01*
X11574870Y-23394621D02*
X11574870Y-23356526D01*
X11574870Y-23356526D02*
X11565346Y-23308907D01*
X11565346Y-23308907D02*
X11555823Y-23280335D01*
X11555823Y-23280335D02*
X11546299Y-23261288D01*
X11546299Y-23261288D02*
X11527251Y-23232716D01*
X11527251Y-23232716D02*
X11517727Y-23223193D01*
D12*
X6492188Y-23684280D02*
X6552188Y-23624280D01*
X6492188Y-23564280D01*
X6432188Y-23624280D01*
X6492188Y-23684280D01*
D11*
X6917727Y-23715764D02*
X6803441Y-23715764D01*
X6860584Y-23715764D02*
X6860584Y-23515764D01*
X6860584Y-23515764D02*
X6841536Y-23544335D01*
X6841536Y-23544335D02*
X6822489Y-23563383D01*
X6822489Y-23563383D02*
X6803441Y-23572907D01*
X7003441Y-23696716D02*
X7012965Y-23706240D01*
X7012965Y-23706240D02*
X7003441Y-23715764D01*
X7003441Y-23715764D02*
X6993917Y-23706240D01*
X6993917Y-23706240D02*
X7003441Y-23696716D01*
X7003441Y-23696716D02*
X7003441Y-23715764D01*
X7089155Y-23534812D02*
X7098679Y-23525288D01*
X7098679Y-23525288D02*
X7117727Y-23515764D01*
X7117727Y-23515764D02*
X7165346Y-23515764D01*
X7165346Y-23515764D02*
X7184394Y-23525288D01*
X7184394Y-23525288D02*
X7193917Y-23534812D01*
X7193917Y-23534812D02*
X7203441Y-23553859D01*
X7203441Y-23553859D02*
X7203441Y-23572907D01*
X7203441Y-23572907D02*
X7193917Y-23601478D01*
X7193917Y-23601478D02*
X7079632Y-23715764D01*
X7079632Y-23715764D02*
X7203441Y-23715764D01*
X7327251Y-23515764D02*
X7346298Y-23515764D01*
X7346298Y-23515764D02*
X7365346Y-23525288D01*
X7365346Y-23525288D02*
X7374870Y-23534812D01*
X7374870Y-23534812D02*
X7384394Y-23553859D01*
X7384394Y-23553859D02*
X7393917Y-23591954D01*
X7393917Y-23591954D02*
X7393917Y-23639574D01*
X7393917Y-23639574D02*
X7384394Y-23677669D01*
X7384394Y-23677669D02*
X7374870Y-23696716D01*
X7374870Y-23696716D02*
X7365346Y-23706240D01*
X7365346Y-23706240D02*
X7346298Y-23715764D01*
X7346298Y-23715764D02*
X7327251Y-23715764D01*
X7327251Y-23715764D02*
X7308203Y-23706240D01*
X7308203Y-23706240D02*
X7298679Y-23696716D01*
X7298679Y-23696716D02*
X7289155Y-23677669D01*
X7289155Y-23677669D02*
X7279632Y-23639574D01*
X7279632Y-23639574D02*
X7279632Y-23591954D01*
X7279632Y-23591954D02*
X7289155Y-23553859D01*
X7289155Y-23553859D02*
X7298679Y-23534812D01*
X7298679Y-23534812D02*
X7308203Y-23525288D01*
X7308203Y-23525288D02*
X7327251Y-23515764D01*
X7517727Y-23515764D02*
X7536775Y-23515764D01*
X7536775Y-23515764D02*
X7555822Y-23525288D01*
X7555822Y-23525288D02*
X7565346Y-23534812D01*
X7565346Y-23534812D02*
X7574870Y-23553859D01*
X7574870Y-23553859D02*
X7584394Y-23591954D01*
X7584394Y-23591954D02*
X7584394Y-23639574D01*
X7584394Y-23639574D02*
X7574870Y-23677669D01*
X7574870Y-23677669D02*
X7565346Y-23696716D01*
X7565346Y-23696716D02*
X7555822Y-23706240D01*
X7555822Y-23706240D02*
X7536775Y-23715764D01*
X7536775Y-23715764D02*
X7517727Y-23715764D01*
X7517727Y-23715764D02*
X7498679Y-23706240D01*
X7498679Y-23706240D02*
X7489155Y-23696716D01*
X7489155Y-23696716D02*
X7479632Y-23677669D01*
X7479632Y-23677669D02*
X7470108Y-23639574D01*
X7470108Y-23639574D02*
X7470108Y-23591954D01*
X7470108Y-23591954D02*
X7479632Y-23553859D01*
X7479632Y-23553859D02*
X7489155Y-23534812D01*
X7489155Y-23534812D02*
X7498679Y-23525288D01*
X7498679Y-23525288D02*
X7517727Y-23515764D01*
X7670108Y-23715764D02*
X7670108Y-23582431D01*
X7670108Y-23601478D02*
X7679632Y-23591954D01*
X7679632Y-23591954D02*
X7698679Y-23582431D01*
X7698679Y-23582431D02*
X7727251Y-23582431D01*
X7727251Y-23582431D02*
X7746298Y-23591954D01*
X7746298Y-23591954D02*
X7755822Y-23611002D01*
X7755822Y-23611002D02*
X7755822Y-23715764D01*
X7755822Y-23611002D02*
X7765346Y-23591954D01*
X7765346Y-23591954D02*
X7784394Y-23582431D01*
X7784394Y-23582431D02*
X7812965Y-23582431D01*
X7812965Y-23582431D02*
X7832013Y-23591954D01*
X7832013Y-23591954D02*
X7841536Y-23611002D01*
X7841536Y-23611002D02*
X7841536Y-23715764D01*
X7936775Y-23715764D02*
X7936775Y-23582431D01*
X7936775Y-23601478D02*
X7946298Y-23591954D01*
X7946298Y-23591954D02*
X7965346Y-23582431D01*
X7965346Y-23582431D02*
X7993917Y-23582431D01*
X7993917Y-23582431D02*
X8012965Y-23591954D01*
X8012965Y-23591954D02*
X8022489Y-23611002D01*
X8022489Y-23611002D02*
X8022489Y-23715764D01*
X8022489Y-23611002D02*
X8032013Y-23591954D01*
X8032013Y-23591954D02*
X8051060Y-23582431D01*
X8051060Y-23582431D02*
X8079632Y-23582431D01*
X8079632Y-23582431D02*
X8098679Y-23591954D01*
X8098679Y-23591954D02*
X8108203Y-23611002D01*
X8108203Y-23611002D02*
X8108203Y-23715764D01*
X8498679Y-23506240D02*
X8327251Y-23763383D01*
X8755822Y-23515764D02*
X8774870Y-23515764D01*
X8774870Y-23515764D02*
X8793918Y-23525288D01*
X8793918Y-23525288D02*
X8803441Y-23534812D01*
X8803441Y-23534812D02*
X8812965Y-23553859D01*
X8812965Y-23553859D02*
X8822489Y-23591954D01*
X8822489Y-23591954D02*
X8822489Y-23639574D01*
X8822489Y-23639574D02*
X8812965Y-23677669D01*
X8812965Y-23677669D02*
X8803441Y-23696716D01*
X8803441Y-23696716D02*
X8793918Y-23706240D01*
X8793918Y-23706240D02*
X8774870Y-23715764D01*
X8774870Y-23715764D02*
X8755822Y-23715764D01*
X8755822Y-23715764D02*
X8736775Y-23706240D01*
X8736775Y-23706240D02*
X8727251Y-23696716D01*
X8727251Y-23696716D02*
X8717727Y-23677669D01*
X8717727Y-23677669D02*
X8708203Y-23639574D01*
X8708203Y-23639574D02*
X8708203Y-23591954D01*
X8708203Y-23591954D02*
X8717727Y-23553859D01*
X8717727Y-23553859D02*
X8727251Y-23534812D01*
X8727251Y-23534812D02*
X8736775Y-23525288D01*
X8736775Y-23525288D02*
X8755822Y-23515764D01*
X8908203Y-23696716D02*
X8917727Y-23706240D01*
X8917727Y-23706240D02*
X8908203Y-23715764D01*
X8908203Y-23715764D02*
X8898680Y-23706240D01*
X8898680Y-23706240D02*
X8908203Y-23696716D01*
X8908203Y-23696716D02*
X8908203Y-23715764D01*
X9041537Y-23515764D02*
X9060584Y-23515764D01*
X9060584Y-23515764D02*
X9079632Y-23525288D01*
X9079632Y-23525288D02*
X9089156Y-23534812D01*
X9089156Y-23534812D02*
X9098680Y-23553859D01*
X9098680Y-23553859D02*
X9108203Y-23591954D01*
X9108203Y-23591954D02*
X9108203Y-23639574D01*
X9108203Y-23639574D02*
X9098680Y-23677669D01*
X9098680Y-23677669D02*
X9089156Y-23696716D01*
X9089156Y-23696716D02*
X9079632Y-23706240D01*
X9079632Y-23706240D02*
X9060584Y-23715764D01*
X9060584Y-23715764D02*
X9041537Y-23715764D01*
X9041537Y-23715764D02*
X9022489Y-23706240D01*
X9022489Y-23706240D02*
X9012965Y-23696716D01*
X9012965Y-23696716D02*
X9003441Y-23677669D01*
X9003441Y-23677669D02*
X8993918Y-23639574D01*
X8993918Y-23639574D02*
X8993918Y-23591954D01*
X8993918Y-23591954D02*
X9003441Y-23553859D01*
X9003441Y-23553859D02*
X9012965Y-23534812D01*
X9012965Y-23534812D02*
X9022489Y-23525288D01*
X9022489Y-23525288D02*
X9041537Y-23515764D01*
X9279632Y-23582431D02*
X9279632Y-23715764D01*
X9232013Y-23506240D02*
X9184394Y-23649097D01*
X9184394Y-23649097D02*
X9308203Y-23649097D01*
X9365346Y-23515764D02*
X9498680Y-23515764D01*
X9498680Y-23515764D02*
X9412965Y-23715764D01*
X9565346Y-23534812D02*
X9574870Y-23525288D01*
X9574870Y-23525288D02*
X9593918Y-23515764D01*
X9593918Y-23515764D02*
X9641537Y-23515764D01*
X9641537Y-23515764D02*
X9660584Y-23525288D01*
X9660584Y-23525288D02*
X9670108Y-23534812D01*
X9670108Y-23534812D02*
X9679632Y-23553859D01*
X9679632Y-23553859D02*
X9679632Y-23572907D01*
X9679632Y-23572907D02*
X9670108Y-23601478D01*
X9670108Y-23601478D02*
X9555822Y-23715764D01*
X9555822Y-23715764D02*
X9679632Y-23715764D01*
X9755822Y-23515764D02*
X9755822Y-23553859D01*
X9832013Y-23515764D02*
X9832013Y-23553859D01*
X10127251Y-23791954D02*
X10117727Y-23782431D01*
X10117727Y-23782431D02*
X10098680Y-23753859D01*
X10098680Y-23753859D02*
X10089156Y-23734812D01*
X10089156Y-23734812D02*
X10079632Y-23706240D01*
X10079632Y-23706240D02*
X10070108Y-23658621D01*
X10070108Y-23658621D02*
X10070108Y-23620526D01*
X10070108Y-23620526D02*
X10079632Y-23572907D01*
X10079632Y-23572907D02*
X10089156Y-23544335D01*
X10089156Y-23544335D02*
X10098680Y-23525288D01*
X10098680Y-23525288D02*
X10117727Y-23496716D01*
X10117727Y-23496716D02*
X10127251Y-23487193D01*
X10308203Y-23715764D02*
X10193918Y-23715764D01*
X10251061Y-23715764D02*
X10251061Y-23515764D01*
X10251061Y-23515764D02*
X10232013Y-23544335D01*
X10232013Y-23544335D02*
X10212965Y-23563383D01*
X10212965Y-23563383D02*
X10193918Y-23572907D01*
X10432013Y-23515764D02*
X10451061Y-23515764D01*
X10451061Y-23515764D02*
X10470108Y-23525288D01*
X10470108Y-23525288D02*
X10479632Y-23534812D01*
X10479632Y-23534812D02*
X10489156Y-23553859D01*
X10489156Y-23553859D02*
X10498680Y-23591954D01*
X10498680Y-23591954D02*
X10498680Y-23639574D01*
X10498680Y-23639574D02*
X10489156Y-23677669D01*
X10489156Y-23677669D02*
X10479632Y-23696716D01*
X10479632Y-23696716D02*
X10470108Y-23706240D01*
X10470108Y-23706240D02*
X10451061Y-23715764D01*
X10451061Y-23715764D02*
X10432013Y-23715764D01*
X10432013Y-23715764D02*
X10412965Y-23706240D01*
X10412965Y-23706240D02*
X10403442Y-23696716D01*
X10403442Y-23696716D02*
X10393918Y-23677669D01*
X10393918Y-23677669D02*
X10384394Y-23639574D01*
X10384394Y-23639574D02*
X10384394Y-23591954D01*
X10384394Y-23591954D02*
X10393918Y-23553859D01*
X10393918Y-23553859D02*
X10403442Y-23534812D01*
X10403442Y-23534812D02*
X10412965Y-23525288D01*
X10412965Y-23525288D02*
X10432013Y-23515764D01*
X10736775Y-23715764D02*
X10736775Y-23515764D01*
X10822489Y-23715764D02*
X10822489Y-23611002D01*
X10822489Y-23611002D02*
X10812965Y-23591954D01*
X10812965Y-23591954D02*
X10793918Y-23582431D01*
X10793918Y-23582431D02*
X10765346Y-23582431D01*
X10765346Y-23582431D02*
X10746299Y-23591954D01*
X10746299Y-23591954D02*
X10736775Y-23601478D01*
X10946299Y-23715764D02*
X10927251Y-23706240D01*
X10927251Y-23706240D02*
X10917727Y-23696716D01*
X10917727Y-23696716D02*
X10908204Y-23677669D01*
X10908204Y-23677669D02*
X10908204Y-23620526D01*
X10908204Y-23620526D02*
X10917727Y-23601478D01*
X10917727Y-23601478D02*
X10927251Y-23591954D01*
X10927251Y-23591954D02*
X10946299Y-23582431D01*
X10946299Y-23582431D02*
X10974870Y-23582431D01*
X10974870Y-23582431D02*
X10993918Y-23591954D01*
X10993918Y-23591954D02*
X11003442Y-23601478D01*
X11003442Y-23601478D02*
X11012965Y-23620526D01*
X11012965Y-23620526D02*
X11012965Y-23677669D01*
X11012965Y-23677669D02*
X11003442Y-23696716D01*
X11003442Y-23696716D02*
X10993918Y-23706240D01*
X10993918Y-23706240D02*
X10974870Y-23715764D01*
X10974870Y-23715764D02*
X10946299Y-23715764D01*
X11127251Y-23715764D02*
X11108204Y-23706240D01*
X11108204Y-23706240D02*
X11098680Y-23687193D01*
X11098680Y-23687193D02*
X11098680Y-23515764D01*
X11279632Y-23706240D02*
X11260584Y-23715764D01*
X11260584Y-23715764D02*
X11222489Y-23715764D01*
X11222489Y-23715764D02*
X11203442Y-23706240D01*
X11203442Y-23706240D02*
X11193918Y-23687193D01*
X11193918Y-23687193D02*
X11193918Y-23611002D01*
X11193918Y-23611002D02*
X11203442Y-23591954D01*
X11203442Y-23591954D02*
X11222489Y-23582431D01*
X11222489Y-23582431D02*
X11260584Y-23582431D01*
X11260584Y-23582431D02*
X11279632Y-23591954D01*
X11279632Y-23591954D02*
X11289156Y-23611002D01*
X11289156Y-23611002D02*
X11289156Y-23630050D01*
X11289156Y-23630050D02*
X11193918Y-23649097D01*
X11365346Y-23706240D02*
X11384394Y-23715764D01*
X11384394Y-23715764D02*
X11422489Y-23715764D01*
X11422489Y-23715764D02*
X11441537Y-23706240D01*
X11441537Y-23706240D02*
X11451061Y-23687193D01*
X11451061Y-23687193D02*
X11451061Y-23677669D01*
X11451061Y-23677669D02*
X11441537Y-23658621D01*
X11441537Y-23658621D02*
X11422489Y-23649097D01*
X11422489Y-23649097D02*
X11393918Y-23649097D01*
X11393918Y-23649097D02*
X11374870Y-23639574D01*
X11374870Y-23639574D02*
X11365346Y-23620526D01*
X11365346Y-23620526D02*
X11365346Y-23611002D01*
X11365346Y-23611002D02*
X11374870Y-23591954D01*
X11374870Y-23591954D02*
X11393918Y-23582431D01*
X11393918Y-23582431D02*
X11422489Y-23582431D01*
X11422489Y-23582431D02*
X11441537Y-23591954D01*
X11517727Y-23791954D02*
X11527251Y-23782431D01*
X11527251Y-23782431D02*
X11546299Y-23753859D01*
X11546299Y-23753859D02*
X11555823Y-23734812D01*
X11555823Y-23734812D02*
X11565346Y-23706240D01*
X11565346Y-23706240D02*
X11574870Y-23658621D01*
X11574870Y-23658621D02*
X11574870Y-23620526D01*
X11574870Y-23620526D02*
X11565346Y-23572907D01*
X11565346Y-23572907D02*
X11555823Y-23544335D01*
X11555823Y-23544335D02*
X11546299Y-23525288D01*
X11546299Y-23525288D02*
X11527251Y-23496716D01*
X11527251Y-23496716D02*
X11517727Y-23487193D01*
X6352188Y-23788280D02*
X6552188Y-23988280D01*
X6552188Y-23788280D02*
X6352188Y-23988280D01*
X6552188Y-23888280D02*
G75*
G02*
X6352188Y-23888280I-100000J0D01*
G01*
X6352188Y-23888280D02*
G75*
G02*
X6552188Y-23888280I100000J0D01*
G01*
X6793917Y-23779764D02*
X6917727Y-23779764D01*
X6917727Y-23779764D02*
X6851060Y-23855954D01*
X6851060Y-23855954D02*
X6879632Y-23855954D01*
X6879632Y-23855954D02*
X6898679Y-23865478D01*
X6898679Y-23865478D02*
X6908203Y-23875002D01*
X6908203Y-23875002D02*
X6917727Y-23894050D01*
X6917727Y-23894050D02*
X6917727Y-23941669D01*
X6917727Y-23941669D02*
X6908203Y-23960716D01*
X6908203Y-23960716D02*
X6898679Y-23970240D01*
X6898679Y-23970240D02*
X6879632Y-23979764D01*
X6879632Y-23979764D02*
X6822489Y-23979764D01*
X6822489Y-23979764D02*
X6803441Y-23970240D01*
X6803441Y-23970240D02*
X6793917Y-23960716D01*
X7003441Y-23960716D02*
X7012965Y-23970240D01*
X7012965Y-23970240D02*
X7003441Y-23979764D01*
X7003441Y-23979764D02*
X6993917Y-23970240D01*
X6993917Y-23970240D02*
X7003441Y-23960716D01*
X7003441Y-23960716D02*
X7003441Y-23979764D01*
X7089155Y-23798812D02*
X7098679Y-23789288D01*
X7098679Y-23789288D02*
X7117727Y-23779764D01*
X7117727Y-23779764D02*
X7165346Y-23779764D01*
X7165346Y-23779764D02*
X7184394Y-23789288D01*
X7184394Y-23789288D02*
X7193917Y-23798812D01*
X7193917Y-23798812D02*
X7203441Y-23817859D01*
X7203441Y-23817859D02*
X7203441Y-23836907D01*
X7203441Y-23836907D02*
X7193917Y-23865478D01*
X7193917Y-23865478D02*
X7079632Y-23979764D01*
X7079632Y-23979764D02*
X7203441Y-23979764D01*
X7327251Y-23779764D02*
X7346298Y-23779764D01*
X7346298Y-23779764D02*
X7365346Y-23789288D01*
X7365346Y-23789288D02*
X7374870Y-23798812D01*
X7374870Y-23798812D02*
X7384394Y-23817859D01*
X7384394Y-23817859D02*
X7393917Y-23855954D01*
X7393917Y-23855954D02*
X7393917Y-23903574D01*
X7393917Y-23903574D02*
X7384394Y-23941669D01*
X7384394Y-23941669D02*
X7374870Y-23960716D01*
X7374870Y-23960716D02*
X7365346Y-23970240D01*
X7365346Y-23970240D02*
X7346298Y-23979764D01*
X7346298Y-23979764D02*
X7327251Y-23979764D01*
X7327251Y-23979764D02*
X7308203Y-23970240D01*
X7308203Y-23970240D02*
X7298679Y-23960716D01*
X7298679Y-23960716D02*
X7289155Y-23941669D01*
X7289155Y-23941669D02*
X7279632Y-23903574D01*
X7279632Y-23903574D02*
X7279632Y-23855954D01*
X7279632Y-23855954D02*
X7289155Y-23817859D01*
X7289155Y-23817859D02*
X7298679Y-23798812D01*
X7298679Y-23798812D02*
X7308203Y-23789288D01*
X7308203Y-23789288D02*
X7327251Y-23779764D01*
X7517727Y-23779764D02*
X7536775Y-23779764D01*
X7536775Y-23779764D02*
X7555822Y-23789288D01*
X7555822Y-23789288D02*
X7565346Y-23798812D01*
X7565346Y-23798812D02*
X7574870Y-23817859D01*
X7574870Y-23817859D02*
X7584394Y-23855954D01*
X7584394Y-23855954D02*
X7584394Y-23903574D01*
X7584394Y-23903574D02*
X7574870Y-23941669D01*
X7574870Y-23941669D02*
X7565346Y-23960716D01*
X7565346Y-23960716D02*
X7555822Y-23970240D01*
X7555822Y-23970240D02*
X7536775Y-23979764D01*
X7536775Y-23979764D02*
X7517727Y-23979764D01*
X7517727Y-23979764D02*
X7498679Y-23970240D01*
X7498679Y-23970240D02*
X7489155Y-23960716D01*
X7489155Y-23960716D02*
X7479632Y-23941669D01*
X7479632Y-23941669D02*
X7470108Y-23903574D01*
X7470108Y-23903574D02*
X7470108Y-23855954D01*
X7470108Y-23855954D02*
X7479632Y-23817859D01*
X7479632Y-23817859D02*
X7489155Y-23798812D01*
X7489155Y-23798812D02*
X7498679Y-23789288D01*
X7498679Y-23789288D02*
X7517727Y-23779764D01*
X7670108Y-23979764D02*
X7670108Y-23846431D01*
X7670108Y-23865478D02*
X7679632Y-23855954D01*
X7679632Y-23855954D02*
X7698679Y-23846431D01*
X7698679Y-23846431D02*
X7727251Y-23846431D01*
X7727251Y-23846431D02*
X7746298Y-23855954D01*
X7746298Y-23855954D02*
X7755822Y-23875002D01*
X7755822Y-23875002D02*
X7755822Y-23979764D01*
X7755822Y-23875002D02*
X7765346Y-23855954D01*
X7765346Y-23855954D02*
X7784394Y-23846431D01*
X7784394Y-23846431D02*
X7812965Y-23846431D01*
X7812965Y-23846431D02*
X7832013Y-23855954D01*
X7832013Y-23855954D02*
X7841536Y-23875002D01*
X7841536Y-23875002D02*
X7841536Y-23979764D01*
X7936775Y-23979764D02*
X7936775Y-23846431D01*
X7936775Y-23865478D02*
X7946298Y-23855954D01*
X7946298Y-23855954D02*
X7965346Y-23846431D01*
X7965346Y-23846431D02*
X7993917Y-23846431D01*
X7993917Y-23846431D02*
X8012965Y-23855954D01*
X8012965Y-23855954D02*
X8022489Y-23875002D01*
X8022489Y-23875002D02*
X8022489Y-23979764D01*
X8022489Y-23875002D02*
X8032013Y-23855954D01*
X8032013Y-23855954D02*
X8051060Y-23846431D01*
X8051060Y-23846431D02*
X8079632Y-23846431D01*
X8079632Y-23846431D02*
X8098679Y-23855954D01*
X8098679Y-23855954D02*
X8108203Y-23875002D01*
X8108203Y-23875002D02*
X8108203Y-23979764D01*
X8498679Y-23770240D02*
X8327251Y-24027383D01*
X8755822Y-23779764D02*
X8774870Y-23779764D01*
X8774870Y-23779764D02*
X8793918Y-23789288D01*
X8793918Y-23789288D02*
X8803441Y-23798812D01*
X8803441Y-23798812D02*
X8812965Y-23817859D01*
X8812965Y-23817859D02*
X8822489Y-23855954D01*
X8822489Y-23855954D02*
X8822489Y-23903574D01*
X8822489Y-23903574D02*
X8812965Y-23941669D01*
X8812965Y-23941669D02*
X8803441Y-23960716D01*
X8803441Y-23960716D02*
X8793918Y-23970240D01*
X8793918Y-23970240D02*
X8774870Y-23979764D01*
X8774870Y-23979764D02*
X8755822Y-23979764D01*
X8755822Y-23979764D02*
X8736775Y-23970240D01*
X8736775Y-23970240D02*
X8727251Y-23960716D01*
X8727251Y-23960716D02*
X8717727Y-23941669D01*
X8717727Y-23941669D02*
X8708203Y-23903574D01*
X8708203Y-23903574D02*
X8708203Y-23855954D01*
X8708203Y-23855954D02*
X8717727Y-23817859D01*
X8717727Y-23817859D02*
X8727251Y-23798812D01*
X8727251Y-23798812D02*
X8736775Y-23789288D01*
X8736775Y-23789288D02*
X8755822Y-23779764D01*
X8908203Y-23960716D02*
X8917727Y-23970240D01*
X8917727Y-23970240D02*
X8908203Y-23979764D01*
X8908203Y-23979764D02*
X8898680Y-23970240D01*
X8898680Y-23970240D02*
X8908203Y-23960716D01*
X8908203Y-23960716D02*
X8908203Y-23979764D01*
X9108203Y-23979764D02*
X8993918Y-23979764D01*
X9051060Y-23979764D02*
X9051060Y-23779764D01*
X9051060Y-23779764D02*
X9032013Y-23808335D01*
X9032013Y-23808335D02*
X9012965Y-23827383D01*
X9012965Y-23827383D02*
X8993918Y-23836907D01*
X9184394Y-23798812D02*
X9193918Y-23789288D01*
X9193918Y-23789288D02*
X9212965Y-23779764D01*
X9212965Y-23779764D02*
X9260584Y-23779764D01*
X9260584Y-23779764D02*
X9279632Y-23789288D01*
X9279632Y-23789288D02*
X9289156Y-23798812D01*
X9289156Y-23798812D02*
X9298680Y-23817859D01*
X9298680Y-23817859D02*
X9298680Y-23836907D01*
X9298680Y-23836907D02*
X9289156Y-23865478D01*
X9289156Y-23865478D02*
X9174870Y-23979764D01*
X9174870Y-23979764D02*
X9298680Y-23979764D01*
X9470108Y-23779764D02*
X9432013Y-23779764D01*
X9432013Y-23779764D02*
X9412965Y-23789288D01*
X9412965Y-23789288D02*
X9403441Y-23798812D01*
X9403441Y-23798812D02*
X9384394Y-23827383D01*
X9384394Y-23827383D02*
X9374870Y-23865478D01*
X9374870Y-23865478D02*
X9374870Y-23941669D01*
X9374870Y-23941669D02*
X9384394Y-23960716D01*
X9384394Y-23960716D02*
X9393918Y-23970240D01*
X9393918Y-23970240D02*
X9412965Y-23979764D01*
X9412965Y-23979764D02*
X9451061Y-23979764D01*
X9451061Y-23979764D02*
X9470108Y-23970240D01*
X9470108Y-23970240D02*
X9479632Y-23960716D01*
X9479632Y-23960716D02*
X9489156Y-23941669D01*
X9489156Y-23941669D02*
X9489156Y-23894050D01*
X9489156Y-23894050D02*
X9479632Y-23875002D01*
X9479632Y-23875002D02*
X9470108Y-23865478D01*
X9470108Y-23865478D02*
X9451061Y-23855954D01*
X9451061Y-23855954D02*
X9412965Y-23855954D01*
X9412965Y-23855954D02*
X9393918Y-23865478D01*
X9393918Y-23865478D02*
X9384394Y-23875002D01*
X9384394Y-23875002D02*
X9374870Y-23894050D01*
X9612965Y-23779764D02*
X9632013Y-23779764D01*
X9632013Y-23779764D02*
X9651061Y-23789288D01*
X9651061Y-23789288D02*
X9660584Y-23798812D01*
X9660584Y-23798812D02*
X9670108Y-23817859D01*
X9670108Y-23817859D02*
X9679632Y-23855954D01*
X9679632Y-23855954D02*
X9679632Y-23903574D01*
X9679632Y-23903574D02*
X9670108Y-23941669D01*
X9670108Y-23941669D02*
X9660584Y-23960716D01*
X9660584Y-23960716D02*
X9651061Y-23970240D01*
X9651061Y-23970240D02*
X9632013Y-23979764D01*
X9632013Y-23979764D02*
X9612965Y-23979764D01*
X9612965Y-23979764D02*
X9593918Y-23970240D01*
X9593918Y-23970240D02*
X9584394Y-23960716D01*
X9584394Y-23960716D02*
X9574870Y-23941669D01*
X9574870Y-23941669D02*
X9565346Y-23903574D01*
X9565346Y-23903574D02*
X9565346Y-23855954D01*
X9565346Y-23855954D02*
X9574870Y-23817859D01*
X9574870Y-23817859D02*
X9584394Y-23798812D01*
X9584394Y-23798812D02*
X9593918Y-23789288D01*
X9593918Y-23789288D02*
X9612965Y-23779764D01*
X9755822Y-23779764D02*
X9755822Y-23817859D01*
X9832013Y-23779764D02*
X9832013Y-23817859D01*
X10127251Y-24055954D02*
X10117727Y-24046431D01*
X10117727Y-24046431D02*
X10098680Y-24017859D01*
X10098680Y-24017859D02*
X10089156Y-23998812D01*
X10089156Y-23998812D02*
X10079632Y-23970240D01*
X10079632Y-23970240D02*
X10070108Y-23922621D01*
X10070108Y-23922621D02*
X10070108Y-23884526D01*
X10070108Y-23884526D02*
X10079632Y-23836907D01*
X10079632Y-23836907D02*
X10089156Y-23808335D01*
X10089156Y-23808335D02*
X10098680Y-23789288D01*
X10098680Y-23789288D02*
X10117727Y-23760716D01*
X10117727Y-23760716D02*
X10127251Y-23751193D01*
X10289156Y-23846431D02*
X10289156Y-23979764D01*
X10241537Y-23770240D02*
X10193918Y-23913097D01*
X10193918Y-23913097D02*
X10317727Y-23913097D01*
X10546299Y-23979764D02*
X10546299Y-23779764D01*
X10632013Y-23979764D02*
X10632013Y-23875002D01*
X10632013Y-23875002D02*
X10622489Y-23855954D01*
X10622489Y-23855954D02*
X10603442Y-23846431D01*
X10603442Y-23846431D02*
X10574870Y-23846431D01*
X10574870Y-23846431D02*
X10555823Y-23855954D01*
X10555823Y-23855954D02*
X10546299Y-23865478D01*
X10755823Y-23979764D02*
X10736775Y-23970240D01*
X10736775Y-23970240D02*
X10727251Y-23960716D01*
X10727251Y-23960716D02*
X10717727Y-23941669D01*
X10717727Y-23941669D02*
X10717727Y-23884526D01*
X10717727Y-23884526D02*
X10727251Y-23865478D01*
X10727251Y-23865478D02*
X10736775Y-23855954D01*
X10736775Y-23855954D02*
X10755823Y-23846431D01*
X10755823Y-23846431D02*
X10784394Y-23846431D01*
X10784394Y-23846431D02*
X10803442Y-23855954D01*
X10803442Y-23855954D02*
X10812965Y-23865478D01*
X10812965Y-23865478D02*
X10822489Y-23884526D01*
X10822489Y-23884526D02*
X10822489Y-23941669D01*
X10822489Y-23941669D02*
X10812965Y-23960716D01*
X10812965Y-23960716D02*
X10803442Y-23970240D01*
X10803442Y-23970240D02*
X10784394Y-23979764D01*
X10784394Y-23979764D02*
X10755823Y-23979764D01*
X10936775Y-23979764D02*
X10917727Y-23970240D01*
X10917727Y-23970240D02*
X10908204Y-23951193D01*
X10908204Y-23951193D02*
X10908204Y-23779764D01*
X11089156Y-23970240D02*
X11070108Y-23979764D01*
X11070108Y-23979764D02*
X11032013Y-23979764D01*
X11032013Y-23979764D02*
X11012965Y-23970240D01*
X11012965Y-23970240D02*
X11003442Y-23951193D01*
X11003442Y-23951193D02*
X11003442Y-23875002D01*
X11003442Y-23875002D02*
X11012965Y-23855954D01*
X11012965Y-23855954D02*
X11032013Y-23846431D01*
X11032013Y-23846431D02*
X11070108Y-23846431D01*
X11070108Y-23846431D02*
X11089156Y-23855954D01*
X11089156Y-23855954D02*
X11098680Y-23875002D01*
X11098680Y-23875002D02*
X11098680Y-23894050D01*
X11098680Y-23894050D02*
X11003442Y-23913097D01*
X11174870Y-23970240D02*
X11193918Y-23979764D01*
X11193918Y-23979764D02*
X11232013Y-23979764D01*
X11232013Y-23979764D02*
X11251061Y-23970240D01*
X11251061Y-23970240D02*
X11260584Y-23951193D01*
X11260584Y-23951193D02*
X11260584Y-23941669D01*
X11260584Y-23941669D02*
X11251061Y-23922621D01*
X11251061Y-23922621D02*
X11232013Y-23913097D01*
X11232013Y-23913097D02*
X11203442Y-23913097D01*
X11203442Y-23913097D02*
X11184394Y-23903574D01*
X11184394Y-23903574D02*
X11174870Y-23884526D01*
X11174870Y-23884526D02*
X11174870Y-23875002D01*
X11174870Y-23875002D02*
X11184394Y-23855954D01*
X11184394Y-23855954D02*
X11203442Y-23846431D01*
X11203442Y-23846431D02*
X11232013Y-23846431D01*
X11232013Y-23846431D02*
X11251061Y-23855954D01*
X11327251Y-24055954D02*
X11336775Y-24046431D01*
X11336775Y-24046431D02*
X11355823Y-24017859D01*
X11355823Y-24017859D02*
X11365346Y-23998812D01*
X11365346Y-23998812D02*
X11374870Y-23970240D01*
X11374870Y-23970240D02*
X11384394Y-23922621D01*
X11384394Y-23922621D02*
X11384394Y-23884526D01*
X11384394Y-23884526D02*
X11374870Y-23836907D01*
X11374870Y-23836907D02*
X11365346Y-23808335D01*
X11365346Y-23808335D02*
X11355823Y-23789288D01*
X11355823Y-23789288D02*
X11336775Y-23760716D01*
X11336775Y-23760716D02*
X11327251Y-23751193D01*
M02*
