M48
; DRILL file {KiCad 8.0.2} date 2024-05-16T19:31:11+0930
; FORMAT={-:-/ absolute / metric / decimal}
; #@! TF.CreationDate,2024-05-16T19:31:11+09:30
; #@! TF.GenerationSoftware,Kicad,Pcbnew,8.0.2
; #@! TF.FileFunction,NonPlated,1,2,NPTH
FMAT,2
METRIC
; #@! TA.AperFunction,NonPlated,NPTH,ComponentDrill
T1C0.970
; #@! TA.AperFunction,NonPlated,NPTH,ComponentDrill
T2C2.410
; #@! TA.AperFunction,NonPlated,NPTH,ComponentDrill
T3C2.500
; #@! TA.AperFunction,NonPlated,NPTH,ComponentDrill
T4C2.540
%
G90
G05
T1
X79.677Y-133.968
X79.677Y-136.508
X82.217Y-133.968
X82.217Y-136.508
X84.757Y-133.968
X84.757Y-136.508
X87.297Y-133.968
X87.297Y-136.508
X89.837Y-133.968
X89.837Y-136.508
X92.377Y-133.968
X92.377Y-136.508
X94.917Y-133.968
X94.917Y-136.508
X97.457Y-133.968
X97.457Y-136.508
X102.677Y-133.968
X102.677Y-136.508
X105.217Y-133.968
X105.217Y-136.508
X107.757Y-133.968
X107.757Y-136.508
X110.297Y-133.968
X110.297Y-136.508
X112.837Y-133.968
X112.837Y-136.508
X115.377Y-133.968
X115.377Y-136.508
X117.917Y-133.968
X117.917Y-136.508
X120.457Y-133.968
X120.457Y-136.508
X125.677Y-133.968
X125.677Y-136.508
X128.217Y-133.968
X128.217Y-136.508
X130.757Y-133.968
X130.757Y-136.508
X133.297Y-133.968
X133.297Y-136.508
X135.837Y-133.968
X135.837Y-136.508
X138.377Y-133.968
X138.377Y-136.508
X140.917Y-133.968
X140.917Y-136.508
X143.457Y-133.968
X143.457Y-136.508
X148.677Y-133.968
X148.677Y-136.508
X151.217Y-133.968
X151.217Y-136.508
X153.757Y-133.968
X153.757Y-136.508
X156.297Y-133.968
X156.297Y-136.508
X158.837Y-133.968
X158.837Y-136.508
X161.377Y-133.968
X161.377Y-136.508
X163.917Y-133.968
X163.917Y-136.508
X166.457Y-133.968
X166.457Y-136.508
T2
X160.134Y-86.234
X194.434Y-86.234
T3
X194.259Y-98.196
X212.039Y-98.196
T4
X194.259Y-143.916
X212.039Y-143.916
M30
