M48
; DRILL file {KiCad 8.0.2} date 2024-05-16T19:31:11+0930
; FORMAT={-:-/ absolute / metric / decimal}
; #@! TF.CreationDate,2024-05-16T19:31:11+09:30
; #@! TF.GenerationSoftware,Kicad,Pcbnew,8.0.2
; #@! TF.FileFunction,Plated,1,2,PTH
FMAT,2
METRIC
; #@! TA.AperFunction,Plated,PTH,ViaDrill
T1C0.400
; #@! TA.AperFunction,Plated,PTH,ComponentDrill
T2C0.500
; #@! TA.AperFunction,Plated,PTH,ComponentDrill
T3C0.800
; #@! TA.AperFunction,Plated,PTH,ComponentDrill
T4C1.000
; #@! TA.AperFunction,Plated,PTH,ComponentDrill
T5C1.200
; #@! TA.AperFunction,Plated,PTH,ComponentDrill
T6C3.200
%
G90
G05
T1
X67.884Y-95.969
X68.233Y-206.26
X68.583Y-205.324
X68.642Y-94.798
X69.326Y-93.878
X69.342Y-204.673
X70.026Y-92.812
X70.041Y-203.81
X70.663Y-90.424
X70.725Y-91.796
X70.725Y-203.0
X71.425Y-202.286
X72.124Y-190.754
X72.583Y-93.682
X72.824Y-189.998
X73.406Y-199.847
X73.492Y-94.098
X73.523Y-175.006
X74.082Y-94.905
X74.223Y-106.731
X75.54Y-123.41
X75.59Y-150.673
X75.692Y-160.731
X76.708Y-105.613
X76.759Y-194.361
X78.537Y-102.413
X78.588Y-164.338
X79.908Y-106.375
X81.991Y-105.207
X83.769Y-200.05
X85.069Y-193.01
X85.192Y-104.597
X85.293Y-174.904
X85.547Y-123.01
X85.891Y-115.214
X86.36Y-145.948
X86.512Y-79.451
X86.563Y-105.613
X87.986Y-177.648
X88.494Y-172.517
X89.56Y-163.068
X89.611Y-155.55
X89.713Y-178.206
X89.916Y-202.946
X90.018Y-156.972
X90.018Y-193.7
X90.475Y-171.196
X91.592Y-199.847
X92.1Y-208.534
X92.253Y-214.833
X92.304Y-152.4
X92.429Y-192.278
X93.116Y-148.946
X93.116Y-185.064
X93.128Y-209.245
X93.207Y-102.647
X93.472Y-164.643
X93.523Y-168.046
X93.788Y-172.06
X93.828Y-210.16
X93.98Y-106.172
X94.894Y-197.206
X94.977Y-153.943
X95.188Y-163.678
X95.188Y-178.853
X95.301Y-149.149
X95.555Y-204.521
X95.86Y-168.504
X96.215Y-105.207
X96.989Y-153.912
X98.146Y-116.84
X98.501Y-153.625
X99.67Y-104.8
X99.718Y-153.225
X100.076Y-78.689
X100.369Y-115.418
X100.482Y-188.468
X100.533Y-79.654
X101.346Y-172.211
X101.397Y-181.0
X101.549Y-201.879
X102.191Y-169.754
X102.413Y-90.221
X103.022Y-197.663
X103.53Y-208.863
X103.937Y-201.778
X104.496Y-196.952
X105.197Y-124.409
X105.41Y-174.295
X105.562Y-167.894
X105.664Y-162.611
X105.835Y-176.549
X106.223Y-86.716
X106.274Y-182.22
X106.375Y-169.754
X106.731Y-116.738
X106.782Y-168.402
X107.239Y-87.122
X107.239Y-196.799
X107.696Y-102.514
X107.952Y-112.919
X108.14Y-213.223
X108.226Y-187.908
X108.306Y-165.659
X108.56Y-105.715
X108.61Y-181.254
X108.763Y-156.921
X108.814Y-91.288
X108.927Y-171.907
X109.068Y-212.852
X109.372Y-162.204
X109.474Y-118.742
X109.626Y-210.464
X110.388Y-115.672
X110.642Y-120.142
X110.846Y-91.186
X110.947Y-94.64
X111.252Y-198.679
X111.76Y-104.546
X111.76Y-183.794
X112.16Y-168.616
X113.03Y-91.339
X113.132Y-87.478
X113.233Y-203.2
X113.944Y-169.469
X114.148Y-105.156
X114.605Y-124.409
X114.706Y-79.034
X115.824Y-91.288
X115.875Y-114.046
X115.875Y-118.72
X116.535Y-187.706
X117.196Y-185.674
X117.45Y-207.01
X118.72Y-194.92
X118.744Y-197.181
X118.821Y-154.381
X119.583Y-104.851
X119.736Y-163.728
X119.99Y-152.564
X120.142Y-89.814
X120.447Y-87.896
X120.752Y-91.339
X120.802Y-116.332
X121.006Y-191.567
X121.056Y-165.1
X121.514Y-186.08
X121.818Y-201.981
X121.971Y-192.481
X122.123Y-161.239
X122.428Y-102.972
X123.19Y-98.958
X123.292Y-91.338
X123.495Y-153.924
X123.85Y-215.787
X124.003Y-107.514
X124.562Y-194.361
X124.866Y-91.135
X125.273Y-195.885
X125.374Y-125.628
X125.882Y-88.595
X126.136Y-114.91
X127.051Y-188.062
X127.102Y-112.471
X127.406Y-165.202
X127.518Y-81.224
X127.559Y-149.665
X127.762Y-179.781
X127.813Y-121.361
X127.965Y-91.389
X127.965Y-99.535
X127.965Y-185.623
X128.524Y-104.953
X128.981Y-178.816
X129.083Y-78.638
X129.094Y-148.031
X129.134Y-184.861
X129.224Y-115.824
X129.794Y-183.54
X130.2Y-104.699
X130.658Y-91.745
X130.658Y-143.866
X131.064Y-187.706
X131.42Y-212.141
X131.521Y-151.865
X131.928Y-125.882
X132.131Y-200.508
X132.69Y-188.417
X132.944Y-91.542
X132.944Y-99.67
X133.248Y-153.425
X133.452Y-143.713
X133.756Y-181.813
X133.756Y-186.639
X133.858Y-102.565
X134.214Y-177.597
X134.62Y-91.592
X135.28Y-200.203
X135.839Y-143.815
X135.839Y-185.928
X136.5Y-99.974
X136.664Y-91.44
X136.664Y-107.914
X137.058Y-88.798
X137.344Y-203.492
X137.363Y-113.894
X137.363Y-190.195
X137.363Y-196.901
X137.82Y-206.35
X137.922Y-182.067
X138.024Y-217.387
X138.227Y-144.475
X138.227Y-153.425
X138.227Y-157.582
X138.379Y-187.604
X138.836Y-91.796
X138.836Y-207.952
X139.108Y-190.094
X139.294Y-174.904
X139.446Y-180.34
X139.548Y-172.618
X139.751Y-103.226
X139.802Y-185.522
X139.852Y-105.156
X140.106Y-113.233
X140.161Y-209.699
X140.208Y-205.029
X140.31Y-91.44
X140.89Y-174.222
X140.919Y-144.526
X141.021Y-121.412
X141.427Y-186.182
X141.427Y-207.67
X141.591Y-197.104
X141.884Y-215.387
X142.596Y-213.36
X143.002Y-128.93
X143.104Y-105.258
X143.358Y-124.809
X143.459Y-144.577
X143.51Y-80.532
X143.713Y-194.259
X144.12Y-202.489
X144.159Y-153.425
X144.374Y-88.798
X144.831Y-103.835
X145.593Y-200.914
X146.152Y-86.598
X146.152Y-188.976
X146.202Y-153.425
X146.304Y-213.208
X146.73Y-175.47
X147.066Y-192.989
X147.168Y-103.175
X147.371Y-199.746
X147.422Y-152.248
X147.574Y-212.864
X147.625Y-126.136
X147.625Y-143.205
X148.072Y-184.593
X148.184Y-216.587
X148.387Y-91.846
X148.944Y-176.735
X148.946Y-174.752
X148.946Y-180.645
X149.047Y-148.488
X149.171Y-94.183
X149.301Y-107.239
X149.696Y-213.563
X149.823Y-176.035
X149.871Y-95.453
X150.012Y-210.312
X150.52Y-190.348
X150.571Y-91.44
X150.724Y-166.675
X150.724Y-153.01
X150.825Y-100.787
X150.927Y-126.136
X151.232Y-169.994
X151.333Y-88.798
X151.384Y-143.561
X151.498Y-213.145
X151.536Y-186.944
X151.79Y-103.327
X151.903Y-180.137
X152.197Y-118.059
X152.197Y-167.437
X152.248Y-203.281
X152.502Y-119.512
X152.603Y-174.677
X152.636Y-197.91
X152.818Y-208.128
X152.857Y-212.788
X152.908Y-91.897
X152.984Y-202.564
X153.111Y-112.217
X153.162Y-108.7
X153.183Y-170.423
X153.478Y-167.395
X153.478Y-176.847
X153.721Y-125.832
X153.772Y-143.459
X153.772Y-149.606
X153.924Y-93.167
X153.975Y-182.474
X154.381Y-216.987
X154.428Y-186.243
X154.635Y-122.998
X154.838Y-78.932
X155.409Y-203.395
X155.409Y-208.026
X155.448Y-197.014
X155.651Y-91.288
X155.651Y-189.535
X155.804Y-97.028
X155.854Y-192.147
X156.007Y-216.205
X156.058Y-176.632
X156.159Y-126.136
X156.21Y-123.749
X156.464Y-212.547
X156.616Y-143.561
X156.82Y-179.68
X157.074Y-79.045
X157.164Y-216.187
X157.328Y-166.776
X157.531Y-115.519
X157.864Y-204.436
X158.101Y-212.44
X158.275Y-124.721
X158.344Y-171.602
X158.394Y-206.604
X158.547Y-151.689
X158.801Y-118.72
X158.837Y-126.543
X158.852Y-143.612
X159.106Y-213.187
X159.461Y-103.226
X159.461Y-186.893
X159.813Y-167.066
X159.831Y-189.497
X160.02Y-206.045
X160.02Y-208.839
X160.122Y-112.42
X160.274Y-211.074
X160.325Y-93.421
X160.371Y-156.667
X160.477Y-201.066
X160.579Y-81.585
X160.731Y-149.809
X160.74Y-181.517
X160.788Y-151.847
X160.973Y-211.949
X160.985Y-192.548
X161.087Y-206.35
X161.239Y-144.272
X161.392Y-118.618
X161.442Y-125.363
X161.442Y-197.014
X161.493Y-185.064
X161.646Y-203.2
X161.747Y-128.981
X162.408Y-95.871
X162.712Y-118.618
X162.722Y-150.479
X163.017Y-204.002
X163.474Y-94.987
X163.576Y-190.652
X163.576Y-198.425
X163.627Y-169.994
X163.83Y-81.534
X163.881Y-115.773
X163.881Y-206.858
X164.135Y-187.3
X164.457Y-194.056
X164.592Y-201.422
X165.405Y-92.71
X165.608Y-111.049
X166.116Y-119.512
X166.128Y-113.905
X166.319Y-95.787
X166.573Y-165.913
X166.573Y-192.548
X166.776Y-81.432
X166.823Y-106.625
X166.827Y-111.049
X166.878Y-190.748
X167.62Y-115.304
X167.945Y-179.578
X168.199Y-116.434
X168.453Y-185.928
X168.508Y-181.411
X169.113Y-187.858
X169.57Y-122.53
X169.977Y-102.108
X170.581Y-189.126
X170.739Y-193.802
X171.263Y-102.456
X171.653Y-190.551
X172.314Y-122.377
X173.177Y-119.912
X173.33Y-198.374
X173.584Y-100.533
X173.615Y-216.325
X173.888Y-169.062
X174.498Y-167.284
X175.678Y-167.284
X175.678Y-168.795
X176.378Y-125.07
X176.378Y-197.51
X176.835Y-154.94
X177.292Y-167.527
X179.222Y-159.461
X179.426Y-178.105
X179.68Y-183.54
X181.102Y-209.194
X181.153Y-165.354
X182.067Y-195.986
X182.118Y-192.547
X182.372Y-97.333
X182.575Y-120.244
X183.275Y-114.503
X183.49Y-171.501
X183.49Y-189.23
X183.54Y-199.187
X183.896Y-104.75
X183.998Y-187.858
X184.81Y-168.046
X189.84Y-156.921
X190.754Y-189.332
X191.77Y-204.673
X191.872Y-190.805
X195.529Y-209.55
X196.088Y-211.379
X196.974Y-206.604
X197.104Y-93.777
X197.155Y-121.92
X197.673Y-172.771
X197.673Y-191.211
X198.171Y-151.536
X198.882Y-92.812
X199.238Y-112.166
X199.746Y-92.05
X202.844Y-166.675
X202.997Y-197.815
X209.448Y-214.235
X210.261Y-116.637
X210.261Y-196.952
X210.504Y-213.411
X210.515Y-105.41
X210.718Y-203.149
X211.43Y-150.724
X211.595Y-105.559
X211.606Y-104.522
T2
X76.167Y-110.238
X76.167Y-213.238
X76.87Y-108.541
X76.87Y-111.935
X76.87Y-211.541
X76.87Y-214.935
X78.567Y-107.838
X78.567Y-112.638
X78.567Y-210.838
X78.567Y-215.638
X80.264Y-108.541
X80.264Y-111.935
X80.264Y-211.541
X80.264Y-214.935
X80.967Y-110.238
X80.967Y-213.238
X176.167Y-110.238
X176.167Y-213.238
X176.87Y-108.541
X176.87Y-111.935
X176.87Y-211.541
X176.87Y-214.935
X178.567Y-107.838
X178.567Y-112.638
X178.567Y-210.838
X178.567Y-215.638
X180.264Y-108.541
X180.264Y-111.935
X180.264Y-211.541
X180.264Y-214.935
X180.967Y-110.238
X180.967Y-213.238
T3
X192.989Y-102.006
X192.989Y-104.546
X192.989Y-107.086
X192.989Y-109.626
X192.989Y-112.166
X192.989Y-114.706
X192.989Y-117.246
X192.989Y-119.786
X192.989Y-122.326
X192.989Y-124.866
X192.989Y-127.406
X192.989Y-129.946
X192.989Y-132.486
X192.989Y-135.026
X192.989Y-137.566
X192.989Y-140.106
X213.309Y-112.166
X213.309Y-114.706
X213.309Y-117.246
X213.309Y-119.786
X213.309Y-122.326
X213.309Y-124.866
X213.309Y-127.406
X213.309Y-129.946
X213.309Y-132.486
X213.309Y-135.026
X213.309Y-137.566
X213.309Y-140.106
T4
X192.684Y-152.806
X192.684Y-160.806
X192.684Y-168.806
X192.684Y-176.806
X192.684Y-184.806
X195.224Y-152.806
X195.224Y-160.806
X195.224Y-168.806
X195.224Y-176.806
X195.224Y-184.806
T5
X205.384Y-152.806
X205.384Y-160.806
X205.384Y-168.806
X205.384Y-176.806
X205.384Y-184.806
X210.464Y-152.806
X210.464Y-160.806
X210.464Y-168.806
X210.464Y-176.806
X210.464Y-184.806
T6
X78.567Y-110.238
X78.567Y-213.238
X178.567Y-110.238
X178.567Y-213.238
M30
