%TF.GenerationSoftware,KiCad,Pcbnew,8.0.2*%
%TF.CreationDate,2024-05-16T19:31:13+09:30*%
%TF.ProjectId,shutdownPCB,73687574-646f-4776-9e50-43422e6b6963,rev?*%
%TF.SameCoordinates,Original*%
%TF.FileFunction,Drillmap*%
%TF.FilePolarity,Positive*%
%FSLAX45Y45*%
G04 Gerber Fmt 4.5, Leading zero omitted, Abs format (unit mm)*
G04 Created by KiCad (PCBNEW 8.0.2) date 2024-05-16 19:31:13*
%MOMM*%
%LPD*%
G01*
G04 APERTURE LIST*
%ADD10C,0.100000*%
%ADD11C,0.200000*%
%ADD12C,0.241000*%
%ADD13C,0.250000*%
%ADD14C,0.254000*%
G04 APERTURE END LIST*
D10*
X7157189Y-21923280D02*
G75*
G02*
X6557188Y-21324280I-494J599507D01*
G01*
X21157197Y-21923277D02*
X18157197Y-21923277D01*
X21756191Y-9786668D02*
X21756191Y-8386668D01*
X6557189Y-21324280D02*
X6557188Y-9787658D01*
X18157197Y-21923277D02*
X7157189Y-21923280D01*
X6557188Y-8387658D02*
G75*
G02*
X7156188Y-7787658I599506J494D01*
G01*
X21756197Y-21323277D02*
X21756191Y-9786668D01*
X21756197Y-21323277D02*
G75*
G02*
X21157197Y-21923277I-599507J-493D01*
G01*
X21156191Y-7787668D02*
X18156191Y-7787668D01*
X21156191Y-7787668D02*
G75*
G02*
X21756192Y-8386668I479J-599522D01*
G01*
X18156191Y-7787668D02*
X7156188Y-7787658D01*
X6557188Y-8387658D02*
X6557188Y-9787658D01*
D11*
D10*
X7919194Y-13348274D02*
X8016194Y-13445274D01*
X8016194Y-13348274D02*
X7919194Y-13445274D01*
X7919194Y-13602274D02*
X8016194Y-13699274D01*
X8016194Y-13602274D02*
X7919194Y-13699274D01*
X8173194Y-13348274D02*
X8270194Y-13445274D01*
X8270194Y-13348274D02*
X8173194Y-13445274D01*
X8173194Y-13602274D02*
X8270194Y-13699274D01*
X8270194Y-13602274D02*
X8173194Y-13699274D01*
X8427194Y-13348274D02*
X8524194Y-13445274D01*
X8524194Y-13348274D02*
X8427194Y-13445274D01*
X8427194Y-13602274D02*
X8524194Y-13699274D01*
X8524194Y-13602274D02*
X8427194Y-13699274D01*
X8681194Y-13348274D02*
X8778194Y-13445274D01*
X8778194Y-13348274D02*
X8681194Y-13445274D01*
X8681194Y-13602274D02*
X8778194Y-13699274D01*
X8778194Y-13602274D02*
X8681194Y-13699274D01*
X8935194Y-13348274D02*
X9032194Y-13445274D01*
X9032194Y-13348274D02*
X8935194Y-13445274D01*
X8935194Y-13602274D02*
X9032194Y-13699274D01*
X9032194Y-13602274D02*
X8935194Y-13699274D01*
X9189194Y-13348274D02*
X9286194Y-13445274D01*
X9286194Y-13348274D02*
X9189194Y-13445274D01*
X9189194Y-13602274D02*
X9286194Y-13699274D01*
X9286194Y-13602274D02*
X9189194Y-13699274D01*
X9443194Y-13348274D02*
X9540194Y-13445274D01*
X9540194Y-13348274D02*
X9443194Y-13445274D01*
X9443194Y-13602274D02*
X9540194Y-13699274D01*
X9540194Y-13602274D02*
X9443194Y-13699274D01*
X9697194Y-13348274D02*
X9794194Y-13445274D01*
X9794194Y-13348274D02*
X9697194Y-13445274D01*
X9697194Y-13602274D02*
X9794194Y-13699274D01*
X9794194Y-13602274D02*
X9697194Y-13699274D01*
X10219194Y-13348274D02*
X10316194Y-13445274D01*
X10316194Y-13348274D02*
X10219194Y-13445274D01*
X10219194Y-13602274D02*
X10316194Y-13699274D01*
X10316194Y-13602274D02*
X10219194Y-13699274D01*
X10473194Y-13348274D02*
X10570194Y-13445274D01*
X10570194Y-13348274D02*
X10473194Y-13445274D01*
X10473194Y-13602274D02*
X10570194Y-13699274D01*
X10570194Y-13602274D02*
X10473194Y-13699274D01*
X10727194Y-13348274D02*
X10824194Y-13445274D01*
X10824194Y-13348274D02*
X10727194Y-13445274D01*
X10727194Y-13602274D02*
X10824194Y-13699274D01*
X10824194Y-13602274D02*
X10727194Y-13699274D01*
X10981194Y-13348274D02*
X11078194Y-13445274D01*
X11078194Y-13348274D02*
X10981194Y-13445274D01*
X10981194Y-13602274D02*
X11078194Y-13699274D01*
X11078194Y-13602274D02*
X10981194Y-13699274D01*
X11235194Y-13348274D02*
X11332194Y-13445274D01*
X11332194Y-13348274D02*
X11235194Y-13445274D01*
X11235194Y-13602274D02*
X11332194Y-13699274D01*
X11332194Y-13602274D02*
X11235194Y-13699274D01*
X11489194Y-13348274D02*
X11586194Y-13445274D01*
X11586194Y-13348274D02*
X11489194Y-13445274D01*
X11489194Y-13602274D02*
X11586194Y-13699274D01*
X11586194Y-13602274D02*
X11489194Y-13699274D01*
X11743194Y-13348274D02*
X11840194Y-13445274D01*
X11840194Y-13348274D02*
X11743194Y-13445274D01*
X11743194Y-13602274D02*
X11840194Y-13699274D01*
X11840194Y-13602274D02*
X11743194Y-13699274D01*
X11997194Y-13348274D02*
X12094194Y-13445274D01*
X12094194Y-13348274D02*
X11997194Y-13445274D01*
X11997194Y-13602274D02*
X12094194Y-13699274D01*
X12094194Y-13602274D02*
X11997194Y-13699274D01*
X12519194Y-13348274D02*
X12616194Y-13445274D01*
X12616194Y-13348274D02*
X12519194Y-13445274D01*
X12519194Y-13602274D02*
X12616194Y-13699274D01*
X12616194Y-13602274D02*
X12519194Y-13699274D01*
X12773194Y-13348274D02*
X12870194Y-13445274D01*
X12870194Y-13348274D02*
X12773194Y-13445274D01*
X12773194Y-13602274D02*
X12870194Y-13699274D01*
X12870194Y-13602274D02*
X12773194Y-13699274D01*
X13027194Y-13348274D02*
X13124194Y-13445274D01*
X13124194Y-13348274D02*
X13027194Y-13445274D01*
X13027194Y-13602274D02*
X13124194Y-13699274D01*
X13124194Y-13602274D02*
X13027194Y-13699274D01*
X13281194Y-13348274D02*
X13378194Y-13445274D01*
X13378194Y-13348274D02*
X13281194Y-13445274D01*
X13281194Y-13602274D02*
X13378194Y-13699274D01*
X13378194Y-13602274D02*
X13281194Y-13699274D01*
X13535194Y-13348274D02*
X13632194Y-13445274D01*
X13632194Y-13348274D02*
X13535194Y-13445274D01*
X13535194Y-13602274D02*
X13632194Y-13699274D01*
X13632194Y-13602274D02*
X13535194Y-13699274D01*
X13789194Y-13348274D02*
X13886194Y-13445274D01*
X13886194Y-13348274D02*
X13789194Y-13445274D01*
X13789194Y-13602274D02*
X13886194Y-13699274D01*
X13886194Y-13602274D02*
X13789194Y-13699274D01*
X14043194Y-13348274D02*
X14140194Y-13445274D01*
X14140194Y-13348274D02*
X14043194Y-13445274D01*
X14043194Y-13602274D02*
X14140194Y-13699274D01*
X14140194Y-13602274D02*
X14043194Y-13699274D01*
X14297194Y-13348274D02*
X14394194Y-13445274D01*
X14394194Y-13348274D02*
X14297194Y-13445274D01*
X14297194Y-13602274D02*
X14394194Y-13699274D01*
X14394194Y-13602274D02*
X14297194Y-13699274D01*
X14819194Y-13348274D02*
X14916194Y-13445274D01*
X14916194Y-13348274D02*
X14819194Y-13445274D01*
X14819194Y-13602274D02*
X14916194Y-13699274D01*
X14916194Y-13602274D02*
X14819194Y-13699274D01*
X15073194Y-13348274D02*
X15170194Y-13445274D01*
X15170194Y-13348274D02*
X15073194Y-13445274D01*
X15073194Y-13602274D02*
X15170194Y-13699274D01*
X15170194Y-13602274D02*
X15073194Y-13699274D01*
X15327194Y-13348274D02*
X15424194Y-13445274D01*
X15424194Y-13348274D02*
X15327194Y-13445274D01*
X15327194Y-13602274D02*
X15424194Y-13699274D01*
X15424194Y-13602274D02*
X15327194Y-13699274D01*
X15581194Y-13348274D02*
X15678194Y-13445274D01*
X15678194Y-13348274D02*
X15581194Y-13445274D01*
X15581194Y-13602274D02*
X15678194Y-13699274D01*
X15678194Y-13602274D02*
X15581194Y-13699274D01*
X15835194Y-13348274D02*
X15932194Y-13445274D01*
X15932194Y-13348274D02*
X15835194Y-13445274D01*
X15835194Y-13602274D02*
X15932194Y-13699274D01*
X15932194Y-13602274D02*
X15835194Y-13699274D01*
X16089194Y-13348274D02*
X16186194Y-13445274D01*
X16186194Y-13348274D02*
X16089194Y-13445274D01*
X16089194Y-13602274D02*
X16186194Y-13699274D01*
X16186194Y-13602274D02*
X16089194Y-13699274D01*
X16343194Y-13348274D02*
X16440194Y-13445274D01*
X16440194Y-13348274D02*
X16343194Y-13445274D01*
X16343194Y-13602274D02*
X16440194Y-13699274D01*
X16440194Y-13602274D02*
X16343194Y-13699274D01*
X16597194Y-13348274D02*
X16694194Y-13445274D01*
X16694194Y-13348274D02*
X16597194Y-13445274D01*
X16597194Y-13602274D02*
X16694194Y-13699274D01*
X16694194Y-13602274D02*
X16597194Y-13699274D01*
D12*
X16133860Y-8623400D02*
G75*
G02*
X15892860Y-8623400I-120500J0D01*
G01*
X15892860Y-8623400D02*
G75*
G02*
X16133860Y-8623400I120500J0D01*
G01*
X19563860Y-8623400D02*
G75*
G02*
X19322860Y-8623400I-120500J0D01*
G01*
X19322860Y-8623400D02*
G75*
G02*
X19563860Y-8623400I120500J0D01*
G01*
D13*
X19425920Y-9694640D02*
X19425920Y-9944640D01*
X19300920Y-9819640D02*
X19550920Y-9819640D01*
X21203920Y-9694640D02*
X21203920Y-9944640D01*
X21078920Y-9819640D02*
X21328920Y-9819640D01*
D14*
X19515723Y-14481443D02*
X19515723Y-14301837D01*
X19336117Y-14301837D01*
X19336117Y-14481443D01*
X19515723Y-14481443D01*
X21293723Y-14481443D02*
X21293723Y-14301837D01*
X21114117Y-14301837D01*
X21114117Y-14481443D01*
X21293723Y-14481443D01*
D11*
X6812965Y-22239764D02*
X6812965Y-22039764D01*
X6812965Y-22039764D02*
X6860584Y-22039764D01*
X6860584Y-22039764D02*
X6889155Y-22049288D01*
X6889155Y-22049288D02*
X6908203Y-22068336D01*
X6908203Y-22068336D02*
X6917727Y-22087383D01*
X6917727Y-22087383D02*
X6927251Y-22125478D01*
X6927251Y-22125478D02*
X6927251Y-22154050D01*
X6927251Y-22154050D02*
X6917727Y-22192145D01*
X6917727Y-22192145D02*
X6908203Y-22211193D01*
X6908203Y-22211193D02*
X6889155Y-22230240D01*
X6889155Y-22230240D02*
X6860584Y-22239764D01*
X6860584Y-22239764D02*
X6812965Y-22239764D01*
X7012965Y-22239764D02*
X7012965Y-22106431D01*
X7012965Y-22144526D02*
X7022489Y-22125478D01*
X7022489Y-22125478D02*
X7032013Y-22115955D01*
X7032013Y-22115955D02*
X7051060Y-22106431D01*
X7051060Y-22106431D02*
X7070108Y-22106431D01*
X7136774Y-22239764D02*
X7136774Y-22106431D01*
X7136774Y-22039764D02*
X7127251Y-22049288D01*
X7127251Y-22049288D02*
X7136774Y-22058812D01*
X7136774Y-22058812D02*
X7146298Y-22049288D01*
X7146298Y-22049288D02*
X7136774Y-22039764D01*
X7136774Y-22039764D02*
X7136774Y-22058812D01*
X7260584Y-22239764D02*
X7241536Y-22230240D01*
X7241536Y-22230240D02*
X7232013Y-22211193D01*
X7232013Y-22211193D02*
X7232013Y-22039764D01*
X7365346Y-22239764D02*
X7346298Y-22230240D01*
X7346298Y-22230240D02*
X7336774Y-22211193D01*
X7336774Y-22211193D02*
X7336774Y-22039764D01*
X7593917Y-22239764D02*
X7593917Y-22039764D01*
X7593917Y-22039764D02*
X7660584Y-22182621D01*
X7660584Y-22182621D02*
X7727251Y-22039764D01*
X7727251Y-22039764D02*
X7727251Y-22239764D01*
X7908203Y-22239764D02*
X7908203Y-22135002D01*
X7908203Y-22135002D02*
X7898679Y-22115955D01*
X7898679Y-22115955D02*
X7879632Y-22106431D01*
X7879632Y-22106431D02*
X7841536Y-22106431D01*
X7841536Y-22106431D02*
X7822489Y-22115955D01*
X7908203Y-22230240D02*
X7889155Y-22239764D01*
X7889155Y-22239764D02*
X7841536Y-22239764D01*
X7841536Y-22239764D02*
X7822489Y-22230240D01*
X7822489Y-22230240D02*
X7812965Y-22211193D01*
X7812965Y-22211193D02*
X7812965Y-22192145D01*
X7812965Y-22192145D02*
X7822489Y-22173097D01*
X7822489Y-22173097D02*
X7841536Y-22163574D01*
X7841536Y-22163574D02*
X7889155Y-22163574D01*
X7889155Y-22163574D02*
X7908203Y-22154050D01*
X8003441Y-22106431D02*
X8003441Y-22306431D01*
X8003441Y-22115955D02*
X8022489Y-22106431D01*
X8022489Y-22106431D02*
X8060584Y-22106431D01*
X8060584Y-22106431D02*
X8079632Y-22115955D01*
X8079632Y-22115955D02*
X8089155Y-22125478D01*
X8089155Y-22125478D02*
X8098679Y-22144526D01*
X8098679Y-22144526D02*
X8098679Y-22201669D01*
X8098679Y-22201669D02*
X8089155Y-22220716D01*
X8089155Y-22220716D02*
X8079632Y-22230240D01*
X8079632Y-22230240D02*
X8060584Y-22239764D01*
X8060584Y-22239764D02*
X8022489Y-22239764D01*
X8022489Y-22239764D02*
X8003441Y-22230240D01*
X8184394Y-22220716D02*
X8193917Y-22230240D01*
X8193917Y-22230240D02*
X8184394Y-22239764D01*
X8184394Y-22239764D02*
X8174870Y-22230240D01*
X8174870Y-22230240D02*
X8184394Y-22220716D01*
X8184394Y-22220716D02*
X8184394Y-22239764D01*
X8184394Y-22115955D02*
X8193917Y-22125478D01*
X8193917Y-22125478D02*
X8184394Y-22135002D01*
X8184394Y-22135002D02*
X8174870Y-22125478D01*
X8174870Y-22125478D02*
X8184394Y-22115955D01*
X8184394Y-22115955D02*
X8184394Y-22135002D01*
D10*
X6455188Y-22519780D02*
X6552188Y-22616780D01*
X6552188Y-22519780D02*
X6455188Y-22616780D01*
D11*
X6851060Y-22459764D02*
X6870108Y-22459764D01*
X6870108Y-22459764D02*
X6889155Y-22469288D01*
X6889155Y-22469288D02*
X6898679Y-22478812D01*
X6898679Y-22478812D02*
X6908203Y-22497859D01*
X6908203Y-22497859D02*
X6917727Y-22535954D01*
X6917727Y-22535954D02*
X6917727Y-22583574D01*
X6917727Y-22583574D02*
X6908203Y-22621669D01*
X6908203Y-22621669D02*
X6898679Y-22640716D01*
X6898679Y-22640716D02*
X6889155Y-22650240D01*
X6889155Y-22650240D02*
X6870108Y-22659764D01*
X6870108Y-22659764D02*
X6851060Y-22659764D01*
X6851060Y-22659764D02*
X6832013Y-22650240D01*
X6832013Y-22650240D02*
X6822489Y-22640716D01*
X6822489Y-22640716D02*
X6812965Y-22621669D01*
X6812965Y-22621669D02*
X6803441Y-22583574D01*
X6803441Y-22583574D02*
X6803441Y-22535954D01*
X6803441Y-22535954D02*
X6812965Y-22497859D01*
X6812965Y-22497859D02*
X6822489Y-22478812D01*
X6822489Y-22478812D02*
X6832013Y-22469288D01*
X6832013Y-22469288D02*
X6851060Y-22459764D01*
X7003441Y-22640716D02*
X7012965Y-22650240D01*
X7012965Y-22650240D02*
X7003441Y-22659764D01*
X7003441Y-22659764D02*
X6993917Y-22650240D01*
X6993917Y-22650240D02*
X7003441Y-22640716D01*
X7003441Y-22640716D02*
X7003441Y-22659764D01*
X7108203Y-22659764D02*
X7146298Y-22659764D01*
X7146298Y-22659764D02*
X7165346Y-22650240D01*
X7165346Y-22650240D02*
X7174870Y-22640716D01*
X7174870Y-22640716D02*
X7193917Y-22612145D01*
X7193917Y-22612145D02*
X7203441Y-22574050D01*
X7203441Y-22574050D02*
X7203441Y-22497859D01*
X7203441Y-22497859D02*
X7193917Y-22478812D01*
X7193917Y-22478812D02*
X7184394Y-22469288D01*
X7184394Y-22469288D02*
X7165346Y-22459764D01*
X7165346Y-22459764D02*
X7127251Y-22459764D01*
X7127251Y-22459764D02*
X7108203Y-22469288D01*
X7108203Y-22469288D02*
X7098679Y-22478812D01*
X7098679Y-22478812D02*
X7089155Y-22497859D01*
X7089155Y-22497859D02*
X7089155Y-22545478D01*
X7089155Y-22545478D02*
X7098679Y-22564526D01*
X7098679Y-22564526D02*
X7108203Y-22574050D01*
X7108203Y-22574050D02*
X7127251Y-22583574D01*
X7127251Y-22583574D02*
X7165346Y-22583574D01*
X7165346Y-22583574D02*
X7184394Y-22574050D01*
X7184394Y-22574050D02*
X7193917Y-22564526D01*
X7193917Y-22564526D02*
X7203441Y-22545478D01*
X7270108Y-22459764D02*
X7403441Y-22459764D01*
X7403441Y-22459764D02*
X7317727Y-22659764D01*
X7517727Y-22459764D02*
X7536775Y-22459764D01*
X7536775Y-22459764D02*
X7555822Y-22469288D01*
X7555822Y-22469288D02*
X7565346Y-22478812D01*
X7565346Y-22478812D02*
X7574870Y-22497859D01*
X7574870Y-22497859D02*
X7584394Y-22535954D01*
X7584394Y-22535954D02*
X7584394Y-22583574D01*
X7584394Y-22583574D02*
X7574870Y-22621669D01*
X7574870Y-22621669D02*
X7565346Y-22640716D01*
X7565346Y-22640716D02*
X7555822Y-22650240D01*
X7555822Y-22650240D02*
X7536775Y-22659764D01*
X7536775Y-22659764D02*
X7517727Y-22659764D01*
X7517727Y-22659764D02*
X7498679Y-22650240D01*
X7498679Y-22650240D02*
X7489155Y-22640716D01*
X7489155Y-22640716D02*
X7479632Y-22621669D01*
X7479632Y-22621669D02*
X7470108Y-22583574D01*
X7470108Y-22583574D02*
X7470108Y-22535954D01*
X7470108Y-22535954D02*
X7479632Y-22497859D01*
X7479632Y-22497859D02*
X7489155Y-22478812D01*
X7489155Y-22478812D02*
X7498679Y-22469288D01*
X7498679Y-22469288D02*
X7517727Y-22459764D01*
X7670108Y-22659764D02*
X7670108Y-22526431D01*
X7670108Y-22545478D02*
X7679632Y-22535954D01*
X7679632Y-22535954D02*
X7698679Y-22526431D01*
X7698679Y-22526431D02*
X7727251Y-22526431D01*
X7727251Y-22526431D02*
X7746298Y-22535954D01*
X7746298Y-22535954D02*
X7755822Y-22555002D01*
X7755822Y-22555002D02*
X7755822Y-22659764D01*
X7755822Y-22555002D02*
X7765346Y-22535954D01*
X7765346Y-22535954D02*
X7784394Y-22526431D01*
X7784394Y-22526431D02*
X7812965Y-22526431D01*
X7812965Y-22526431D02*
X7832013Y-22535954D01*
X7832013Y-22535954D02*
X7841536Y-22555002D01*
X7841536Y-22555002D02*
X7841536Y-22659764D01*
X7936775Y-22659764D02*
X7936775Y-22526431D01*
X7936775Y-22545478D02*
X7946298Y-22535954D01*
X7946298Y-22535954D02*
X7965346Y-22526431D01*
X7965346Y-22526431D02*
X7993917Y-22526431D01*
X7993917Y-22526431D02*
X8012965Y-22535954D01*
X8012965Y-22535954D02*
X8022489Y-22555002D01*
X8022489Y-22555002D02*
X8022489Y-22659764D01*
X8022489Y-22555002D02*
X8032013Y-22535954D01*
X8032013Y-22535954D02*
X8051060Y-22526431D01*
X8051060Y-22526431D02*
X8079632Y-22526431D01*
X8079632Y-22526431D02*
X8098679Y-22535954D01*
X8098679Y-22535954D02*
X8108203Y-22555002D01*
X8108203Y-22555002D02*
X8108203Y-22659764D01*
X8498679Y-22450240D02*
X8327251Y-22707383D01*
X8755822Y-22459764D02*
X8774870Y-22459764D01*
X8774870Y-22459764D02*
X8793918Y-22469288D01*
X8793918Y-22469288D02*
X8803441Y-22478812D01*
X8803441Y-22478812D02*
X8812965Y-22497859D01*
X8812965Y-22497859D02*
X8822489Y-22535954D01*
X8822489Y-22535954D02*
X8822489Y-22583574D01*
X8822489Y-22583574D02*
X8812965Y-22621669D01*
X8812965Y-22621669D02*
X8803441Y-22640716D01*
X8803441Y-22640716D02*
X8793918Y-22650240D01*
X8793918Y-22650240D02*
X8774870Y-22659764D01*
X8774870Y-22659764D02*
X8755822Y-22659764D01*
X8755822Y-22659764D02*
X8736775Y-22650240D01*
X8736775Y-22650240D02*
X8727251Y-22640716D01*
X8727251Y-22640716D02*
X8717727Y-22621669D01*
X8717727Y-22621669D02*
X8708203Y-22583574D01*
X8708203Y-22583574D02*
X8708203Y-22535954D01*
X8708203Y-22535954D02*
X8717727Y-22497859D01*
X8717727Y-22497859D02*
X8727251Y-22478812D01*
X8727251Y-22478812D02*
X8736775Y-22469288D01*
X8736775Y-22469288D02*
X8755822Y-22459764D01*
X8908203Y-22640716D02*
X8917727Y-22650240D01*
X8917727Y-22650240D02*
X8908203Y-22659764D01*
X8908203Y-22659764D02*
X8898680Y-22650240D01*
X8898680Y-22650240D02*
X8908203Y-22640716D01*
X8908203Y-22640716D02*
X8908203Y-22659764D01*
X9041537Y-22459764D02*
X9060584Y-22459764D01*
X9060584Y-22459764D02*
X9079632Y-22469288D01*
X9079632Y-22469288D02*
X9089156Y-22478812D01*
X9089156Y-22478812D02*
X9098680Y-22497859D01*
X9098680Y-22497859D02*
X9108203Y-22535954D01*
X9108203Y-22535954D02*
X9108203Y-22583574D01*
X9108203Y-22583574D02*
X9098680Y-22621669D01*
X9098680Y-22621669D02*
X9089156Y-22640716D01*
X9089156Y-22640716D02*
X9079632Y-22650240D01*
X9079632Y-22650240D02*
X9060584Y-22659764D01*
X9060584Y-22659764D02*
X9041537Y-22659764D01*
X9041537Y-22659764D02*
X9022489Y-22650240D01*
X9022489Y-22650240D02*
X9012965Y-22640716D01*
X9012965Y-22640716D02*
X9003441Y-22621669D01*
X9003441Y-22621669D02*
X8993918Y-22583574D01*
X8993918Y-22583574D02*
X8993918Y-22535954D01*
X8993918Y-22535954D02*
X9003441Y-22497859D01*
X9003441Y-22497859D02*
X9012965Y-22478812D01*
X9012965Y-22478812D02*
X9022489Y-22469288D01*
X9022489Y-22469288D02*
X9041537Y-22459764D01*
X9174870Y-22459764D02*
X9298680Y-22459764D01*
X9298680Y-22459764D02*
X9232013Y-22535954D01*
X9232013Y-22535954D02*
X9260584Y-22535954D01*
X9260584Y-22535954D02*
X9279632Y-22545478D01*
X9279632Y-22545478D02*
X9289156Y-22555002D01*
X9289156Y-22555002D02*
X9298680Y-22574050D01*
X9298680Y-22574050D02*
X9298680Y-22621669D01*
X9298680Y-22621669D02*
X9289156Y-22640716D01*
X9289156Y-22640716D02*
X9279632Y-22650240D01*
X9279632Y-22650240D02*
X9260584Y-22659764D01*
X9260584Y-22659764D02*
X9203441Y-22659764D01*
X9203441Y-22659764D02*
X9184394Y-22650240D01*
X9184394Y-22650240D02*
X9174870Y-22640716D01*
X9412965Y-22545478D02*
X9393918Y-22535954D01*
X9393918Y-22535954D02*
X9384394Y-22526431D01*
X9384394Y-22526431D02*
X9374870Y-22507383D01*
X9374870Y-22507383D02*
X9374870Y-22497859D01*
X9374870Y-22497859D02*
X9384394Y-22478812D01*
X9384394Y-22478812D02*
X9393918Y-22469288D01*
X9393918Y-22469288D02*
X9412965Y-22459764D01*
X9412965Y-22459764D02*
X9451061Y-22459764D01*
X9451061Y-22459764D02*
X9470108Y-22469288D01*
X9470108Y-22469288D02*
X9479632Y-22478812D01*
X9479632Y-22478812D02*
X9489156Y-22497859D01*
X9489156Y-22497859D02*
X9489156Y-22507383D01*
X9489156Y-22507383D02*
X9479632Y-22526431D01*
X9479632Y-22526431D02*
X9470108Y-22535954D01*
X9470108Y-22535954D02*
X9451061Y-22545478D01*
X9451061Y-22545478D02*
X9412965Y-22545478D01*
X9412965Y-22545478D02*
X9393918Y-22555002D01*
X9393918Y-22555002D02*
X9384394Y-22564526D01*
X9384394Y-22564526D02*
X9374870Y-22583574D01*
X9374870Y-22583574D02*
X9374870Y-22621669D01*
X9374870Y-22621669D02*
X9384394Y-22640716D01*
X9384394Y-22640716D02*
X9393918Y-22650240D01*
X9393918Y-22650240D02*
X9412965Y-22659764D01*
X9412965Y-22659764D02*
X9451061Y-22659764D01*
X9451061Y-22659764D02*
X9470108Y-22650240D01*
X9470108Y-22650240D02*
X9479632Y-22640716D01*
X9479632Y-22640716D02*
X9489156Y-22621669D01*
X9489156Y-22621669D02*
X9489156Y-22583574D01*
X9489156Y-22583574D02*
X9479632Y-22564526D01*
X9479632Y-22564526D02*
X9470108Y-22555002D01*
X9470108Y-22555002D02*
X9451061Y-22545478D01*
X9565346Y-22478812D02*
X9574870Y-22469288D01*
X9574870Y-22469288D02*
X9593918Y-22459764D01*
X9593918Y-22459764D02*
X9641537Y-22459764D01*
X9641537Y-22459764D02*
X9660584Y-22469288D01*
X9660584Y-22469288D02*
X9670108Y-22478812D01*
X9670108Y-22478812D02*
X9679632Y-22497859D01*
X9679632Y-22497859D02*
X9679632Y-22516907D01*
X9679632Y-22516907D02*
X9670108Y-22545478D01*
X9670108Y-22545478D02*
X9555822Y-22659764D01*
X9555822Y-22659764D02*
X9679632Y-22659764D01*
X9755822Y-22459764D02*
X9755822Y-22497859D01*
X9832013Y-22459764D02*
X9832013Y-22497859D01*
X10127251Y-22735954D02*
X10117727Y-22726431D01*
X10117727Y-22726431D02*
X10098680Y-22697859D01*
X10098680Y-22697859D02*
X10089156Y-22678812D01*
X10089156Y-22678812D02*
X10079632Y-22650240D01*
X10079632Y-22650240D02*
X10070108Y-22602621D01*
X10070108Y-22602621D02*
X10070108Y-22564526D01*
X10070108Y-22564526D02*
X10079632Y-22516907D01*
X10079632Y-22516907D02*
X10089156Y-22488335D01*
X10089156Y-22488335D02*
X10098680Y-22469288D01*
X10098680Y-22469288D02*
X10117727Y-22440716D01*
X10117727Y-22440716D02*
X10127251Y-22431193D01*
X10289156Y-22459764D02*
X10251061Y-22459764D01*
X10251061Y-22459764D02*
X10232013Y-22469288D01*
X10232013Y-22469288D02*
X10222489Y-22478812D01*
X10222489Y-22478812D02*
X10203442Y-22507383D01*
X10203442Y-22507383D02*
X10193918Y-22545478D01*
X10193918Y-22545478D02*
X10193918Y-22621669D01*
X10193918Y-22621669D02*
X10203442Y-22640716D01*
X10203442Y-22640716D02*
X10212965Y-22650240D01*
X10212965Y-22650240D02*
X10232013Y-22659764D01*
X10232013Y-22659764D02*
X10270108Y-22659764D01*
X10270108Y-22659764D02*
X10289156Y-22650240D01*
X10289156Y-22650240D02*
X10298680Y-22640716D01*
X10298680Y-22640716D02*
X10308203Y-22621669D01*
X10308203Y-22621669D02*
X10308203Y-22574050D01*
X10308203Y-22574050D02*
X10298680Y-22555002D01*
X10298680Y-22555002D02*
X10289156Y-22545478D01*
X10289156Y-22545478D02*
X10270108Y-22535954D01*
X10270108Y-22535954D02*
X10232013Y-22535954D01*
X10232013Y-22535954D02*
X10212965Y-22545478D01*
X10212965Y-22545478D02*
X10203442Y-22555002D01*
X10203442Y-22555002D02*
X10193918Y-22574050D01*
X10479632Y-22526431D02*
X10479632Y-22659764D01*
X10432013Y-22450240D02*
X10384394Y-22593097D01*
X10384394Y-22593097D02*
X10508203Y-22593097D01*
X10736775Y-22659764D02*
X10736775Y-22459764D01*
X10822489Y-22659764D02*
X10822489Y-22555002D01*
X10822489Y-22555002D02*
X10812965Y-22535954D01*
X10812965Y-22535954D02*
X10793918Y-22526431D01*
X10793918Y-22526431D02*
X10765346Y-22526431D01*
X10765346Y-22526431D02*
X10746299Y-22535954D01*
X10746299Y-22535954D02*
X10736775Y-22545478D01*
X10946299Y-22659764D02*
X10927251Y-22650240D01*
X10927251Y-22650240D02*
X10917727Y-22640716D01*
X10917727Y-22640716D02*
X10908204Y-22621669D01*
X10908204Y-22621669D02*
X10908204Y-22564526D01*
X10908204Y-22564526D02*
X10917727Y-22545478D01*
X10917727Y-22545478D02*
X10927251Y-22535954D01*
X10927251Y-22535954D02*
X10946299Y-22526431D01*
X10946299Y-22526431D02*
X10974870Y-22526431D01*
X10974870Y-22526431D02*
X10993918Y-22535954D01*
X10993918Y-22535954D02*
X11003442Y-22545478D01*
X11003442Y-22545478D02*
X11012965Y-22564526D01*
X11012965Y-22564526D02*
X11012965Y-22621669D01*
X11012965Y-22621669D02*
X11003442Y-22640716D01*
X11003442Y-22640716D02*
X10993918Y-22650240D01*
X10993918Y-22650240D02*
X10974870Y-22659764D01*
X10974870Y-22659764D02*
X10946299Y-22659764D01*
X11127251Y-22659764D02*
X11108204Y-22650240D01*
X11108204Y-22650240D02*
X11098680Y-22631193D01*
X11098680Y-22631193D02*
X11098680Y-22459764D01*
X11279632Y-22650240D02*
X11260584Y-22659764D01*
X11260584Y-22659764D02*
X11222489Y-22659764D01*
X11222489Y-22659764D02*
X11203442Y-22650240D01*
X11203442Y-22650240D02*
X11193918Y-22631193D01*
X11193918Y-22631193D02*
X11193918Y-22555002D01*
X11193918Y-22555002D02*
X11203442Y-22535954D01*
X11203442Y-22535954D02*
X11222489Y-22526431D01*
X11222489Y-22526431D02*
X11260584Y-22526431D01*
X11260584Y-22526431D02*
X11279632Y-22535954D01*
X11279632Y-22535954D02*
X11289156Y-22555002D01*
X11289156Y-22555002D02*
X11289156Y-22574050D01*
X11289156Y-22574050D02*
X11193918Y-22593097D01*
X11365346Y-22650240D02*
X11384394Y-22659764D01*
X11384394Y-22659764D02*
X11422489Y-22659764D01*
X11422489Y-22659764D02*
X11441537Y-22650240D01*
X11441537Y-22650240D02*
X11451061Y-22631193D01*
X11451061Y-22631193D02*
X11451061Y-22621669D01*
X11451061Y-22621669D02*
X11441537Y-22602621D01*
X11441537Y-22602621D02*
X11422489Y-22593097D01*
X11422489Y-22593097D02*
X11393918Y-22593097D01*
X11393918Y-22593097D02*
X11374870Y-22583574D01*
X11374870Y-22583574D02*
X11365346Y-22564526D01*
X11365346Y-22564526D02*
X11365346Y-22555002D01*
X11365346Y-22555002D02*
X11374870Y-22535954D01*
X11374870Y-22535954D02*
X11393918Y-22526431D01*
X11393918Y-22526431D02*
X11422489Y-22526431D01*
X11422489Y-22526431D02*
X11441537Y-22535954D01*
X11517727Y-22735954D02*
X11527251Y-22726431D01*
X11527251Y-22726431D02*
X11546299Y-22697859D01*
X11546299Y-22697859D02*
X11555823Y-22678812D01*
X11555823Y-22678812D02*
X11565346Y-22650240D01*
X11565346Y-22650240D02*
X11574870Y-22602621D01*
X11574870Y-22602621D02*
X11574870Y-22564526D01*
X11574870Y-22564526D02*
X11565346Y-22516907D01*
X11565346Y-22516907D02*
X11555823Y-22488335D01*
X11555823Y-22488335D02*
X11546299Y-22469288D01*
X11546299Y-22469288D02*
X11527251Y-22440716D01*
X11527251Y-22440716D02*
X11517727Y-22431193D01*
X11879632Y-22735954D02*
X11870108Y-22726431D01*
X11870108Y-22726431D02*
X11851061Y-22697859D01*
X11851061Y-22697859D02*
X11841537Y-22678812D01*
X11841537Y-22678812D02*
X11832013Y-22650240D01*
X11832013Y-22650240D02*
X11822489Y-22602621D01*
X11822489Y-22602621D02*
X11822489Y-22564526D01*
X11822489Y-22564526D02*
X11832013Y-22516907D01*
X11832013Y-22516907D02*
X11841537Y-22488335D01*
X11841537Y-22488335D02*
X11851061Y-22469288D01*
X11851061Y-22469288D02*
X11870108Y-22440716D01*
X11870108Y-22440716D02*
X11879632Y-22431193D01*
X11955823Y-22526431D02*
X11955823Y-22659764D01*
X11955823Y-22545478D02*
X11965346Y-22535954D01*
X11965346Y-22535954D02*
X11984394Y-22526431D01*
X11984394Y-22526431D02*
X12012965Y-22526431D01*
X12012965Y-22526431D02*
X12032013Y-22535954D01*
X12032013Y-22535954D02*
X12041537Y-22555002D01*
X12041537Y-22555002D02*
X12041537Y-22659764D01*
X12165346Y-22659764D02*
X12146299Y-22650240D01*
X12146299Y-22650240D02*
X12136775Y-22640716D01*
X12136775Y-22640716D02*
X12127251Y-22621669D01*
X12127251Y-22621669D02*
X12127251Y-22564526D01*
X12127251Y-22564526D02*
X12136775Y-22545478D01*
X12136775Y-22545478D02*
X12146299Y-22535954D01*
X12146299Y-22535954D02*
X12165346Y-22526431D01*
X12165346Y-22526431D02*
X12193918Y-22526431D01*
X12193918Y-22526431D02*
X12212965Y-22535954D01*
X12212965Y-22535954D02*
X12222489Y-22545478D01*
X12222489Y-22545478D02*
X12232013Y-22564526D01*
X12232013Y-22564526D02*
X12232013Y-22621669D01*
X12232013Y-22621669D02*
X12222489Y-22640716D01*
X12222489Y-22640716D02*
X12212965Y-22650240D01*
X12212965Y-22650240D02*
X12193918Y-22659764D01*
X12193918Y-22659764D02*
X12165346Y-22659764D01*
X12289156Y-22526431D02*
X12365346Y-22526431D01*
X12317727Y-22459764D02*
X12317727Y-22631193D01*
X12317727Y-22631193D02*
X12327251Y-22650240D01*
X12327251Y-22650240D02*
X12346299Y-22659764D01*
X12346299Y-22659764D02*
X12365346Y-22659764D01*
X12584394Y-22526431D02*
X12584394Y-22726431D01*
X12584394Y-22535954D02*
X12603442Y-22526431D01*
X12603442Y-22526431D02*
X12641537Y-22526431D01*
X12641537Y-22526431D02*
X12660585Y-22535954D01*
X12660585Y-22535954D02*
X12670108Y-22545478D01*
X12670108Y-22545478D02*
X12679632Y-22564526D01*
X12679632Y-22564526D02*
X12679632Y-22621669D01*
X12679632Y-22621669D02*
X12670108Y-22640716D01*
X12670108Y-22640716D02*
X12660585Y-22650240D01*
X12660585Y-22650240D02*
X12641537Y-22659764D01*
X12641537Y-22659764D02*
X12603442Y-22659764D01*
X12603442Y-22659764D02*
X12584394Y-22650240D01*
X12793918Y-22659764D02*
X12774870Y-22650240D01*
X12774870Y-22650240D02*
X12765346Y-22631193D01*
X12765346Y-22631193D02*
X12765346Y-22459764D01*
X12955823Y-22659764D02*
X12955823Y-22555002D01*
X12955823Y-22555002D02*
X12946299Y-22535954D01*
X12946299Y-22535954D02*
X12927251Y-22526431D01*
X12927251Y-22526431D02*
X12889156Y-22526431D01*
X12889156Y-22526431D02*
X12870108Y-22535954D01*
X12955823Y-22650240D02*
X12936775Y-22659764D01*
X12936775Y-22659764D02*
X12889156Y-22659764D01*
X12889156Y-22659764D02*
X12870108Y-22650240D01*
X12870108Y-22650240D02*
X12860585Y-22631193D01*
X12860585Y-22631193D02*
X12860585Y-22612145D01*
X12860585Y-22612145D02*
X12870108Y-22593097D01*
X12870108Y-22593097D02*
X12889156Y-22583574D01*
X12889156Y-22583574D02*
X12936775Y-22583574D01*
X12936775Y-22583574D02*
X12955823Y-22574050D01*
X13022489Y-22526431D02*
X13098680Y-22526431D01*
X13051061Y-22459764D02*
X13051061Y-22631193D01*
X13051061Y-22631193D02*
X13060585Y-22650240D01*
X13060585Y-22650240D02*
X13079632Y-22659764D01*
X13079632Y-22659764D02*
X13098680Y-22659764D01*
X13241537Y-22650240D02*
X13222489Y-22659764D01*
X13222489Y-22659764D02*
X13184394Y-22659764D01*
X13184394Y-22659764D02*
X13165346Y-22650240D01*
X13165346Y-22650240D02*
X13155823Y-22631193D01*
X13155823Y-22631193D02*
X13155823Y-22555002D01*
X13155823Y-22555002D02*
X13165346Y-22535954D01*
X13165346Y-22535954D02*
X13184394Y-22526431D01*
X13184394Y-22526431D02*
X13222489Y-22526431D01*
X13222489Y-22526431D02*
X13241537Y-22535954D01*
X13241537Y-22535954D02*
X13251061Y-22555002D01*
X13251061Y-22555002D02*
X13251061Y-22574050D01*
X13251061Y-22574050D02*
X13155823Y-22593097D01*
X13422489Y-22659764D02*
X13422489Y-22459764D01*
X13422489Y-22650240D02*
X13403442Y-22659764D01*
X13403442Y-22659764D02*
X13365346Y-22659764D01*
X13365346Y-22659764D02*
X13346299Y-22650240D01*
X13346299Y-22650240D02*
X13336775Y-22640716D01*
X13336775Y-22640716D02*
X13327251Y-22621669D01*
X13327251Y-22621669D02*
X13327251Y-22564526D01*
X13327251Y-22564526D02*
X13336775Y-22545478D01*
X13336775Y-22545478D02*
X13346299Y-22535954D01*
X13346299Y-22535954D02*
X13365346Y-22526431D01*
X13365346Y-22526431D02*
X13403442Y-22526431D01*
X13403442Y-22526431D02*
X13422489Y-22535954D01*
X13498680Y-22735954D02*
X13508204Y-22726431D01*
X13508204Y-22726431D02*
X13527251Y-22697859D01*
X13527251Y-22697859D02*
X13536775Y-22678812D01*
X13536775Y-22678812D02*
X13546299Y-22650240D01*
X13546299Y-22650240D02*
X13555823Y-22602621D01*
X13555823Y-22602621D02*
X13555823Y-22564526D01*
X13555823Y-22564526D02*
X13546299Y-22516907D01*
X13546299Y-22516907D02*
X13536775Y-22488335D01*
X13536775Y-22488335D02*
X13527251Y-22469288D01*
X13527251Y-22469288D02*
X13508204Y-22440716D01*
X13508204Y-22440716D02*
X13498680Y-22431193D01*
X6552188Y-22832280D02*
G75*
G02*
X6352188Y-22832280I-100000J0D01*
G01*
X6352188Y-22832280D02*
G75*
G02*
X6552188Y-22832280I100000J0D01*
G01*
X6803441Y-22742812D02*
X6812965Y-22733288D01*
X6812965Y-22733288D02*
X6832013Y-22723764D01*
X6832013Y-22723764D02*
X6879632Y-22723764D01*
X6879632Y-22723764D02*
X6898679Y-22733288D01*
X6898679Y-22733288D02*
X6908203Y-22742812D01*
X6908203Y-22742812D02*
X6917727Y-22761859D01*
X6917727Y-22761859D02*
X6917727Y-22780907D01*
X6917727Y-22780907D02*
X6908203Y-22809478D01*
X6908203Y-22809478D02*
X6793917Y-22923764D01*
X6793917Y-22923764D02*
X6917727Y-22923764D01*
X7003441Y-22904716D02*
X7012965Y-22914240D01*
X7012965Y-22914240D02*
X7003441Y-22923764D01*
X7003441Y-22923764D02*
X6993917Y-22914240D01*
X6993917Y-22914240D02*
X7003441Y-22904716D01*
X7003441Y-22904716D02*
X7003441Y-22923764D01*
X7184394Y-22790431D02*
X7184394Y-22923764D01*
X7136774Y-22714240D02*
X7089155Y-22857097D01*
X7089155Y-22857097D02*
X7212965Y-22857097D01*
X7393917Y-22923764D02*
X7279632Y-22923764D01*
X7336774Y-22923764D02*
X7336774Y-22723764D01*
X7336774Y-22723764D02*
X7317727Y-22752335D01*
X7317727Y-22752335D02*
X7298679Y-22771383D01*
X7298679Y-22771383D02*
X7279632Y-22780907D01*
X7517727Y-22723764D02*
X7536775Y-22723764D01*
X7536775Y-22723764D02*
X7555822Y-22733288D01*
X7555822Y-22733288D02*
X7565346Y-22742812D01*
X7565346Y-22742812D02*
X7574870Y-22761859D01*
X7574870Y-22761859D02*
X7584394Y-22799954D01*
X7584394Y-22799954D02*
X7584394Y-22847574D01*
X7584394Y-22847574D02*
X7574870Y-22885669D01*
X7574870Y-22885669D02*
X7565346Y-22904716D01*
X7565346Y-22904716D02*
X7555822Y-22914240D01*
X7555822Y-22914240D02*
X7536775Y-22923764D01*
X7536775Y-22923764D02*
X7517727Y-22923764D01*
X7517727Y-22923764D02*
X7498679Y-22914240D01*
X7498679Y-22914240D02*
X7489155Y-22904716D01*
X7489155Y-22904716D02*
X7479632Y-22885669D01*
X7479632Y-22885669D02*
X7470108Y-22847574D01*
X7470108Y-22847574D02*
X7470108Y-22799954D01*
X7470108Y-22799954D02*
X7479632Y-22761859D01*
X7479632Y-22761859D02*
X7489155Y-22742812D01*
X7489155Y-22742812D02*
X7498679Y-22733288D01*
X7498679Y-22733288D02*
X7517727Y-22723764D01*
X7670108Y-22923764D02*
X7670108Y-22790431D01*
X7670108Y-22809478D02*
X7679632Y-22799954D01*
X7679632Y-22799954D02*
X7698679Y-22790431D01*
X7698679Y-22790431D02*
X7727251Y-22790431D01*
X7727251Y-22790431D02*
X7746298Y-22799954D01*
X7746298Y-22799954D02*
X7755822Y-22819002D01*
X7755822Y-22819002D02*
X7755822Y-22923764D01*
X7755822Y-22819002D02*
X7765346Y-22799954D01*
X7765346Y-22799954D02*
X7784394Y-22790431D01*
X7784394Y-22790431D02*
X7812965Y-22790431D01*
X7812965Y-22790431D02*
X7832013Y-22799954D01*
X7832013Y-22799954D02*
X7841536Y-22819002D01*
X7841536Y-22819002D02*
X7841536Y-22923764D01*
X7936775Y-22923764D02*
X7936775Y-22790431D01*
X7936775Y-22809478D02*
X7946298Y-22799954D01*
X7946298Y-22799954D02*
X7965346Y-22790431D01*
X7965346Y-22790431D02*
X7993917Y-22790431D01*
X7993917Y-22790431D02*
X8012965Y-22799954D01*
X8012965Y-22799954D02*
X8022489Y-22819002D01*
X8022489Y-22819002D02*
X8022489Y-22923764D01*
X8022489Y-22819002D02*
X8032013Y-22799954D01*
X8032013Y-22799954D02*
X8051060Y-22790431D01*
X8051060Y-22790431D02*
X8079632Y-22790431D01*
X8079632Y-22790431D02*
X8098679Y-22799954D01*
X8098679Y-22799954D02*
X8108203Y-22819002D01*
X8108203Y-22819002D02*
X8108203Y-22923764D01*
X8498679Y-22714240D02*
X8327251Y-22971383D01*
X8755822Y-22723764D02*
X8774870Y-22723764D01*
X8774870Y-22723764D02*
X8793918Y-22733288D01*
X8793918Y-22733288D02*
X8803441Y-22742812D01*
X8803441Y-22742812D02*
X8812965Y-22761859D01*
X8812965Y-22761859D02*
X8822489Y-22799954D01*
X8822489Y-22799954D02*
X8822489Y-22847574D01*
X8822489Y-22847574D02*
X8812965Y-22885669D01*
X8812965Y-22885669D02*
X8803441Y-22904716D01*
X8803441Y-22904716D02*
X8793918Y-22914240D01*
X8793918Y-22914240D02*
X8774870Y-22923764D01*
X8774870Y-22923764D02*
X8755822Y-22923764D01*
X8755822Y-22923764D02*
X8736775Y-22914240D01*
X8736775Y-22914240D02*
X8727251Y-22904716D01*
X8727251Y-22904716D02*
X8717727Y-22885669D01*
X8717727Y-22885669D02*
X8708203Y-22847574D01*
X8708203Y-22847574D02*
X8708203Y-22799954D01*
X8708203Y-22799954D02*
X8717727Y-22761859D01*
X8717727Y-22761859D02*
X8727251Y-22742812D01*
X8727251Y-22742812D02*
X8736775Y-22733288D01*
X8736775Y-22733288D02*
X8755822Y-22723764D01*
X8908203Y-22904716D02*
X8917727Y-22914240D01*
X8917727Y-22914240D02*
X8908203Y-22923764D01*
X8908203Y-22923764D02*
X8898680Y-22914240D01*
X8898680Y-22914240D02*
X8908203Y-22904716D01*
X8908203Y-22904716D02*
X8908203Y-22923764D01*
X9041537Y-22723764D02*
X9060584Y-22723764D01*
X9060584Y-22723764D02*
X9079632Y-22733288D01*
X9079632Y-22733288D02*
X9089156Y-22742812D01*
X9089156Y-22742812D02*
X9098680Y-22761859D01*
X9098680Y-22761859D02*
X9108203Y-22799954D01*
X9108203Y-22799954D02*
X9108203Y-22847574D01*
X9108203Y-22847574D02*
X9098680Y-22885669D01*
X9098680Y-22885669D02*
X9089156Y-22904716D01*
X9089156Y-22904716D02*
X9079632Y-22914240D01*
X9079632Y-22914240D02*
X9060584Y-22923764D01*
X9060584Y-22923764D02*
X9041537Y-22923764D01*
X9041537Y-22923764D02*
X9022489Y-22914240D01*
X9022489Y-22914240D02*
X9012965Y-22904716D01*
X9012965Y-22904716D02*
X9003441Y-22885669D01*
X9003441Y-22885669D02*
X8993918Y-22847574D01*
X8993918Y-22847574D02*
X8993918Y-22799954D01*
X8993918Y-22799954D02*
X9003441Y-22761859D01*
X9003441Y-22761859D02*
X9012965Y-22742812D01*
X9012965Y-22742812D02*
X9022489Y-22733288D01*
X9022489Y-22733288D02*
X9041537Y-22723764D01*
X9203441Y-22923764D02*
X9241537Y-22923764D01*
X9241537Y-22923764D02*
X9260584Y-22914240D01*
X9260584Y-22914240D02*
X9270108Y-22904716D01*
X9270108Y-22904716D02*
X9289156Y-22876145D01*
X9289156Y-22876145D02*
X9298680Y-22838050D01*
X9298680Y-22838050D02*
X9298680Y-22761859D01*
X9298680Y-22761859D02*
X9289156Y-22742812D01*
X9289156Y-22742812D02*
X9279632Y-22733288D01*
X9279632Y-22733288D02*
X9260584Y-22723764D01*
X9260584Y-22723764D02*
X9222489Y-22723764D01*
X9222489Y-22723764D02*
X9203441Y-22733288D01*
X9203441Y-22733288D02*
X9193918Y-22742812D01*
X9193918Y-22742812D02*
X9184394Y-22761859D01*
X9184394Y-22761859D02*
X9184394Y-22809478D01*
X9184394Y-22809478D02*
X9193918Y-22828526D01*
X9193918Y-22828526D02*
X9203441Y-22838050D01*
X9203441Y-22838050D02*
X9222489Y-22847574D01*
X9222489Y-22847574D02*
X9260584Y-22847574D01*
X9260584Y-22847574D02*
X9279632Y-22838050D01*
X9279632Y-22838050D02*
X9289156Y-22828526D01*
X9289156Y-22828526D02*
X9298680Y-22809478D01*
X9470108Y-22790431D02*
X9470108Y-22923764D01*
X9422489Y-22714240D02*
X9374870Y-22857097D01*
X9374870Y-22857097D02*
X9498680Y-22857097D01*
X9584394Y-22923764D02*
X9622489Y-22923764D01*
X9622489Y-22923764D02*
X9641537Y-22914240D01*
X9641537Y-22914240D02*
X9651061Y-22904716D01*
X9651061Y-22904716D02*
X9670108Y-22876145D01*
X9670108Y-22876145D02*
X9679632Y-22838050D01*
X9679632Y-22838050D02*
X9679632Y-22761859D01*
X9679632Y-22761859D02*
X9670108Y-22742812D01*
X9670108Y-22742812D02*
X9660584Y-22733288D01*
X9660584Y-22733288D02*
X9641537Y-22723764D01*
X9641537Y-22723764D02*
X9603441Y-22723764D01*
X9603441Y-22723764D02*
X9584394Y-22733288D01*
X9584394Y-22733288D02*
X9574870Y-22742812D01*
X9574870Y-22742812D02*
X9565346Y-22761859D01*
X9565346Y-22761859D02*
X9565346Y-22809478D01*
X9565346Y-22809478D02*
X9574870Y-22828526D01*
X9574870Y-22828526D02*
X9584394Y-22838050D01*
X9584394Y-22838050D02*
X9603441Y-22847574D01*
X9603441Y-22847574D02*
X9641537Y-22847574D01*
X9641537Y-22847574D02*
X9660584Y-22838050D01*
X9660584Y-22838050D02*
X9670108Y-22828526D01*
X9670108Y-22828526D02*
X9679632Y-22809478D01*
X9755822Y-22723764D02*
X9755822Y-22761859D01*
X9832013Y-22723764D02*
X9832013Y-22761859D01*
X10127251Y-22999954D02*
X10117727Y-22990431D01*
X10117727Y-22990431D02*
X10098680Y-22961859D01*
X10098680Y-22961859D02*
X10089156Y-22942812D01*
X10089156Y-22942812D02*
X10079632Y-22914240D01*
X10079632Y-22914240D02*
X10070108Y-22866621D01*
X10070108Y-22866621D02*
X10070108Y-22828526D01*
X10070108Y-22828526D02*
X10079632Y-22780907D01*
X10079632Y-22780907D02*
X10089156Y-22752335D01*
X10089156Y-22752335D02*
X10098680Y-22733288D01*
X10098680Y-22733288D02*
X10117727Y-22704716D01*
X10117727Y-22704716D02*
X10127251Y-22695193D01*
X10193918Y-22742812D02*
X10203442Y-22733288D01*
X10203442Y-22733288D02*
X10222489Y-22723764D01*
X10222489Y-22723764D02*
X10270108Y-22723764D01*
X10270108Y-22723764D02*
X10289156Y-22733288D01*
X10289156Y-22733288D02*
X10298680Y-22742812D01*
X10298680Y-22742812D02*
X10308203Y-22761859D01*
X10308203Y-22761859D02*
X10308203Y-22780907D01*
X10308203Y-22780907D02*
X10298680Y-22809478D01*
X10298680Y-22809478D02*
X10184394Y-22923764D01*
X10184394Y-22923764D02*
X10308203Y-22923764D01*
X10546299Y-22923764D02*
X10546299Y-22723764D01*
X10632013Y-22923764D02*
X10632013Y-22819002D01*
X10632013Y-22819002D02*
X10622489Y-22799954D01*
X10622489Y-22799954D02*
X10603442Y-22790431D01*
X10603442Y-22790431D02*
X10574870Y-22790431D01*
X10574870Y-22790431D02*
X10555823Y-22799954D01*
X10555823Y-22799954D02*
X10546299Y-22809478D01*
X10755823Y-22923764D02*
X10736775Y-22914240D01*
X10736775Y-22914240D02*
X10727251Y-22904716D01*
X10727251Y-22904716D02*
X10717727Y-22885669D01*
X10717727Y-22885669D02*
X10717727Y-22828526D01*
X10717727Y-22828526D02*
X10727251Y-22809478D01*
X10727251Y-22809478D02*
X10736775Y-22799954D01*
X10736775Y-22799954D02*
X10755823Y-22790431D01*
X10755823Y-22790431D02*
X10784394Y-22790431D01*
X10784394Y-22790431D02*
X10803442Y-22799954D01*
X10803442Y-22799954D02*
X10812965Y-22809478D01*
X10812965Y-22809478D02*
X10822489Y-22828526D01*
X10822489Y-22828526D02*
X10822489Y-22885669D01*
X10822489Y-22885669D02*
X10812965Y-22904716D01*
X10812965Y-22904716D02*
X10803442Y-22914240D01*
X10803442Y-22914240D02*
X10784394Y-22923764D01*
X10784394Y-22923764D02*
X10755823Y-22923764D01*
X10936775Y-22923764D02*
X10917727Y-22914240D01*
X10917727Y-22914240D02*
X10908204Y-22895193D01*
X10908204Y-22895193D02*
X10908204Y-22723764D01*
X11089156Y-22914240D02*
X11070108Y-22923764D01*
X11070108Y-22923764D02*
X11032013Y-22923764D01*
X11032013Y-22923764D02*
X11012965Y-22914240D01*
X11012965Y-22914240D02*
X11003442Y-22895193D01*
X11003442Y-22895193D02*
X11003442Y-22819002D01*
X11003442Y-22819002D02*
X11012965Y-22799954D01*
X11012965Y-22799954D02*
X11032013Y-22790431D01*
X11032013Y-22790431D02*
X11070108Y-22790431D01*
X11070108Y-22790431D02*
X11089156Y-22799954D01*
X11089156Y-22799954D02*
X11098680Y-22819002D01*
X11098680Y-22819002D02*
X11098680Y-22838050D01*
X11098680Y-22838050D02*
X11003442Y-22857097D01*
X11174870Y-22914240D02*
X11193918Y-22923764D01*
X11193918Y-22923764D02*
X11232013Y-22923764D01*
X11232013Y-22923764D02*
X11251061Y-22914240D01*
X11251061Y-22914240D02*
X11260584Y-22895193D01*
X11260584Y-22895193D02*
X11260584Y-22885669D01*
X11260584Y-22885669D02*
X11251061Y-22866621D01*
X11251061Y-22866621D02*
X11232013Y-22857097D01*
X11232013Y-22857097D02*
X11203442Y-22857097D01*
X11203442Y-22857097D02*
X11184394Y-22847574D01*
X11184394Y-22847574D02*
X11174870Y-22828526D01*
X11174870Y-22828526D02*
X11174870Y-22819002D01*
X11174870Y-22819002D02*
X11184394Y-22799954D01*
X11184394Y-22799954D02*
X11203442Y-22790431D01*
X11203442Y-22790431D02*
X11232013Y-22790431D01*
X11232013Y-22790431D02*
X11251061Y-22799954D01*
X11327251Y-22999954D02*
X11336775Y-22990431D01*
X11336775Y-22990431D02*
X11355823Y-22961859D01*
X11355823Y-22961859D02*
X11365346Y-22942812D01*
X11365346Y-22942812D02*
X11374870Y-22914240D01*
X11374870Y-22914240D02*
X11384394Y-22866621D01*
X11384394Y-22866621D02*
X11384394Y-22828526D01*
X11384394Y-22828526D02*
X11374870Y-22780907D01*
X11374870Y-22780907D02*
X11365346Y-22752335D01*
X11365346Y-22752335D02*
X11355823Y-22733288D01*
X11355823Y-22733288D02*
X11336775Y-22704716D01*
X11336775Y-22704716D02*
X11327251Y-22695193D01*
X11689156Y-22999954D02*
X11679632Y-22990431D01*
X11679632Y-22990431D02*
X11660584Y-22961859D01*
X11660584Y-22961859D02*
X11651061Y-22942812D01*
X11651061Y-22942812D02*
X11641537Y-22914240D01*
X11641537Y-22914240D02*
X11632013Y-22866621D01*
X11632013Y-22866621D02*
X11632013Y-22828526D01*
X11632013Y-22828526D02*
X11641537Y-22780907D01*
X11641537Y-22780907D02*
X11651061Y-22752335D01*
X11651061Y-22752335D02*
X11660584Y-22733288D01*
X11660584Y-22733288D02*
X11679632Y-22704716D01*
X11679632Y-22704716D02*
X11689156Y-22695193D01*
X11765346Y-22790431D02*
X11765346Y-22923764D01*
X11765346Y-22809478D02*
X11774870Y-22799954D01*
X11774870Y-22799954D02*
X11793918Y-22790431D01*
X11793918Y-22790431D02*
X11822489Y-22790431D01*
X11822489Y-22790431D02*
X11841537Y-22799954D01*
X11841537Y-22799954D02*
X11851061Y-22819002D01*
X11851061Y-22819002D02*
X11851061Y-22923764D01*
X11974870Y-22923764D02*
X11955823Y-22914240D01*
X11955823Y-22914240D02*
X11946299Y-22904716D01*
X11946299Y-22904716D02*
X11936775Y-22885669D01*
X11936775Y-22885669D02*
X11936775Y-22828526D01*
X11936775Y-22828526D02*
X11946299Y-22809478D01*
X11946299Y-22809478D02*
X11955823Y-22799954D01*
X11955823Y-22799954D02*
X11974870Y-22790431D01*
X11974870Y-22790431D02*
X12003442Y-22790431D01*
X12003442Y-22790431D02*
X12022489Y-22799954D01*
X12022489Y-22799954D02*
X12032013Y-22809478D01*
X12032013Y-22809478D02*
X12041537Y-22828526D01*
X12041537Y-22828526D02*
X12041537Y-22885669D01*
X12041537Y-22885669D02*
X12032013Y-22904716D01*
X12032013Y-22904716D02*
X12022489Y-22914240D01*
X12022489Y-22914240D02*
X12003442Y-22923764D01*
X12003442Y-22923764D02*
X11974870Y-22923764D01*
X12098680Y-22790431D02*
X12174870Y-22790431D01*
X12127251Y-22723764D02*
X12127251Y-22895193D01*
X12127251Y-22895193D02*
X12136775Y-22914240D01*
X12136775Y-22914240D02*
X12155823Y-22923764D01*
X12155823Y-22923764D02*
X12174870Y-22923764D01*
X12393918Y-22790431D02*
X12393918Y-22990431D01*
X12393918Y-22799954D02*
X12412965Y-22790431D01*
X12412965Y-22790431D02*
X12451061Y-22790431D01*
X12451061Y-22790431D02*
X12470108Y-22799954D01*
X12470108Y-22799954D02*
X12479632Y-22809478D01*
X12479632Y-22809478D02*
X12489156Y-22828526D01*
X12489156Y-22828526D02*
X12489156Y-22885669D01*
X12489156Y-22885669D02*
X12479632Y-22904716D01*
X12479632Y-22904716D02*
X12470108Y-22914240D01*
X12470108Y-22914240D02*
X12451061Y-22923764D01*
X12451061Y-22923764D02*
X12412965Y-22923764D01*
X12412965Y-22923764D02*
X12393918Y-22914240D01*
X12603442Y-22923764D02*
X12584394Y-22914240D01*
X12584394Y-22914240D02*
X12574870Y-22895193D01*
X12574870Y-22895193D02*
X12574870Y-22723764D01*
X12765346Y-22923764D02*
X12765346Y-22819002D01*
X12765346Y-22819002D02*
X12755823Y-22799954D01*
X12755823Y-22799954D02*
X12736775Y-22790431D01*
X12736775Y-22790431D02*
X12698680Y-22790431D01*
X12698680Y-22790431D02*
X12679632Y-22799954D01*
X12765346Y-22914240D02*
X12746299Y-22923764D01*
X12746299Y-22923764D02*
X12698680Y-22923764D01*
X12698680Y-22923764D02*
X12679632Y-22914240D01*
X12679632Y-22914240D02*
X12670108Y-22895193D01*
X12670108Y-22895193D02*
X12670108Y-22876145D01*
X12670108Y-22876145D02*
X12679632Y-22857097D01*
X12679632Y-22857097D02*
X12698680Y-22847574D01*
X12698680Y-22847574D02*
X12746299Y-22847574D01*
X12746299Y-22847574D02*
X12765346Y-22838050D01*
X12832013Y-22790431D02*
X12908204Y-22790431D01*
X12860585Y-22723764D02*
X12860585Y-22895193D01*
X12860585Y-22895193D02*
X12870108Y-22914240D01*
X12870108Y-22914240D02*
X12889156Y-22923764D01*
X12889156Y-22923764D02*
X12908204Y-22923764D01*
X13051061Y-22914240D02*
X13032013Y-22923764D01*
X13032013Y-22923764D02*
X12993918Y-22923764D01*
X12993918Y-22923764D02*
X12974870Y-22914240D01*
X12974870Y-22914240D02*
X12965346Y-22895193D01*
X12965346Y-22895193D02*
X12965346Y-22819002D01*
X12965346Y-22819002D02*
X12974870Y-22799954D01*
X12974870Y-22799954D02*
X12993918Y-22790431D01*
X12993918Y-22790431D02*
X13032013Y-22790431D01*
X13032013Y-22790431D02*
X13051061Y-22799954D01*
X13051061Y-22799954D02*
X13060585Y-22819002D01*
X13060585Y-22819002D02*
X13060585Y-22838050D01*
X13060585Y-22838050D02*
X12965346Y-22857097D01*
X13232013Y-22923764D02*
X13232013Y-22723764D01*
X13232013Y-22914240D02*
X13212966Y-22923764D01*
X13212966Y-22923764D02*
X13174870Y-22923764D01*
X13174870Y-22923764D02*
X13155823Y-22914240D01*
X13155823Y-22914240D02*
X13146299Y-22904716D01*
X13146299Y-22904716D02*
X13136775Y-22885669D01*
X13136775Y-22885669D02*
X13136775Y-22828526D01*
X13136775Y-22828526D02*
X13146299Y-22809478D01*
X13146299Y-22809478D02*
X13155823Y-22799954D01*
X13155823Y-22799954D02*
X13174870Y-22790431D01*
X13174870Y-22790431D02*
X13212966Y-22790431D01*
X13212966Y-22790431D02*
X13232013Y-22799954D01*
X13308204Y-22999954D02*
X13317727Y-22990431D01*
X13317727Y-22990431D02*
X13336775Y-22961859D01*
X13336775Y-22961859D02*
X13346299Y-22942812D01*
X13346299Y-22942812D02*
X13355823Y-22914240D01*
X13355823Y-22914240D02*
X13365346Y-22866621D01*
X13365346Y-22866621D02*
X13365346Y-22828526D01*
X13365346Y-22828526D02*
X13355823Y-22780907D01*
X13355823Y-22780907D02*
X13346299Y-22752335D01*
X13346299Y-22752335D02*
X13336775Y-22733288D01*
X13336775Y-22733288D02*
X13317727Y-22704716D01*
X13317727Y-22704716D02*
X13308204Y-22695193D01*
X6452188Y-23052280D02*
X6452188Y-23252280D01*
X6352188Y-23152280D02*
X6552188Y-23152280D01*
X6803441Y-23062812D02*
X6812965Y-23053288D01*
X6812965Y-23053288D02*
X6832013Y-23043764D01*
X6832013Y-23043764D02*
X6879632Y-23043764D01*
X6879632Y-23043764D02*
X6898679Y-23053288D01*
X6898679Y-23053288D02*
X6908203Y-23062812D01*
X6908203Y-23062812D02*
X6917727Y-23081859D01*
X6917727Y-23081859D02*
X6917727Y-23100907D01*
X6917727Y-23100907D02*
X6908203Y-23129478D01*
X6908203Y-23129478D02*
X6793917Y-23243764D01*
X6793917Y-23243764D02*
X6917727Y-23243764D01*
X7003441Y-23224716D02*
X7012965Y-23234240D01*
X7012965Y-23234240D02*
X7003441Y-23243764D01*
X7003441Y-23243764D02*
X6993917Y-23234240D01*
X6993917Y-23234240D02*
X7003441Y-23224716D01*
X7003441Y-23224716D02*
X7003441Y-23243764D01*
X7193917Y-23043764D02*
X7098679Y-23043764D01*
X7098679Y-23043764D02*
X7089155Y-23139002D01*
X7089155Y-23139002D02*
X7098679Y-23129478D01*
X7098679Y-23129478D02*
X7117727Y-23119954D01*
X7117727Y-23119954D02*
X7165346Y-23119954D01*
X7165346Y-23119954D02*
X7184394Y-23129478D01*
X7184394Y-23129478D02*
X7193917Y-23139002D01*
X7193917Y-23139002D02*
X7203441Y-23158050D01*
X7203441Y-23158050D02*
X7203441Y-23205669D01*
X7203441Y-23205669D02*
X7193917Y-23224716D01*
X7193917Y-23224716D02*
X7184394Y-23234240D01*
X7184394Y-23234240D02*
X7165346Y-23243764D01*
X7165346Y-23243764D02*
X7117727Y-23243764D01*
X7117727Y-23243764D02*
X7098679Y-23234240D01*
X7098679Y-23234240D02*
X7089155Y-23224716D01*
X7327251Y-23043764D02*
X7346298Y-23043764D01*
X7346298Y-23043764D02*
X7365346Y-23053288D01*
X7365346Y-23053288D02*
X7374870Y-23062812D01*
X7374870Y-23062812D02*
X7384394Y-23081859D01*
X7384394Y-23081859D02*
X7393917Y-23119954D01*
X7393917Y-23119954D02*
X7393917Y-23167574D01*
X7393917Y-23167574D02*
X7384394Y-23205669D01*
X7384394Y-23205669D02*
X7374870Y-23224716D01*
X7374870Y-23224716D02*
X7365346Y-23234240D01*
X7365346Y-23234240D02*
X7346298Y-23243764D01*
X7346298Y-23243764D02*
X7327251Y-23243764D01*
X7327251Y-23243764D02*
X7308203Y-23234240D01*
X7308203Y-23234240D02*
X7298679Y-23224716D01*
X7298679Y-23224716D02*
X7289155Y-23205669D01*
X7289155Y-23205669D02*
X7279632Y-23167574D01*
X7279632Y-23167574D02*
X7279632Y-23119954D01*
X7279632Y-23119954D02*
X7289155Y-23081859D01*
X7289155Y-23081859D02*
X7298679Y-23062812D01*
X7298679Y-23062812D02*
X7308203Y-23053288D01*
X7308203Y-23053288D02*
X7327251Y-23043764D01*
X7517727Y-23043764D02*
X7536775Y-23043764D01*
X7536775Y-23043764D02*
X7555822Y-23053288D01*
X7555822Y-23053288D02*
X7565346Y-23062812D01*
X7565346Y-23062812D02*
X7574870Y-23081859D01*
X7574870Y-23081859D02*
X7584394Y-23119954D01*
X7584394Y-23119954D02*
X7584394Y-23167574D01*
X7584394Y-23167574D02*
X7574870Y-23205669D01*
X7574870Y-23205669D02*
X7565346Y-23224716D01*
X7565346Y-23224716D02*
X7555822Y-23234240D01*
X7555822Y-23234240D02*
X7536775Y-23243764D01*
X7536775Y-23243764D02*
X7517727Y-23243764D01*
X7517727Y-23243764D02*
X7498679Y-23234240D01*
X7498679Y-23234240D02*
X7489155Y-23224716D01*
X7489155Y-23224716D02*
X7479632Y-23205669D01*
X7479632Y-23205669D02*
X7470108Y-23167574D01*
X7470108Y-23167574D02*
X7470108Y-23119954D01*
X7470108Y-23119954D02*
X7479632Y-23081859D01*
X7479632Y-23081859D02*
X7489155Y-23062812D01*
X7489155Y-23062812D02*
X7498679Y-23053288D01*
X7498679Y-23053288D02*
X7517727Y-23043764D01*
X7670108Y-23243764D02*
X7670108Y-23110431D01*
X7670108Y-23129478D02*
X7679632Y-23119954D01*
X7679632Y-23119954D02*
X7698679Y-23110431D01*
X7698679Y-23110431D02*
X7727251Y-23110431D01*
X7727251Y-23110431D02*
X7746298Y-23119954D01*
X7746298Y-23119954D02*
X7755822Y-23139002D01*
X7755822Y-23139002D02*
X7755822Y-23243764D01*
X7755822Y-23139002D02*
X7765346Y-23119954D01*
X7765346Y-23119954D02*
X7784394Y-23110431D01*
X7784394Y-23110431D02*
X7812965Y-23110431D01*
X7812965Y-23110431D02*
X7832013Y-23119954D01*
X7832013Y-23119954D02*
X7841536Y-23139002D01*
X7841536Y-23139002D02*
X7841536Y-23243764D01*
X7936775Y-23243764D02*
X7936775Y-23110431D01*
X7936775Y-23129478D02*
X7946298Y-23119954D01*
X7946298Y-23119954D02*
X7965346Y-23110431D01*
X7965346Y-23110431D02*
X7993917Y-23110431D01*
X7993917Y-23110431D02*
X8012965Y-23119954D01*
X8012965Y-23119954D02*
X8022489Y-23139002D01*
X8022489Y-23139002D02*
X8022489Y-23243764D01*
X8022489Y-23139002D02*
X8032013Y-23119954D01*
X8032013Y-23119954D02*
X8051060Y-23110431D01*
X8051060Y-23110431D02*
X8079632Y-23110431D01*
X8079632Y-23110431D02*
X8098679Y-23119954D01*
X8098679Y-23119954D02*
X8108203Y-23139002D01*
X8108203Y-23139002D02*
X8108203Y-23243764D01*
X8498679Y-23034240D02*
X8327251Y-23291383D01*
X8755822Y-23043764D02*
X8774870Y-23043764D01*
X8774870Y-23043764D02*
X8793918Y-23053288D01*
X8793918Y-23053288D02*
X8803441Y-23062812D01*
X8803441Y-23062812D02*
X8812965Y-23081859D01*
X8812965Y-23081859D02*
X8822489Y-23119954D01*
X8822489Y-23119954D02*
X8822489Y-23167574D01*
X8822489Y-23167574D02*
X8812965Y-23205669D01*
X8812965Y-23205669D02*
X8803441Y-23224716D01*
X8803441Y-23224716D02*
X8793918Y-23234240D01*
X8793918Y-23234240D02*
X8774870Y-23243764D01*
X8774870Y-23243764D02*
X8755822Y-23243764D01*
X8755822Y-23243764D02*
X8736775Y-23234240D01*
X8736775Y-23234240D02*
X8727251Y-23224716D01*
X8727251Y-23224716D02*
X8717727Y-23205669D01*
X8717727Y-23205669D02*
X8708203Y-23167574D01*
X8708203Y-23167574D02*
X8708203Y-23119954D01*
X8708203Y-23119954D02*
X8717727Y-23081859D01*
X8717727Y-23081859D02*
X8727251Y-23062812D01*
X8727251Y-23062812D02*
X8736775Y-23053288D01*
X8736775Y-23053288D02*
X8755822Y-23043764D01*
X8908203Y-23224716D02*
X8917727Y-23234240D01*
X8917727Y-23234240D02*
X8908203Y-23243764D01*
X8908203Y-23243764D02*
X8898680Y-23234240D01*
X8898680Y-23234240D02*
X8908203Y-23224716D01*
X8908203Y-23224716D02*
X8908203Y-23243764D01*
X9041537Y-23043764D02*
X9060584Y-23043764D01*
X9060584Y-23043764D02*
X9079632Y-23053288D01*
X9079632Y-23053288D02*
X9089156Y-23062812D01*
X9089156Y-23062812D02*
X9098680Y-23081859D01*
X9098680Y-23081859D02*
X9108203Y-23119954D01*
X9108203Y-23119954D02*
X9108203Y-23167574D01*
X9108203Y-23167574D02*
X9098680Y-23205669D01*
X9098680Y-23205669D02*
X9089156Y-23224716D01*
X9089156Y-23224716D02*
X9079632Y-23234240D01*
X9079632Y-23234240D02*
X9060584Y-23243764D01*
X9060584Y-23243764D02*
X9041537Y-23243764D01*
X9041537Y-23243764D02*
X9022489Y-23234240D01*
X9022489Y-23234240D02*
X9012965Y-23224716D01*
X9012965Y-23224716D02*
X9003441Y-23205669D01*
X9003441Y-23205669D02*
X8993918Y-23167574D01*
X8993918Y-23167574D02*
X8993918Y-23119954D01*
X8993918Y-23119954D02*
X9003441Y-23081859D01*
X9003441Y-23081859D02*
X9012965Y-23062812D01*
X9012965Y-23062812D02*
X9022489Y-23053288D01*
X9022489Y-23053288D02*
X9041537Y-23043764D01*
X9203441Y-23243764D02*
X9241537Y-23243764D01*
X9241537Y-23243764D02*
X9260584Y-23234240D01*
X9260584Y-23234240D02*
X9270108Y-23224716D01*
X9270108Y-23224716D02*
X9289156Y-23196145D01*
X9289156Y-23196145D02*
X9298680Y-23158050D01*
X9298680Y-23158050D02*
X9298680Y-23081859D01*
X9298680Y-23081859D02*
X9289156Y-23062812D01*
X9289156Y-23062812D02*
X9279632Y-23053288D01*
X9279632Y-23053288D02*
X9260584Y-23043764D01*
X9260584Y-23043764D02*
X9222489Y-23043764D01*
X9222489Y-23043764D02*
X9203441Y-23053288D01*
X9203441Y-23053288D02*
X9193918Y-23062812D01*
X9193918Y-23062812D02*
X9184394Y-23081859D01*
X9184394Y-23081859D02*
X9184394Y-23129478D01*
X9184394Y-23129478D02*
X9193918Y-23148526D01*
X9193918Y-23148526D02*
X9203441Y-23158050D01*
X9203441Y-23158050D02*
X9222489Y-23167574D01*
X9222489Y-23167574D02*
X9260584Y-23167574D01*
X9260584Y-23167574D02*
X9279632Y-23158050D01*
X9279632Y-23158050D02*
X9289156Y-23148526D01*
X9289156Y-23148526D02*
X9298680Y-23129478D01*
X9412965Y-23129478D02*
X9393918Y-23119954D01*
X9393918Y-23119954D02*
X9384394Y-23110431D01*
X9384394Y-23110431D02*
X9374870Y-23091383D01*
X9374870Y-23091383D02*
X9374870Y-23081859D01*
X9374870Y-23081859D02*
X9384394Y-23062812D01*
X9384394Y-23062812D02*
X9393918Y-23053288D01*
X9393918Y-23053288D02*
X9412965Y-23043764D01*
X9412965Y-23043764D02*
X9451061Y-23043764D01*
X9451061Y-23043764D02*
X9470108Y-23053288D01*
X9470108Y-23053288D02*
X9479632Y-23062812D01*
X9479632Y-23062812D02*
X9489156Y-23081859D01*
X9489156Y-23081859D02*
X9489156Y-23091383D01*
X9489156Y-23091383D02*
X9479632Y-23110431D01*
X9479632Y-23110431D02*
X9470108Y-23119954D01*
X9470108Y-23119954D02*
X9451061Y-23129478D01*
X9451061Y-23129478D02*
X9412965Y-23129478D01*
X9412965Y-23129478D02*
X9393918Y-23139002D01*
X9393918Y-23139002D02*
X9384394Y-23148526D01*
X9384394Y-23148526D02*
X9374870Y-23167574D01*
X9374870Y-23167574D02*
X9374870Y-23205669D01*
X9374870Y-23205669D02*
X9384394Y-23224716D01*
X9384394Y-23224716D02*
X9393918Y-23234240D01*
X9393918Y-23234240D02*
X9412965Y-23243764D01*
X9412965Y-23243764D02*
X9451061Y-23243764D01*
X9451061Y-23243764D02*
X9470108Y-23234240D01*
X9470108Y-23234240D02*
X9479632Y-23224716D01*
X9479632Y-23224716D02*
X9489156Y-23205669D01*
X9489156Y-23205669D02*
X9489156Y-23167574D01*
X9489156Y-23167574D02*
X9479632Y-23148526D01*
X9479632Y-23148526D02*
X9470108Y-23139002D01*
X9470108Y-23139002D02*
X9451061Y-23129478D01*
X9660584Y-23110431D02*
X9660584Y-23243764D01*
X9612965Y-23034240D02*
X9565346Y-23177097D01*
X9565346Y-23177097D02*
X9689156Y-23177097D01*
X9755822Y-23043764D02*
X9755822Y-23081859D01*
X9832013Y-23043764D02*
X9832013Y-23081859D01*
X10127251Y-23319954D02*
X10117727Y-23310431D01*
X10117727Y-23310431D02*
X10098680Y-23281859D01*
X10098680Y-23281859D02*
X10089156Y-23262812D01*
X10089156Y-23262812D02*
X10079632Y-23234240D01*
X10079632Y-23234240D02*
X10070108Y-23186621D01*
X10070108Y-23186621D02*
X10070108Y-23148526D01*
X10070108Y-23148526D02*
X10079632Y-23100907D01*
X10079632Y-23100907D02*
X10089156Y-23072335D01*
X10089156Y-23072335D02*
X10098680Y-23053288D01*
X10098680Y-23053288D02*
X10117727Y-23024716D01*
X10117727Y-23024716D02*
X10127251Y-23015193D01*
X10193918Y-23062812D02*
X10203442Y-23053288D01*
X10203442Y-23053288D02*
X10222489Y-23043764D01*
X10222489Y-23043764D02*
X10270108Y-23043764D01*
X10270108Y-23043764D02*
X10289156Y-23053288D01*
X10289156Y-23053288D02*
X10298680Y-23062812D01*
X10298680Y-23062812D02*
X10308203Y-23081859D01*
X10308203Y-23081859D02*
X10308203Y-23100907D01*
X10308203Y-23100907D02*
X10298680Y-23129478D01*
X10298680Y-23129478D02*
X10184394Y-23243764D01*
X10184394Y-23243764D02*
X10308203Y-23243764D01*
X10546299Y-23243764D02*
X10546299Y-23043764D01*
X10632013Y-23243764D02*
X10632013Y-23139002D01*
X10632013Y-23139002D02*
X10622489Y-23119954D01*
X10622489Y-23119954D02*
X10603442Y-23110431D01*
X10603442Y-23110431D02*
X10574870Y-23110431D01*
X10574870Y-23110431D02*
X10555823Y-23119954D01*
X10555823Y-23119954D02*
X10546299Y-23129478D01*
X10755823Y-23243764D02*
X10736775Y-23234240D01*
X10736775Y-23234240D02*
X10727251Y-23224716D01*
X10727251Y-23224716D02*
X10717727Y-23205669D01*
X10717727Y-23205669D02*
X10717727Y-23148526D01*
X10717727Y-23148526D02*
X10727251Y-23129478D01*
X10727251Y-23129478D02*
X10736775Y-23119954D01*
X10736775Y-23119954D02*
X10755823Y-23110431D01*
X10755823Y-23110431D02*
X10784394Y-23110431D01*
X10784394Y-23110431D02*
X10803442Y-23119954D01*
X10803442Y-23119954D02*
X10812965Y-23129478D01*
X10812965Y-23129478D02*
X10822489Y-23148526D01*
X10822489Y-23148526D02*
X10822489Y-23205669D01*
X10822489Y-23205669D02*
X10812965Y-23224716D01*
X10812965Y-23224716D02*
X10803442Y-23234240D01*
X10803442Y-23234240D02*
X10784394Y-23243764D01*
X10784394Y-23243764D02*
X10755823Y-23243764D01*
X10936775Y-23243764D02*
X10917727Y-23234240D01*
X10917727Y-23234240D02*
X10908204Y-23215193D01*
X10908204Y-23215193D02*
X10908204Y-23043764D01*
X11089156Y-23234240D02*
X11070108Y-23243764D01*
X11070108Y-23243764D02*
X11032013Y-23243764D01*
X11032013Y-23243764D02*
X11012965Y-23234240D01*
X11012965Y-23234240D02*
X11003442Y-23215193D01*
X11003442Y-23215193D02*
X11003442Y-23139002D01*
X11003442Y-23139002D02*
X11012965Y-23119954D01*
X11012965Y-23119954D02*
X11032013Y-23110431D01*
X11032013Y-23110431D02*
X11070108Y-23110431D01*
X11070108Y-23110431D02*
X11089156Y-23119954D01*
X11089156Y-23119954D02*
X11098680Y-23139002D01*
X11098680Y-23139002D02*
X11098680Y-23158050D01*
X11098680Y-23158050D02*
X11003442Y-23177097D01*
X11174870Y-23234240D02*
X11193918Y-23243764D01*
X11193918Y-23243764D02*
X11232013Y-23243764D01*
X11232013Y-23243764D02*
X11251061Y-23234240D01*
X11251061Y-23234240D02*
X11260584Y-23215193D01*
X11260584Y-23215193D02*
X11260584Y-23205669D01*
X11260584Y-23205669D02*
X11251061Y-23186621D01*
X11251061Y-23186621D02*
X11232013Y-23177097D01*
X11232013Y-23177097D02*
X11203442Y-23177097D01*
X11203442Y-23177097D02*
X11184394Y-23167574D01*
X11184394Y-23167574D02*
X11174870Y-23148526D01*
X11174870Y-23148526D02*
X11174870Y-23139002D01*
X11174870Y-23139002D02*
X11184394Y-23119954D01*
X11184394Y-23119954D02*
X11203442Y-23110431D01*
X11203442Y-23110431D02*
X11232013Y-23110431D01*
X11232013Y-23110431D02*
X11251061Y-23119954D01*
X11327251Y-23319954D02*
X11336775Y-23310431D01*
X11336775Y-23310431D02*
X11355823Y-23281859D01*
X11355823Y-23281859D02*
X11365346Y-23262812D01*
X11365346Y-23262812D02*
X11374870Y-23234240D01*
X11374870Y-23234240D02*
X11384394Y-23186621D01*
X11384394Y-23186621D02*
X11384394Y-23148526D01*
X11384394Y-23148526D02*
X11374870Y-23100907D01*
X11374870Y-23100907D02*
X11365346Y-23072335D01*
X11365346Y-23072335D02*
X11355823Y-23053288D01*
X11355823Y-23053288D02*
X11336775Y-23024716D01*
X11336775Y-23024716D02*
X11327251Y-23015193D01*
X11689156Y-23319954D02*
X11679632Y-23310431D01*
X11679632Y-23310431D02*
X11660584Y-23281859D01*
X11660584Y-23281859D02*
X11651061Y-23262812D01*
X11651061Y-23262812D02*
X11641537Y-23234240D01*
X11641537Y-23234240D02*
X11632013Y-23186621D01*
X11632013Y-23186621D02*
X11632013Y-23148526D01*
X11632013Y-23148526D02*
X11641537Y-23100907D01*
X11641537Y-23100907D02*
X11651061Y-23072335D01*
X11651061Y-23072335D02*
X11660584Y-23053288D01*
X11660584Y-23053288D02*
X11679632Y-23024716D01*
X11679632Y-23024716D02*
X11689156Y-23015193D01*
X11765346Y-23110431D02*
X11765346Y-23243764D01*
X11765346Y-23129478D02*
X11774870Y-23119954D01*
X11774870Y-23119954D02*
X11793918Y-23110431D01*
X11793918Y-23110431D02*
X11822489Y-23110431D01*
X11822489Y-23110431D02*
X11841537Y-23119954D01*
X11841537Y-23119954D02*
X11851061Y-23139002D01*
X11851061Y-23139002D02*
X11851061Y-23243764D01*
X11974870Y-23243764D02*
X11955823Y-23234240D01*
X11955823Y-23234240D02*
X11946299Y-23224716D01*
X11946299Y-23224716D02*
X11936775Y-23205669D01*
X11936775Y-23205669D02*
X11936775Y-23148526D01*
X11936775Y-23148526D02*
X11946299Y-23129478D01*
X11946299Y-23129478D02*
X11955823Y-23119954D01*
X11955823Y-23119954D02*
X11974870Y-23110431D01*
X11974870Y-23110431D02*
X12003442Y-23110431D01*
X12003442Y-23110431D02*
X12022489Y-23119954D01*
X12022489Y-23119954D02*
X12032013Y-23129478D01*
X12032013Y-23129478D02*
X12041537Y-23148526D01*
X12041537Y-23148526D02*
X12041537Y-23205669D01*
X12041537Y-23205669D02*
X12032013Y-23224716D01*
X12032013Y-23224716D02*
X12022489Y-23234240D01*
X12022489Y-23234240D02*
X12003442Y-23243764D01*
X12003442Y-23243764D02*
X11974870Y-23243764D01*
X12098680Y-23110431D02*
X12174870Y-23110431D01*
X12127251Y-23043764D02*
X12127251Y-23215193D01*
X12127251Y-23215193D02*
X12136775Y-23234240D01*
X12136775Y-23234240D02*
X12155823Y-23243764D01*
X12155823Y-23243764D02*
X12174870Y-23243764D01*
X12393918Y-23110431D02*
X12393918Y-23310431D01*
X12393918Y-23119954D02*
X12412965Y-23110431D01*
X12412965Y-23110431D02*
X12451061Y-23110431D01*
X12451061Y-23110431D02*
X12470108Y-23119954D01*
X12470108Y-23119954D02*
X12479632Y-23129478D01*
X12479632Y-23129478D02*
X12489156Y-23148526D01*
X12489156Y-23148526D02*
X12489156Y-23205669D01*
X12489156Y-23205669D02*
X12479632Y-23224716D01*
X12479632Y-23224716D02*
X12470108Y-23234240D01*
X12470108Y-23234240D02*
X12451061Y-23243764D01*
X12451061Y-23243764D02*
X12412965Y-23243764D01*
X12412965Y-23243764D02*
X12393918Y-23234240D01*
X12603442Y-23243764D02*
X12584394Y-23234240D01*
X12584394Y-23234240D02*
X12574870Y-23215193D01*
X12574870Y-23215193D02*
X12574870Y-23043764D01*
X12765346Y-23243764D02*
X12765346Y-23139002D01*
X12765346Y-23139002D02*
X12755823Y-23119954D01*
X12755823Y-23119954D02*
X12736775Y-23110431D01*
X12736775Y-23110431D02*
X12698680Y-23110431D01*
X12698680Y-23110431D02*
X12679632Y-23119954D01*
X12765346Y-23234240D02*
X12746299Y-23243764D01*
X12746299Y-23243764D02*
X12698680Y-23243764D01*
X12698680Y-23243764D02*
X12679632Y-23234240D01*
X12679632Y-23234240D02*
X12670108Y-23215193D01*
X12670108Y-23215193D02*
X12670108Y-23196145D01*
X12670108Y-23196145D02*
X12679632Y-23177097D01*
X12679632Y-23177097D02*
X12698680Y-23167574D01*
X12698680Y-23167574D02*
X12746299Y-23167574D01*
X12746299Y-23167574D02*
X12765346Y-23158050D01*
X12832013Y-23110431D02*
X12908204Y-23110431D01*
X12860585Y-23043764D02*
X12860585Y-23215193D01*
X12860585Y-23215193D02*
X12870108Y-23234240D01*
X12870108Y-23234240D02*
X12889156Y-23243764D01*
X12889156Y-23243764D02*
X12908204Y-23243764D01*
X13051061Y-23234240D02*
X13032013Y-23243764D01*
X13032013Y-23243764D02*
X12993918Y-23243764D01*
X12993918Y-23243764D02*
X12974870Y-23234240D01*
X12974870Y-23234240D02*
X12965346Y-23215193D01*
X12965346Y-23215193D02*
X12965346Y-23139002D01*
X12965346Y-23139002D02*
X12974870Y-23119954D01*
X12974870Y-23119954D02*
X12993918Y-23110431D01*
X12993918Y-23110431D02*
X13032013Y-23110431D01*
X13032013Y-23110431D02*
X13051061Y-23119954D01*
X13051061Y-23119954D02*
X13060585Y-23139002D01*
X13060585Y-23139002D02*
X13060585Y-23158050D01*
X13060585Y-23158050D02*
X12965346Y-23177097D01*
X13232013Y-23243764D02*
X13232013Y-23043764D01*
X13232013Y-23234240D02*
X13212966Y-23243764D01*
X13212966Y-23243764D02*
X13174870Y-23243764D01*
X13174870Y-23243764D02*
X13155823Y-23234240D01*
X13155823Y-23234240D02*
X13146299Y-23224716D01*
X13146299Y-23224716D02*
X13136775Y-23205669D01*
X13136775Y-23205669D02*
X13136775Y-23148526D01*
X13136775Y-23148526D02*
X13146299Y-23129478D01*
X13146299Y-23129478D02*
X13155823Y-23119954D01*
X13155823Y-23119954D02*
X13174870Y-23110431D01*
X13174870Y-23110431D02*
X13212966Y-23110431D01*
X13212966Y-23110431D02*
X13232013Y-23119954D01*
X13308204Y-23319954D02*
X13317727Y-23310431D01*
X13317727Y-23310431D02*
X13336775Y-23281859D01*
X13336775Y-23281859D02*
X13346299Y-23262812D01*
X13346299Y-23262812D02*
X13355823Y-23234240D01*
X13355823Y-23234240D02*
X13365346Y-23186621D01*
X13365346Y-23186621D02*
X13365346Y-23148526D01*
X13365346Y-23148526D02*
X13355823Y-23100907D01*
X13355823Y-23100907D02*
X13346299Y-23072335D01*
X13346299Y-23072335D02*
X13336775Y-23053288D01*
X13336775Y-23053288D02*
X13317727Y-23024716D01*
X13317727Y-23024716D02*
X13308204Y-23015193D01*
X6522900Y-23542992D02*
X6522900Y-23401569D01*
X6381477Y-23401569D01*
X6381477Y-23542992D01*
X6522900Y-23542992D01*
X6803441Y-23382812D02*
X6812965Y-23373288D01*
X6812965Y-23373288D02*
X6832013Y-23363764D01*
X6832013Y-23363764D02*
X6879632Y-23363764D01*
X6879632Y-23363764D02*
X6898679Y-23373288D01*
X6898679Y-23373288D02*
X6908203Y-23382812D01*
X6908203Y-23382812D02*
X6917727Y-23401859D01*
X6917727Y-23401859D02*
X6917727Y-23420907D01*
X6917727Y-23420907D02*
X6908203Y-23449478D01*
X6908203Y-23449478D02*
X6793917Y-23563764D01*
X6793917Y-23563764D02*
X6917727Y-23563764D01*
X7003441Y-23544716D02*
X7012965Y-23554240D01*
X7012965Y-23554240D02*
X7003441Y-23563764D01*
X7003441Y-23563764D02*
X6993917Y-23554240D01*
X6993917Y-23554240D02*
X7003441Y-23544716D01*
X7003441Y-23544716D02*
X7003441Y-23563764D01*
X7193917Y-23363764D02*
X7098679Y-23363764D01*
X7098679Y-23363764D02*
X7089155Y-23459002D01*
X7089155Y-23459002D02*
X7098679Y-23449478D01*
X7098679Y-23449478D02*
X7117727Y-23439954D01*
X7117727Y-23439954D02*
X7165346Y-23439954D01*
X7165346Y-23439954D02*
X7184394Y-23449478D01*
X7184394Y-23449478D02*
X7193917Y-23459002D01*
X7193917Y-23459002D02*
X7203441Y-23478050D01*
X7203441Y-23478050D02*
X7203441Y-23525669D01*
X7203441Y-23525669D02*
X7193917Y-23544716D01*
X7193917Y-23544716D02*
X7184394Y-23554240D01*
X7184394Y-23554240D02*
X7165346Y-23563764D01*
X7165346Y-23563764D02*
X7117727Y-23563764D01*
X7117727Y-23563764D02*
X7098679Y-23554240D01*
X7098679Y-23554240D02*
X7089155Y-23544716D01*
X7374870Y-23430431D02*
X7374870Y-23563764D01*
X7327251Y-23354240D02*
X7279632Y-23497097D01*
X7279632Y-23497097D02*
X7403441Y-23497097D01*
X7517727Y-23363764D02*
X7536775Y-23363764D01*
X7536775Y-23363764D02*
X7555822Y-23373288D01*
X7555822Y-23373288D02*
X7565346Y-23382812D01*
X7565346Y-23382812D02*
X7574870Y-23401859D01*
X7574870Y-23401859D02*
X7584394Y-23439954D01*
X7584394Y-23439954D02*
X7584394Y-23487574D01*
X7584394Y-23487574D02*
X7574870Y-23525669D01*
X7574870Y-23525669D02*
X7565346Y-23544716D01*
X7565346Y-23544716D02*
X7555822Y-23554240D01*
X7555822Y-23554240D02*
X7536775Y-23563764D01*
X7536775Y-23563764D02*
X7517727Y-23563764D01*
X7517727Y-23563764D02*
X7498679Y-23554240D01*
X7498679Y-23554240D02*
X7489155Y-23544716D01*
X7489155Y-23544716D02*
X7479632Y-23525669D01*
X7479632Y-23525669D02*
X7470108Y-23487574D01*
X7470108Y-23487574D02*
X7470108Y-23439954D01*
X7470108Y-23439954D02*
X7479632Y-23401859D01*
X7479632Y-23401859D02*
X7489155Y-23382812D01*
X7489155Y-23382812D02*
X7498679Y-23373288D01*
X7498679Y-23373288D02*
X7517727Y-23363764D01*
X7670108Y-23563764D02*
X7670108Y-23430431D01*
X7670108Y-23449478D02*
X7679632Y-23439954D01*
X7679632Y-23439954D02*
X7698679Y-23430431D01*
X7698679Y-23430431D02*
X7727251Y-23430431D01*
X7727251Y-23430431D02*
X7746298Y-23439954D01*
X7746298Y-23439954D02*
X7755822Y-23459002D01*
X7755822Y-23459002D02*
X7755822Y-23563764D01*
X7755822Y-23459002D02*
X7765346Y-23439954D01*
X7765346Y-23439954D02*
X7784394Y-23430431D01*
X7784394Y-23430431D02*
X7812965Y-23430431D01*
X7812965Y-23430431D02*
X7832013Y-23439954D01*
X7832013Y-23439954D02*
X7841536Y-23459002D01*
X7841536Y-23459002D02*
X7841536Y-23563764D01*
X7936775Y-23563764D02*
X7936775Y-23430431D01*
X7936775Y-23449478D02*
X7946298Y-23439954D01*
X7946298Y-23439954D02*
X7965346Y-23430431D01*
X7965346Y-23430431D02*
X7993917Y-23430431D01*
X7993917Y-23430431D02*
X8012965Y-23439954D01*
X8012965Y-23439954D02*
X8022489Y-23459002D01*
X8022489Y-23459002D02*
X8022489Y-23563764D01*
X8022489Y-23459002D02*
X8032013Y-23439954D01*
X8032013Y-23439954D02*
X8051060Y-23430431D01*
X8051060Y-23430431D02*
X8079632Y-23430431D01*
X8079632Y-23430431D02*
X8098679Y-23439954D01*
X8098679Y-23439954D02*
X8108203Y-23459002D01*
X8108203Y-23459002D02*
X8108203Y-23563764D01*
X8498679Y-23354240D02*
X8327251Y-23611383D01*
X8755822Y-23363764D02*
X8774870Y-23363764D01*
X8774870Y-23363764D02*
X8793918Y-23373288D01*
X8793918Y-23373288D02*
X8803441Y-23382812D01*
X8803441Y-23382812D02*
X8812965Y-23401859D01*
X8812965Y-23401859D02*
X8822489Y-23439954D01*
X8822489Y-23439954D02*
X8822489Y-23487574D01*
X8822489Y-23487574D02*
X8812965Y-23525669D01*
X8812965Y-23525669D02*
X8803441Y-23544716D01*
X8803441Y-23544716D02*
X8793918Y-23554240D01*
X8793918Y-23554240D02*
X8774870Y-23563764D01*
X8774870Y-23563764D02*
X8755822Y-23563764D01*
X8755822Y-23563764D02*
X8736775Y-23554240D01*
X8736775Y-23554240D02*
X8727251Y-23544716D01*
X8727251Y-23544716D02*
X8717727Y-23525669D01*
X8717727Y-23525669D02*
X8708203Y-23487574D01*
X8708203Y-23487574D02*
X8708203Y-23439954D01*
X8708203Y-23439954D02*
X8717727Y-23401859D01*
X8717727Y-23401859D02*
X8727251Y-23382812D01*
X8727251Y-23382812D02*
X8736775Y-23373288D01*
X8736775Y-23373288D02*
X8755822Y-23363764D01*
X8908203Y-23544716D02*
X8917727Y-23554240D01*
X8917727Y-23554240D02*
X8908203Y-23563764D01*
X8908203Y-23563764D02*
X8898680Y-23554240D01*
X8898680Y-23554240D02*
X8908203Y-23544716D01*
X8908203Y-23544716D02*
X8908203Y-23563764D01*
X9108203Y-23563764D02*
X8993918Y-23563764D01*
X9051060Y-23563764D02*
X9051060Y-23363764D01*
X9051060Y-23363764D02*
X9032013Y-23392335D01*
X9032013Y-23392335D02*
X9012965Y-23411383D01*
X9012965Y-23411383D02*
X8993918Y-23420907D01*
X9232013Y-23363764D02*
X9251061Y-23363764D01*
X9251061Y-23363764D02*
X9270108Y-23373288D01*
X9270108Y-23373288D02*
X9279632Y-23382812D01*
X9279632Y-23382812D02*
X9289156Y-23401859D01*
X9289156Y-23401859D02*
X9298680Y-23439954D01*
X9298680Y-23439954D02*
X9298680Y-23487574D01*
X9298680Y-23487574D02*
X9289156Y-23525669D01*
X9289156Y-23525669D02*
X9279632Y-23544716D01*
X9279632Y-23544716D02*
X9270108Y-23554240D01*
X9270108Y-23554240D02*
X9251061Y-23563764D01*
X9251061Y-23563764D02*
X9232013Y-23563764D01*
X9232013Y-23563764D02*
X9212965Y-23554240D01*
X9212965Y-23554240D02*
X9203441Y-23544716D01*
X9203441Y-23544716D02*
X9193918Y-23525669D01*
X9193918Y-23525669D02*
X9184394Y-23487574D01*
X9184394Y-23487574D02*
X9184394Y-23439954D01*
X9184394Y-23439954D02*
X9193918Y-23401859D01*
X9193918Y-23401859D02*
X9203441Y-23382812D01*
X9203441Y-23382812D02*
X9212965Y-23373288D01*
X9212965Y-23373288D02*
X9232013Y-23363764D01*
X9422489Y-23363764D02*
X9441537Y-23363764D01*
X9441537Y-23363764D02*
X9460584Y-23373288D01*
X9460584Y-23373288D02*
X9470108Y-23382812D01*
X9470108Y-23382812D02*
X9479632Y-23401859D01*
X9479632Y-23401859D02*
X9489156Y-23439954D01*
X9489156Y-23439954D02*
X9489156Y-23487574D01*
X9489156Y-23487574D02*
X9479632Y-23525669D01*
X9479632Y-23525669D02*
X9470108Y-23544716D01*
X9470108Y-23544716D02*
X9460584Y-23554240D01*
X9460584Y-23554240D02*
X9441537Y-23563764D01*
X9441537Y-23563764D02*
X9422489Y-23563764D01*
X9422489Y-23563764D02*
X9403441Y-23554240D01*
X9403441Y-23554240D02*
X9393918Y-23544716D01*
X9393918Y-23544716D02*
X9384394Y-23525669D01*
X9384394Y-23525669D02*
X9374870Y-23487574D01*
X9374870Y-23487574D02*
X9374870Y-23439954D01*
X9374870Y-23439954D02*
X9384394Y-23401859D01*
X9384394Y-23401859D02*
X9393918Y-23382812D01*
X9393918Y-23382812D02*
X9403441Y-23373288D01*
X9403441Y-23373288D02*
X9422489Y-23363764D01*
X9612965Y-23363764D02*
X9632013Y-23363764D01*
X9632013Y-23363764D02*
X9651061Y-23373288D01*
X9651061Y-23373288D02*
X9660584Y-23382812D01*
X9660584Y-23382812D02*
X9670108Y-23401859D01*
X9670108Y-23401859D02*
X9679632Y-23439954D01*
X9679632Y-23439954D02*
X9679632Y-23487574D01*
X9679632Y-23487574D02*
X9670108Y-23525669D01*
X9670108Y-23525669D02*
X9660584Y-23544716D01*
X9660584Y-23544716D02*
X9651061Y-23554240D01*
X9651061Y-23554240D02*
X9632013Y-23563764D01*
X9632013Y-23563764D02*
X9612965Y-23563764D01*
X9612965Y-23563764D02*
X9593918Y-23554240D01*
X9593918Y-23554240D02*
X9584394Y-23544716D01*
X9584394Y-23544716D02*
X9574870Y-23525669D01*
X9574870Y-23525669D02*
X9565346Y-23487574D01*
X9565346Y-23487574D02*
X9565346Y-23439954D01*
X9565346Y-23439954D02*
X9574870Y-23401859D01*
X9574870Y-23401859D02*
X9584394Y-23382812D01*
X9584394Y-23382812D02*
X9593918Y-23373288D01*
X9593918Y-23373288D02*
X9612965Y-23363764D01*
X9755822Y-23363764D02*
X9755822Y-23401859D01*
X9832013Y-23363764D02*
X9832013Y-23401859D01*
X10127251Y-23639954D02*
X10117727Y-23630431D01*
X10117727Y-23630431D02*
X10098680Y-23601859D01*
X10098680Y-23601859D02*
X10089156Y-23582812D01*
X10089156Y-23582812D02*
X10079632Y-23554240D01*
X10079632Y-23554240D02*
X10070108Y-23506621D01*
X10070108Y-23506621D02*
X10070108Y-23468526D01*
X10070108Y-23468526D02*
X10079632Y-23420907D01*
X10079632Y-23420907D02*
X10089156Y-23392335D01*
X10089156Y-23392335D02*
X10098680Y-23373288D01*
X10098680Y-23373288D02*
X10117727Y-23344716D01*
X10117727Y-23344716D02*
X10127251Y-23335193D01*
X10193918Y-23382812D02*
X10203442Y-23373288D01*
X10203442Y-23373288D02*
X10222489Y-23363764D01*
X10222489Y-23363764D02*
X10270108Y-23363764D01*
X10270108Y-23363764D02*
X10289156Y-23373288D01*
X10289156Y-23373288D02*
X10298680Y-23382812D01*
X10298680Y-23382812D02*
X10308203Y-23401859D01*
X10308203Y-23401859D02*
X10308203Y-23420907D01*
X10308203Y-23420907D02*
X10298680Y-23449478D01*
X10298680Y-23449478D02*
X10184394Y-23563764D01*
X10184394Y-23563764D02*
X10308203Y-23563764D01*
X10546299Y-23563764D02*
X10546299Y-23363764D01*
X10632013Y-23563764D02*
X10632013Y-23459002D01*
X10632013Y-23459002D02*
X10622489Y-23439954D01*
X10622489Y-23439954D02*
X10603442Y-23430431D01*
X10603442Y-23430431D02*
X10574870Y-23430431D01*
X10574870Y-23430431D02*
X10555823Y-23439954D01*
X10555823Y-23439954D02*
X10546299Y-23449478D01*
X10755823Y-23563764D02*
X10736775Y-23554240D01*
X10736775Y-23554240D02*
X10727251Y-23544716D01*
X10727251Y-23544716D02*
X10717727Y-23525669D01*
X10717727Y-23525669D02*
X10717727Y-23468526D01*
X10717727Y-23468526D02*
X10727251Y-23449478D01*
X10727251Y-23449478D02*
X10736775Y-23439954D01*
X10736775Y-23439954D02*
X10755823Y-23430431D01*
X10755823Y-23430431D02*
X10784394Y-23430431D01*
X10784394Y-23430431D02*
X10803442Y-23439954D01*
X10803442Y-23439954D02*
X10812965Y-23449478D01*
X10812965Y-23449478D02*
X10822489Y-23468526D01*
X10822489Y-23468526D02*
X10822489Y-23525669D01*
X10822489Y-23525669D02*
X10812965Y-23544716D01*
X10812965Y-23544716D02*
X10803442Y-23554240D01*
X10803442Y-23554240D02*
X10784394Y-23563764D01*
X10784394Y-23563764D02*
X10755823Y-23563764D01*
X10936775Y-23563764D02*
X10917727Y-23554240D01*
X10917727Y-23554240D02*
X10908204Y-23535193D01*
X10908204Y-23535193D02*
X10908204Y-23363764D01*
X11089156Y-23554240D02*
X11070108Y-23563764D01*
X11070108Y-23563764D02*
X11032013Y-23563764D01*
X11032013Y-23563764D02*
X11012965Y-23554240D01*
X11012965Y-23554240D02*
X11003442Y-23535193D01*
X11003442Y-23535193D02*
X11003442Y-23459002D01*
X11003442Y-23459002D02*
X11012965Y-23439954D01*
X11012965Y-23439954D02*
X11032013Y-23430431D01*
X11032013Y-23430431D02*
X11070108Y-23430431D01*
X11070108Y-23430431D02*
X11089156Y-23439954D01*
X11089156Y-23439954D02*
X11098680Y-23459002D01*
X11098680Y-23459002D02*
X11098680Y-23478050D01*
X11098680Y-23478050D02*
X11003442Y-23497097D01*
X11174870Y-23554240D02*
X11193918Y-23563764D01*
X11193918Y-23563764D02*
X11232013Y-23563764D01*
X11232013Y-23563764D02*
X11251061Y-23554240D01*
X11251061Y-23554240D02*
X11260584Y-23535193D01*
X11260584Y-23535193D02*
X11260584Y-23525669D01*
X11260584Y-23525669D02*
X11251061Y-23506621D01*
X11251061Y-23506621D02*
X11232013Y-23497097D01*
X11232013Y-23497097D02*
X11203442Y-23497097D01*
X11203442Y-23497097D02*
X11184394Y-23487574D01*
X11184394Y-23487574D02*
X11174870Y-23468526D01*
X11174870Y-23468526D02*
X11174870Y-23459002D01*
X11174870Y-23459002D02*
X11184394Y-23439954D01*
X11184394Y-23439954D02*
X11203442Y-23430431D01*
X11203442Y-23430431D02*
X11232013Y-23430431D01*
X11232013Y-23430431D02*
X11251061Y-23439954D01*
X11327251Y-23639954D02*
X11336775Y-23630431D01*
X11336775Y-23630431D02*
X11355823Y-23601859D01*
X11355823Y-23601859D02*
X11365346Y-23582812D01*
X11365346Y-23582812D02*
X11374870Y-23554240D01*
X11374870Y-23554240D02*
X11384394Y-23506621D01*
X11384394Y-23506621D02*
X11384394Y-23468526D01*
X11384394Y-23468526D02*
X11374870Y-23420907D01*
X11374870Y-23420907D02*
X11365346Y-23392335D01*
X11365346Y-23392335D02*
X11355823Y-23373288D01*
X11355823Y-23373288D02*
X11336775Y-23344716D01*
X11336775Y-23344716D02*
X11327251Y-23335193D01*
X11689156Y-23639954D02*
X11679632Y-23630431D01*
X11679632Y-23630431D02*
X11660584Y-23601859D01*
X11660584Y-23601859D02*
X11651061Y-23582812D01*
X11651061Y-23582812D02*
X11641537Y-23554240D01*
X11641537Y-23554240D02*
X11632013Y-23506621D01*
X11632013Y-23506621D02*
X11632013Y-23468526D01*
X11632013Y-23468526D02*
X11641537Y-23420907D01*
X11641537Y-23420907D02*
X11651061Y-23392335D01*
X11651061Y-23392335D02*
X11660584Y-23373288D01*
X11660584Y-23373288D02*
X11679632Y-23344716D01*
X11679632Y-23344716D02*
X11689156Y-23335193D01*
X11765346Y-23430431D02*
X11765346Y-23563764D01*
X11765346Y-23449478D02*
X11774870Y-23439954D01*
X11774870Y-23439954D02*
X11793918Y-23430431D01*
X11793918Y-23430431D02*
X11822489Y-23430431D01*
X11822489Y-23430431D02*
X11841537Y-23439954D01*
X11841537Y-23439954D02*
X11851061Y-23459002D01*
X11851061Y-23459002D02*
X11851061Y-23563764D01*
X11974870Y-23563764D02*
X11955823Y-23554240D01*
X11955823Y-23554240D02*
X11946299Y-23544716D01*
X11946299Y-23544716D02*
X11936775Y-23525669D01*
X11936775Y-23525669D02*
X11936775Y-23468526D01*
X11936775Y-23468526D02*
X11946299Y-23449478D01*
X11946299Y-23449478D02*
X11955823Y-23439954D01*
X11955823Y-23439954D02*
X11974870Y-23430431D01*
X11974870Y-23430431D02*
X12003442Y-23430431D01*
X12003442Y-23430431D02*
X12022489Y-23439954D01*
X12022489Y-23439954D02*
X12032013Y-23449478D01*
X12032013Y-23449478D02*
X12041537Y-23468526D01*
X12041537Y-23468526D02*
X12041537Y-23525669D01*
X12041537Y-23525669D02*
X12032013Y-23544716D01*
X12032013Y-23544716D02*
X12022489Y-23554240D01*
X12022489Y-23554240D02*
X12003442Y-23563764D01*
X12003442Y-23563764D02*
X11974870Y-23563764D01*
X12098680Y-23430431D02*
X12174870Y-23430431D01*
X12127251Y-23363764D02*
X12127251Y-23535193D01*
X12127251Y-23535193D02*
X12136775Y-23554240D01*
X12136775Y-23554240D02*
X12155823Y-23563764D01*
X12155823Y-23563764D02*
X12174870Y-23563764D01*
X12393918Y-23430431D02*
X12393918Y-23630431D01*
X12393918Y-23439954D02*
X12412965Y-23430431D01*
X12412965Y-23430431D02*
X12451061Y-23430431D01*
X12451061Y-23430431D02*
X12470108Y-23439954D01*
X12470108Y-23439954D02*
X12479632Y-23449478D01*
X12479632Y-23449478D02*
X12489156Y-23468526D01*
X12489156Y-23468526D02*
X12489156Y-23525669D01*
X12489156Y-23525669D02*
X12479632Y-23544716D01*
X12479632Y-23544716D02*
X12470108Y-23554240D01*
X12470108Y-23554240D02*
X12451061Y-23563764D01*
X12451061Y-23563764D02*
X12412965Y-23563764D01*
X12412965Y-23563764D02*
X12393918Y-23554240D01*
X12603442Y-23563764D02*
X12584394Y-23554240D01*
X12584394Y-23554240D02*
X12574870Y-23535193D01*
X12574870Y-23535193D02*
X12574870Y-23363764D01*
X12765346Y-23563764D02*
X12765346Y-23459002D01*
X12765346Y-23459002D02*
X12755823Y-23439954D01*
X12755823Y-23439954D02*
X12736775Y-23430431D01*
X12736775Y-23430431D02*
X12698680Y-23430431D01*
X12698680Y-23430431D02*
X12679632Y-23439954D01*
X12765346Y-23554240D02*
X12746299Y-23563764D01*
X12746299Y-23563764D02*
X12698680Y-23563764D01*
X12698680Y-23563764D02*
X12679632Y-23554240D01*
X12679632Y-23554240D02*
X12670108Y-23535193D01*
X12670108Y-23535193D02*
X12670108Y-23516145D01*
X12670108Y-23516145D02*
X12679632Y-23497097D01*
X12679632Y-23497097D02*
X12698680Y-23487574D01*
X12698680Y-23487574D02*
X12746299Y-23487574D01*
X12746299Y-23487574D02*
X12765346Y-23478050D01*
X12832013Y-23430431D02*
X12908204Y-23430431D01*
X12860585Y-23363764D02*
X12860585Y-23535193D01*
X12860585Y-23535193D02*
X12870108Y-23554240D01*
X12870108Y-23554240D02*
X12889156Y-23563764D01*
X12889156Y-23563764D02*
X12908204Y-23563764D01*
X13051061Y-23554240D02*
X13032013Y-23563764D01*
X13032013Y-23563764D02*
X12993918Y-23563764D01*
X12993918Y-23563764D02*
X12974870Y-23554240D01*
X12974870Y-23554240D02*
X12965346Y-23535193D01*
X12965346Y-23535193D02*
X12965346Y-23459002D01*
X12965346Y-23459002D02*
X12974870Y-23439954D01*
X12974870Y-23439954D02*
X12993918Y-23430431D01*
X12993918Y-23430431D02*
X13032013Y-23430431D01*
X13032013Y-23430431D02*
X13051061Y-23439954D01*
X13051061Y-23439954D02*
X13060585Y-23459002D01*
X13060585Y-23459002D02*
X13060585Y-23478050D01*
X13060585Y-23478050D02*
X12965346Y-23497097D01*
X13232013Y-23563764D02*
X13232013Y-23363764D01*
X13232013Y-23554240D02*
X13212966Y-23563764D01*
X13212966Y-23563764D02*
X13174870Y-23563764D01*
X13174870Y-23563764D02*
X13155823Y-23554240D01*
X13155823Y-23554240D02*
X13146299Y-23544716D01*
X13146299Y-23544716D02*
X13136775Y-23525669D01*
X13136775Y-23525669D02*
X13136775Y-23468526D01*
X13136775Y-23468526D02*
X13146299Y-23449478D01*
X13146299Y-23449478D02*
X13155823Y-23439954D01*
X13155823Y-23439954D02*
X13174870Y-23430431D01*
X13174870Y-23430431D02*
X13212966Y-23430431D01*
X13212966Y-23430431D02*
X13232013Y-23439954D01*
X13308204Y-23639954D02*
X13317727Y-23630431D01*
X13317727Y-23630431D02*
X13336775Y-23601859D01*
X13336775Y-23601859D02*
X13346299Y-23582812D01*
X13346299Y-23582812D02*
X13355823Y-23554240D01*
X13355823Y-23554240D02*
X13365346Y-23506621D01*
X13365346Y-23506621D02*
X13365346Y-23468526D01*
X13365346Y-23468526D02*
X13355823Y-23420907D01*
X13355823Y-23420907D02*
X13346299Y-23392335D01*
X13346299Y-23392335D02*
X13336775Y-23373288D01*
X13336775Y-23373288D02*
X13317727Y-23344716D01*
X13317727Y-23344716D02*
X13308204Y-23335193D01*
M02*
